<svg width="245" height="70" viewBox="0 0 245 70" fill="none" xmlns="http://www.w3.org/2000/svg">
<path d="M93.0161 41.744H84.1201L82.6481 46H77.9441L85.9761 23.632H91.1921L99.2241 46H94.4881L93.0161 41.744ZM91.8001 38.16L88.5681 28.816L85.3361 38.16H91.8001ZM118.514 30.576C118.514 31.7707 118.226 32.8907 117.65 33.936C117.096 34.9813 116.21 35.824 114.994 36.464C113.8 37.104 112.285 37.424 110.45 37.424H106.706V46H102.226V23.664H110.45C112.178 23.664 113.65 23.9627 114.866 24.56C116.082 25.1573 116.989 25.9787 117.586 27.024C118.205 28.0693 118.514 29.2533 118.514 30.576ZM110.258 33.808C111.496 33.808 112.413 33.5307 113.01 32.976C113.608 32.4 113.906 31.6 113.906 30.576C113.906 28.4 112.69 27.312 110.258 27.312H106.706V33.808H110.258ZM133.215 46L128.287 37.296H126.175V46H121.695V23.664H130.079C131.807 23.664 133.279 23.9733 134.495 24.592C135.711 25.1893 136.618 26.0107 137.215 27.056C137.834 28.08 138.143 29.232 138.143 30.512C138.143 31.984 137.716 33.3173 136.863 34.512C136.01 35.6853 134.74 36.496 133.055 36.944L138.399 46H133.215ZM126.175 33.936H129.919C131.135 33.936 132.042 33.648 132.639 33.072C133.236 32.4747 133.535 31.6533 133.535 30.608C133.535 29.584 133.236 28.7947 132.639 28.24C132.042 27.664 131.135 27.376 129.919 27.376H126.175V33.936ZM146.675 27.28V32.88H154.195V36.432H146.675V42.352H155.155V46H142.195V23.632H155.155V27.28H146.675ZM178.33 46H173.85L163.706 30.672V46H159.226V23.632H163.706L173.85 38.992V23.632H178.33V46ZM190.566 23.664C192.912 23.664 194.971 24.1227 196.742 25.04C198.534 25.9573 199.91 27.2693 200.87 28.976C201.851 30.6613 202.342 32.624 202.342 34.864C202.342 37.104 201.851 39.0667 200.87 40.752C199.91 42.416 198.534 43.7067 196.742 44.624C194.971 45.5413 192.912 46 190.566 46H182.758V23.664H190.566ZM190.406 42.192C192.752 42.192 194.566 41.552 195.846 40.272C197.126 38.992 197.766 37.1893 197.766 34.864C197.766 32.5387 197.126 30.7253 195.846 29.424C194.566 28.1013 192.752 27.44 190.406 27.44H187.238V42.192H190.406ZM210.175 27.28V32.88H217.695V36.432H210.175V42.352H218.655V46H205.695V23.632H218.655V27.28H210.175ZM242.79 23.664L234.598 46H229.158L220.966 23.664H225.766L231.91 41.424L238.022 23.664H242.79Z" fill="#3EC1C2"/>
<path d="M2.08011 4.0695H12.2551V18.3115C12.2554 18.7374 12.3892 19.1526 12.6376 19.4986C12.886 19.8446 13.2366 20.104 13.6401 20.2405L25.8601 24.3115C26.2757 24.4493 26.7246 24.4493 27.1401 24.3115L39.3601 20.2405C39.7636 20.104 40.1142 19.8446 40.3626 19.4986C40.611 19.1526 40.7448 18.7374 40.7451 18.3115V4.0695H50.9201C51.1911 4.07551 51.4605 4.02733 51.7126 3.92778C51.9647 3.82824 52.1944 3.67934 52.3881 3.48983C52.5819 3.30031 52.7359 3.074 52.841 2.82417C52.9461 2.57434 53.0002 2.30604 53.0002 2.035C53.0002 1.76396 52.9461 1.49566 52.841 1.24583C52.7359 0.996005 52.5819 0.769689 52.3881 0.580174C52.1944 0.390658 51.9647 0.24176 51.7126 0.142216C51.4605 0.0426723 51.1911 -0.00550779 50.9201 0.000500051H2.08011C1.80914 -0.00550779 1.53969 0.0426723 1.2876 0.142216C1.0355 0.24176 0.80584 0.390658 0.612076 0.580174C0.418312 0.769689 0.264348 0.996005 0.159241 1.24583C0.0541335 1.49566 0 1.76396 0 2.035C0 2.30604 0.0541335 2.57434 0.159241 2.82417C0.264348 3.074 0.418312 3.30031 0.612076 3.48983C0.80584 3.67934 1.0355 3.82824 1.2876 3.92778C1.53969 4.02733 1.80914 4.07551 2.08011 4.0695ZM38.7101 32.5525C38.1705 32.5525 37.653 32.7668 37.2715 33.1484C36.89 33.5299 36.6756 34.0474 36.6756 34.587C36.6756 35.1266 36.89 35.6441 37.2715 36.0256C37.653 36.4072 38.1705 36.6215 38.7101 36.6215C38.9773 36.6214 39.2419 36.6739 39.4888 36.776C39.7357 36.8782 39.96 37.028 40.149 37.2169C40.338 37.4058 40.4879 37.63 40.5902 37.8769C40.6925 38.1237 40.7451 38.3883 40.7451 38.6555C40.7456 39.195 40.9602 39.7122 41.3418 40.0935C41.7233 40.4749 42.2406 40.6892 42.7801 40.6895H52.8381C52.3231 34.2578 49.4688 28.2379 44.8151 23.7685V26.4475C44.8122 28.0653 44.1679 29.6159 43.0235 30.7594C41.879 31.9029 40.3279 32.5459 38.7101 32.5475V32.5525ZM36.9371 40.4285C35.531 40.0087 34.3233 39.0961 33.5356 37.858C32.7478 36.6199 32.4328 35.1394 32.6483 33.6878C32.8637 32.2363 33.5952 30.9111 34.7086 29.9552C35.822 28.9993 37.2427 28.4768 38.7101 28.4835C39.2496 28.4832 39.7669 28.2689 40.1484 27.8875C40.53 27.5062 40.7446 26.989 40.7451 26.4495V24.0495C40.7161 24.0605 40.6951 24.0805 40.6661 24.0905L28.4261 28.1675C27.1724 28.586 25.8168 28.586 24.5631 28.1675L12.3541 24.1005C11.3519 23.7421 10.4612 23.1269 9.7711 22.3165C6.44192 25.063 3.82769 28.5752 2.1521 32.5525H6.1521C7.41424 32.5539 8.64505 32.9458 9.67574 33.6743C10.7064 34.4027 11.4865 35.4322 11.9091 36.6215H14.2921C15.5542 36.6229 16.785 37.0148 17.8157 37.7433C18.8464 38.4717 19.6265 39.5012 20.0491 40.6905H26.5021C28.1209 40.6905 29.6733 41.3335 30.8179 42.4782C31.9626 43.6228 32.6056 45.1753 32.6056 46.794C32.6056 48.4128 31.9626 49.9652 30.8179 51.1098C29.6733 52.2545 28.1209 52.8975 26.5021 52.8975C25.9625 52.8975 25.445 53.1118 25.0635 53.4934C24.6819 53.8749 24.4676 54.3924 24.4676 54.932C24.4676 55.4716 24.6819 55.9891 25.0635 56.3706C25.445 56.7521 25.9625 56.9665 26.5021 56.9665H30.5721C32.9158 56.9694 35.1869 57.78 37.0028 59.2618C38.8186 60.7436 40.0683 62.806 40.5411 65.1015C44.0397 62.9081 46.9758 59.9257 49.114 56.3931C51.2522 52.8606 52.5332 48.8763 52.8541 44.7595H42.7811C41.4718 44.7582 40.1975 44.3368 39.1457 43.5571C38.0939 42.7775 37.3201 41.6808 36.9381 40.4285H36.9371ZM30.5701 61.0355H26.5001C24.8814 61.0355 23.3289 60.3925 22.1843 59.2478C21.0397 58.1032 20.3966 56.5508 20.3966 54.932C20.3966 53.3133 21.0397 51.7608 22.1843 50.6162C23.3289 49.4715 24.8814 48.8285 26.5001 48.8285C26.7711 48.8345 27.0405 48.7863 27.2926 48.6868C27.5447 48.5872 27.7744 48.4383 27.9681 48.2488C28.1619 48.0593 28.3159 47.833 28.421 47.5832C28.5261 47.3333 28.5802 47.065 28.5802 46.794C28.5802 46.523 28.5261 46.2547 28.421 46.0048C28.3159 45.755 28.1619 45.5287 27.9681 45.3392C27.7744 45.1497 27.5447 45.0008 27.2926 44.9012C27.0405 44.8017 26.7711 44.7535 26.5001 44.7595H18.3601C18.0929 44.7596 17.8283 44.7071 17.5814 44.605C17.3345 44.5028 17.1102 44.353 16.9212 44.1641C16.7322 43.9752 16.5823 43.751 16.48 43.5041C16.3777 43.2573 16.3251 42.9927 16.3251 42.7255C16.3246 42.186 16.11 41.6688 15.7284 41.2875C15.3469 40.9061 14.8296 40.6918 14.2901 40.6915H10.2201C9.95292 40.6916 9.68831 40.6391 9.44142 40.537C9.19453 40.4348 8.97018 40.285 8.7812 40.0961C8.59222 39.9072 8.44231 39.6829 8.34003 39.4361C8.23775 39.1893 8.1851 38.9247 8.1851 38.6575C8.18457 38.118 7.96997 37.6008 7.58842 37.2195C7.20687 36.8381 6.68956 36.6238 6.1501 36.6235H0.781097C0.296021 38.6207 0.0493154 40.6683 0.0461121 42.7235C0.04537 47.0787 1.12032 51.3667 3.17546 55.2065C5.2306 59.0463 8.20231 62.3191 11.8266 64.7341C15.4509 67.1491 19.6156 68.6316 23.9506 69.0498C28.2857 69.468 32.657 68.8091 36.6761 67.1315C36.6732 65.5146 36.0296 63.9647 34.8862 62.8214C33.7429 61.678 32.193 61.0344 30.5761 61.0315L30.5701 61.0355ZM50.9201 16.2765C50.3806 16.2762 49.8633 16.0619 49.4818 15.6805C49.1002 15.2992 48.8856 14.782 48.8851 14.2425V8.1425H44.8151V14.2425C44.818 15.8603 45.4623 17.4109 46.6067 18.5544C47.7512 19.6979 49.3023 20.3409 50.9201 20.3425C51.1911 20.3485 51.4605 20.3003 51.7126 20.2008C51.9647 20.1012 52.1944 19.9523 52.3881 19.7628C52.5819 19.5733 52.7359 19.347 52.841 19.0972C52.9461 18.8473 53.0002 18.579 53.0002 18.308C53.0002 18.037 52.9461 17.7687 52.841 17.5188C52.7359 17.269 52.5819 17.0427 52.3881 16.8532C52.1944 16.6637 51.9647 16.5148 51.7126 16.4152C51.4605 16.3157 51.1911 16.2675 50.9201 16.2735V16.2765Z" fill="url(#paint0_linear)"/>
<defs>
<linearGradient id="paint0_linear" x1="26.5001" y1="0" x2="26.5001" y2="69.172" gradientUnits="userSpaceOnUse">
<stop stop-color="#01BABC"/>
<stop offset="1" stop-color="#89C6F4"/>
</linearGradient>
</defs>
</svg>
