<svg width="524" height="322" viewBox="0 0 524 322" fill="none" xmlns="http://www.w3.org/2000/svg">
<path d="M451.602 321C448.355 321 445.091 320.878 441.79 320.579C429.179 319.439 416.396 318.87 403.848 317.244C375.048 313.509 346.239 313.289 317.231 313.289C305.713 313.289 294.197 313.189 282.682 313.189C265.915 313.189 249.154 313.41 232.421 314.495C206.312 316.187 180.158 316.457 154.002 316.457C150.062 316.457 146.122 316.452 142.181 316.442H141.412C126.934 316.442 112.512 317.306 98.058 317.916C83.535 318.529 69.413 319.536 54.974 319.536C53.672 319.536 52.3667 319.527 51.058 319.51C36.631 319.318 14.664 315.247 4.37099 304.872C-1.74001 298.707 -0.911012 283.872 5.20899 277.933C7.88299 275.333 12.193 273.303 15.709 272.066C25.738 268.541 35.945 268.533 46.424 268.459H46.806C54.1532 268.598 61.4477 269.733 68.49 271.832C74.796 273.616 81.238 274.242 87.651 275.353C93.0745 276.264 98.5655 276.714 104.065 276.697C107.62 276.699 111.173 276.518 114.709 276.154C124.02 275.186 133.398 274.735 142.737 273.972C154.337 273.024 165.682 270.972 177.237 269.866C183.022 269.314 188.673 267.947 194.445 267.325C209.725 265.841 225.073 265.157 240.425 265.275C241.667 265.271 242.909 265.269 244.15 265.27C251.45 265.27 258.756 265.323 266.05 265.323C271.983 265.323 277.912 265.306 283.842 265.306C304.142 265.306 324.427 265.506 344.672 267.291C350.946 267.844 357.178 267.509 363.364 268.824C369.554 270.284 375.858 271.208 382.207 271.584C387.655 271.784 393.117 271.852 398.588 271.852C408.308 271.852 418.047 271.642 427.734 271.609C428.705 271.609 430.055 271.6 431.734 271.6C453.426 271.6 528.992 272.565 523.571 292.1C521.49 299.6 509.378 309.372 502.587 312.516C493.933 316.464 484.657 318.871 475.176 319.629C467.215 320.297 459.452 321.014 451.592 321.014" fill="#F6EAEA"/>
<path d="M140.828 59.305L143.815 56.778L147.684 58.012L149.904 61.243L148.891 64.002L145.749 65.823L146.941 66.141L146.723 67.114L141.787 69.366C140.601 68.13 136.601 67.18 135.965 66.518L139.265 63.683L140.825 59.31" fill="#AA6755"/>
<path d="M43.6699 286.278L43.5549 287.406L43.1709 291.146L50.6229 295.693L54.9229 292.355L51.3889 288.212L51.0599 288.012L50.8859 288.442L43.6689 286.279" fill="#4B505B"/>
<path d="M74.6919 205.706C66.2469 206.261 58.4109 206.49 52.2529 206.572L52.4719 235.447L43.2629 286.159L43.6629 286.279L50.8799 288.442L51.0539 288.012L75.2539 228.225L76.0989 216.035L74.6919 205.706Z" fill="#353A85"/>
<path d="M76.5399 209.779L76.106 216.034L78.269 231.884L80.7339 289.089H80.777L80.808 288.262L88.173 288.486L99.794 227.752L100.42 202.938C92.436 204.212 84.0639 205.054 76.1609 205.604L76.541 209.776" fill="#353A85"/>
<path d="M88.68 288.506L88.172 288.49L80.807 288.266L80.776 289.093L80.666 292.023L88.397 296.023L92.474 292.385L88.674 288.508" fill="#4B505B"/>
<path d="M62.7739 80.889L62.0359 79.024L62.0919 78.983C65.3559 76.508 66.8469 72.198 66.6689 68.124C66.504 65.4677 65.8518 62.8643 64.7449 60.444C63.9375 59.0467 62.9351 57.7715 61.7679 56.657C59.6679 54.667 56.8239 53.084 54.0459 53.181C52.9169 53.22 53.3869 54.1 52.0209 53.405C51.7866 53.2652 51.5774 53.087 51.4019 52.878C51.2019 53.097 51.0639 53.251 51.0259 53.292C49.7177 54.4755 48.2612 55.484 46.6929 56.292C45.4811 57.1328 44.5418 58.31 43.9909 59.6782C43.4401 61.0465 43.3017 62.546 43.5929 63.992C43.8299 65.236 44.3539 66.518 44.0529 67.711C43.6423 68.6723 43.095 69.5692 42.4279 70.374C42.1185 70.915 41.9175 71.5111 41.8359 72.129C44.4489 76.877 49.4089 80.696 54.5109 81.165L54.5239 81.221C54.5919 81.521 54.6619 81.821 54.7459 82.121C55.1199 83.429 56.0099 84.812 57.3729 84.909C57.9996 84.9048 58.6171 84.7585 59.1789 84.481L62.6849 83.064C62.8098 83.0318 62.9267 82.9744 63.0286 82.8955C63.1306 82.8166 63.2154 82.7177 63.2779 82.605C63.3291 82.3835 63.2978 82.151 63.1899 81.951L62.7709 80.89" fill="#AA6755"/>
<path d="M87.9341 47.804C85.1711 47.637 82.7281 49.255 80.4821 50.815C80.0821 48.096 77.4671 46.225 74.9591 45.491C72.4511 44.757 69.8091 44.762 67.3591 43.802C64.4101 42.648 61.4981 40.102 58.5691 40.929C55.9341 41.677 54.2881 44.882 52.6501 47.729L52.5201 47.593C51.3347 46.2336 49.8841 45.1306 48.2571 44.352C43.0001 42.179 43.6031 48.741 39.5631 48.393C38.5881 48.309 37.7631 47.537 36.8441 47.132C35.9737 46.8349 35.0446 46.7514 34.1351 46.8883C33.2257 47.0253 32.3624 47.3787 31.6181 47.919C30.1579 49.006 28.6205 49.9852 27.0181 50.849C25.5321 51.477 23.8531 51.631 22.4681 52.463C20.3881 53.711 20.8141 55.969 20.4451 58.028C20.0351 60.306 19.4091 63.375 18.1781 65.266C17.1716 66.5134 16.0266 67.6423 14.7651 68.6311C14.1276 69.1578 13.6233 69.8275 13.2931 70.5858C12.963 71.344 12.8164 72.1694 12.8651 72.995C13.0991 74.609 14.3781 75.918 14.7451 77.511C15.2451 79.893 14.9891 81.18 16.0511 83.543C16.4892 84.8041 17.2559 85.9253 18.2721 86.791C19.6811 87.767 21.4721 87.512 23.0201 87.043C24.5681 86.574 26.1391 85.9271 27.7631 86.2431C31.2841 86.9331 31.0911 90.412 32.3551 93.143C33.2008 94.9173 34.6452 96.3365 36.4341 97.151C37.5034 97.686 38.6834 97.9624 39.8791 97.9581C41.0747 97.9537 42.2527 97.6687 43.3181 97.126C46.4251 95.393 47.8341 91.362 47.2061 87.647C46.8937 86.3267 46.4883 85.0302 45.9931 83.767C45.8322 83.2802 45.7088 82.7817 45.6241 82.276C45.3391 80.476 46.0411 77.8451 44.2121 76.626C43.7328 76.3997 43.2676 76.1445 42.8191 75.862C42.4951 75.5563 42.2527 75.1744 42.1141 74.751C41.8059 73.9145 41.711 73.0144 41.8381 72.132C41.9196 71.5141 42.1207 70.918 42.4301 70.377C43.0972 69.5722 43.6445 68.6753 44.0551 67.714C44.3551 66.521 43.8321 65.239 43.5951 63.995C43.3039 62.5491 43.4422 61.0495 43.9931 59.6812C44.5439 58.313 45.4832 57.1359 46.6951 56.2951C48.2633 55.487 49.7199 54.4786 51.0281 53.2951C51.0661 53.2551 51.2041 53.1011 51.4041 52.8811C51.5792 53.09 51.7881 53.2681 52.0221 53.408C53.3881 54.108 52.9221 53.223 54.0471 53.184C56.8241 53.084 59.6681 54.669 61.7691 56.66C62.9363 57.7746 63.9387 59.0497 64.7461 60.447C66.2105 62.9474 67.0349 65.7706 67.1461 68.666C67.2761 72.749 65.1581 74.55 67.1021 78.666C67.5356 79.5794 68.0631 80.4451 68.6761 81.249C70.2936 83.4367 72.542 85.0769 75.1191 85.949C75.4051 85.949 75.6881 85.937 75.9701 85.9151C77.3796 85.7974 78.7526 85.4057 80.0121 84.762C81.2776 84.1184 82.4184 83.2546 83.3811 82.211C84.8751 80.6 85.9013 78.612 86.3491 76.461C86.5941 75.261 86.7121 73.9371 87.4991 73.0711C88.1321 72.3711 89.0991 72.104 89.7481 71.423C92.4481 68.589 87.2971 63.445 88.4561 59.551C89.1881 57.089 92.2171 56.129 92.8751 53.638C93.6101 50.858 90.6951 47.98 87.9321 47.814" fill="#292949"/>
<path d="M145.93 67.828C145.03 67.665 135.637 65.001 135.636 65.001C136.186 65.088 112.995 82.1119 110.799 83.437C104.057 87.505 91.299 82.537 83.3849 82.201C82.4223 83.2446 81.2815 84.1083 80.016 84.752C78.7565 85.3956 77.3835 85.7873 75.974 85.905C75.692 85.928 75.408 85.94 75.123 85.939C72.5458 85.0668 70.2974 83.4266 68.68 81.239C67.713 81.014 66.94 80.849 66.421 80.739L62.777 80.886L63.196 81.947C63.3038 82.147 63.3351 82.3795 63.284 82.601C63.2214 82.7137 63.1365 82.8125 63.0346 82.8914C62.9327 82.9703 62.8158 83.0277 62.691 83.06L59.185 84.477C58.6231 84.7544 58.0056 84.9008 57.379 84.905C56.016 84.805 55.125 83.425 54.752 82.117C54.668 81.823 54.598 81.517 54.53 81.217L47.614 81.4969L45.998 83.7599C46.4932 85.0231 46.8986 86.3197 47.211 87.64C47.839 91.355 46.43 95.386 43.323 97.119C42.2575 97.6617 41.0796 97.9466 39.8839 97.951C38.6883 97.9553 37.5083 97.6789 36.4389 97.144L35.002 178.313L41.79 208.956C41.79 208.956 46.67 209.09 54.218 208.99C60.041 208.913 67.453 208.696 75.44 208.171L76.824 208.077C84.299 207.556 92.217 206.76 99.768 205.556C102.679 205.091 105.536 204.567 108.29 203.973C108.29 203.973 115.377 184.717 105.19 136.398C103.59 128.807 101.378 120.276 99.2299 112.72C106.018 106.896 124.204 96.83 130.145 90.145C136.652 82.822 145.989 67.833 146.194 67.87L145.929 67.821" fill="#DDDAE8"/>
<path d="M453.647 69.027L437.534 71.866L408.965 93.994L370.821 84.035L366.402 93.202L401.866 110.268L417.317 114.168L437.392 107.616L453.646 69.03" fill="#EFF2F4"/>
<path d="M369.786 90.033L363.819 93.019L359.556 92.537L359.529 91.082L362.029 90.082L353.936 88.327L353.193 84.421L362.893 82.121L371.682 84.68L369.782 90.034" fill="#EAC1A4"/>
<path d="M435.793 279.308L428.27 284.636L425.762 288.711C427.181 289.349 428.649 289.873 430.151 290.278C431.718 290.591 443.943 288.711 443.943 288.711V281.502L435.793 279.308Z" fill="#23262D"/>
<path d="M494.249 281.576L491.472 286.626C491.472 286.626 489.736 293.007 491.24 292.569C492.744 292.131 501.14 290.674 501.474 289.596C501.808 288.518 505.457 284.196 505.884 283.419C506.311 282.642 504.498 277.445 504.498 277.445L494.248 281.576" fill="#23262D"/>
<path d="M442.792 162.727L467.083 235.242L494.246 281.576L504.781 278.516L486.773 225.67C486.773 225.67 484.598 172.585 481.041 156.97L442.792 162.726" fill="#C2C4C6"/>
<path d="M423.568 173.671L432.968 281.501H444.252L447.7 226.332L454.178 177.488L429.526 148.594L423.571 173.671" fill="#C2C4C6"/>
<path d="M423.206 104.673C424.374 99.1149 424.834 93.1329 427.587 87.9519C430.34 82.7709 435.538 78.8449 439.553 74.4389C441.253 72.5719 443.068 70.63 445.596 69.739C447.385 69.2184 449.244 68.9785 451.106 69.0279L468.088 68.5999C470.142 68.4124 472.212 68.635 474.179 69.255C476.998 70.373 478.591 72.9689 479.985 75.3919C483.543 81.5789 484.199 88.441 484.517 95.435C484.507 95.5 488.933 183.266 485.422 181.618C480.868 179.655 476.061 178.341 471.142 177.713C464.185 176.582 457.159 175.918 450.113 175.726L437.704 176.563H430.215C425.72 176.999 426.09 178.351 421.47 178.07C418.515 177.89 421.87 111.045 423.205 104.67" fill="#EFF2F4"/>
<path d="M455.726 71.865L464.154 71.499C464.305 69.2604 464.277 67.0132 464.071 64.779C466.445 64.089 469.204 63.011 469.745 60.598C469.873 59.8283 469.87 59.0426 469.736 58.274C469.365 55.074 468.993 51.8763 468.621 48.6809C468.565 47.5661 468.289 46.4733 467.81 45.4649C466.856 43.7649 464.867 42.927 462.964 42.487C460.54 41.8779 458.013 41.7989 455.555 42.2552C453.098 42.7114 450.767 43.6923 448.723 45.131C447.626 45.8907 446.748 46.9252 446.176 48.131C445.382 50.016 445.776 52.166 446.188 54.171C446.566 56.021 446.943 57.871 447.321 59.721C447.755 61.849 448.421 64.278 450.395 65.176C451.445 65.654 452.718 65.602 453.655 66.276C455.308 67.461 454.936 69.995 455.726 71.869" fill="#EAC1A4"/>
<path d="M440.157 31.229C440.809 31.1306 441.447 30.9547 442.057 30.705C444.092 29.819 445.518 28.043 447.679 27.211C452.279 25.5858 457.317 25.7169 461.826 27.579C465.935 29.307 471.542 29.972 475.22 32.294C476.735 33.3109 477.979 34.6823 478.844 36.289C480.37 39.0534 481.09 42.1902 480.923 45.3434C480.757 48.4965 479.709 51.5398 477.901 54.128C477.059 55.2625 476.12 56.3209 475.093 57.291C472.993 59.327 470.484 61.845 467.719 62.491C467.789 60.054 470.432 52.503 468.674 50.404C466.342 47.622 461.765 47.693 458.486 48.004C454.578 48.37 451.361 47.115 447.464 47.31C445.479 47.41 443.235 47.81 441.712 46.531C439.188 44.1238 437.043 41.3487 435.35 38.3C434.996 37.3814 434.91 36.3812 435.102 35.4158C435.294 34.4503 435.756 33.5592 436.435 32.846C437.438 31.8772 438.758 31.3048 440.151 31.235" fill="#292949"/>
<path d="M448.645 129.146L441.513 137.966L437.92 127.412C437.919 126.542 438.089 125.68 438.42 124.876C439.908 121.276 455.56 76.187 455.56 76.187C455.944 74.7406 456.253 73.2753 456.485 71.797L461.501 71.483L460.676 76.606L458.326 78.623L448.649 129.146" fill="#3B3387"/>
<path d="M281.219 31.842C277.251 25.1 270.038 25.93 264.204 29.569C263.693 29.8872 263.12 30.0924 262.524 30.1708C261.927 30.2493 261.32 30.1993 260.745 30.024C260.169 29.8488 259.637 29.5525 259.186 29.155C258.734 28.7574 258.372 28.2678 258.125 27.719V0.942017H257.763L257.733 0.955017C233.539 1.67247 209.904 8.39533 188.954 20.5184C168.004 32.6414 150.398 49.784 137.721 70.403L157.193 81.642C157.711 78.3135 159.2 75.2119 161.473 72.726C162.843 71.3264 164.485 70.2216 166.297 69.4794C168.11 68.7372 170.055 68.3733 172.013 68.41C174.195 68.4083 176.356 68.8452 178.365 69.6949C180.375 70.5445 182.194 71.7896 183.713 73.356C185.247 74.9009 186.456 76.7371 187.269 78.7564C188.082 80.7757 188.483 82.9374 188.448 85.114C188.386 87.3035 187.819 89.4489 186.79 91.3828C185.762 93.3166 184.3 94.9865 182.519 96.262L201.249 107.076C207.455 97.5891 215.794 89.6851 225.6 83.9954C235.405 78.3056 246.405 74.9878 257.721 74.307L257.764 74.332H258.126V47.89C258.367 47.3531 258.717 46.8724 259.155 46.4789C259.592 46.0855 260.107 45.7878 260.666 45.6052C261.226 45.4226 261.817 45.359 262.402 45.4186C262.988 45.4781 263.554 45.6595 264.065 45.951C268.165 48.292 272.208 50.334 276.795 47.841C279.495 46.2978 281.475 43.7499 282.304 40.7527C283.133 37.7555 282.743 34.5521 281.22 31.841" fill="#A1D8FF"/>
<path d="M172.008 72.865C164.185 72.93 161.297 79.593 161.531 86.465C161.551 87.0666 161.443 87.6655 161.213 88.2217C160.983 88.7778 160.636 89.2782 160.196 89.6893C159.757 90.1004 159.234 90.4127 158.664 90.6052C158.094 90.7976 157.489 90.8657 156.89 90.805L133.702 77.417L133.52 77.73V77.763C122.045 99.0742 116.049 122.905 116.073 147.109C116.098 171.313 122.141 195.132 133.659 216.42L153.131 205.178C150.507 203.066 148.566 200.225 147.55 197.013C147.023 195.127 146.887 193.153 147.15 191.212C147.414 189.272 148.071 187.405 149.082 185.728C150.172 183.838 151.63 182.186 153.371 180.87C155.112 179.555 157.099 178.602 159.215 178.07C161.32 177.514 163.514 177.386 165.67 177.691C167.825 177.997 169.898 178.73 171.765 179.849C173.629 180.998 175.202 182.562 176.361 184.42C177.521 186.277 178.235 188.377 178.449 190.556L197.179 179.742C192.067 169.624 189.391 158.45 189.366 147.113C189.342 135.777 191.968 124.592 197.036 114.451L197.079 114.427L197.26 114.113L174.36 100.892C174.015 100.415 173.774 99.8716 173.652 99.2961C173.53 98.7206 173.53 98.1259 173.652 97.5504C173.773 96.9748 174.014 96.431 174.358 95.9539C174.702 95.4768 175.142 95.0769 175.65 94.78C179.729 92.397 183.517 89.919 183.65 84.701C183.664 81.5903 182.448 78.6002 180.266 76.3831C178.084 74.1659 175.114 72.9016 172.003 72.866" fill="#FA8F21"/>
<path d="M152.932 187.958C149.077 194.765 153.403 200.597 159.471 203.831C160.001 204.114 160.465 204.508 160.831 204.985C161.197 205.462 161.456 206.012 161.592 206.598C161.728 207.184 161.737 207.792 161.619 208.382C161.5 208.972 161.257 209.529 160.906 210.017L137.718 223.405L137.899 223.719L137.925 223.738C150.643 244.332 168.283 261.439 189.257 273.521C210.231 285.602 233.88 292.278 258.075 292.947V270.462C254.933 271.678 251.503 271.939 248.214 271.213C246.317 270.726 244.539 269.857 242.99 268.658C241.441 267.46 240.153 265.957 239.206 264.243C238.115 262.355 237.414 260.266 237.145 258.102C236.876 255.937 237.045 253.741 237.641 251.643C238.212 249.543 239.198 247.578 240.54 245.864C241.882 244.15 243.554 242.722 245.456 241.664C247.383 240.623 249.525 240.042 251.714 239.966C253.903 239.89 256.08 240.32 258.075 241.224V219.597C246.756 218.965 235.741 215.695 225.911 210.048C216.081 204.401 207.708 196.534 201.46 187.074V187.025L201.278 186.711L178.378 199.932C177.792 199.992 177.201 199.929 176.641 199.747C176.082 199.565 175.567 199.268 175.129 198.875C174.691 198.482 174.34 198.001 174.099 197.464C173.858 196.928 173.732 196.346 173.729 195.758C173.705 191.034 173.453 186.514 169.001 183.789C166.314 182.221 163.116 181.779 160.105 182.56C157.094 183.341 154.514 185.282 152.928 187.958" fill="#A1D8FF"/>
<path d="M243.065 262.025C247.033 268.768 254.246 267.937 260.08 264.298C260.591 263.98 261.164 263.775 261.76 263.696C262.357 263.618 262.963 263.668 263.539 263.843C264.115 264.018 264.646 264.315 265.098 264.712C265.55 265.11 265.911 265.599 266.158 266.148V292.924H266.521L266.551 292.911C290.745 292.194 314.38 285.471 335.33 273.348C356.28 261.225 373.886 244.082 386.563 223.463L367.091 212.22C366.573 215.549 365.084 218.65 362.811 221.136C361.441 222.535 359.8 223.639 357.987 224.381C356.175 225.123 354.231 225.487 352.273 225.45C350.091 225.451 347.931 225.014 345.921 224.164C343.911 223.315 342.092 222.069 340.573 220.503C339.039 218.958 337.831 217.122 337.017 215.103C336.204 213.084 335.803 210.922 335.838 208.746C335.9 206.557 336.468 204.411 337.496 202.477C338.525 200.543 339.986 198.874 341.767 197.598L323.037 186.784C316.83 196.27 308.491 204.173 298.685 209.862C288.88 215.552 277.88 218.869 266.564 219.55L266.521 219.525H266.158V245.967C265.917 246.504 265.567 246.985 265.13 247.378C264.692 247.772 264.177 248.069 263.618 248.252C263.059 248.434 262.467 248.498 261.882 248.438C261.296 248.379 260.73 248.198 260.219 247.906C256.119 245.565 252.076 243.523 247.49 246.016C244.79 247.559 242.81 250.107 241.981 253.104C241.152 256.102 241.542 259.305 243.065 262.016" fill="#FA8F21"/>
<path d="M352.276 221C360.1 220.935 362.987 214.272 362.753 207.4C362.733 206.799 362.842 206.2 363.072 205.644C363.302 205.088 363.649 204.588 364.088 204.177C364.528 203.766 365.05 203.454 365.62 203.261C366.191 203.069 366.795 203.001 367.394 203.061L390.582 216.449L390.763 216.135V216.103C402.239 194.792 408.234 170.961 408.21 146.757C408.186 122.552 402.143 98.7334 390.625 77.445L371.153 88.687C373.777 90.7995 375.718 93.6395 376.734 96.851C377.261 98.7373 377.397 100.711 377.133 102.652C376.87 104.593 376.213 106.459 375.202 108.137C374.112 110.027 372.653 111.679 370.912 112.995C369.172 114.31 367.184 115.263 365.068 115.795C362.964 116.351 360.769 116.479 358.614 116.174C356.459 115.869 354.387 115.135 352.52 114.017C350.655 112.869 349.08 111.304 347.919 109.447C346.759 107.589 346.043 105.488 345.829 103.308L327.099 114.122C332.212 124.24 334.887 135.414 334.912 146.751C334.937 158.087 332.31 169.272 327.242 179.413L327.199 179.438L327.018 179.752L349.918 192.973C350.263 193.45 350.504 193.993 350.626 194.569C350.748 195.144 350.748 195.739 350.626 196.315C350.505 196.89 350.264 197.434 349.92 197.911C349.576 198.388 349.136 198.788 348.628 199.085C344.548 201.468 340.76 203.946 340.628 209.164C340.614 212.275 341.83 215.265 344.012 217.482C346.194 219.699 349.165 220.963 352.275 220.999" fill="#A1D8FF"/>
<path d="M371.353 105.908C375.208 99.1 370.882 93.269 364.814 90.035C364.283 89.7517 363.819 89.358 363.453 88.8806C363.087 88.4031 362.827 87.8528 362.691 87.2667C362.555 86.6805 362.545 86.0721 362.664 85.4821C362.782 84.8921 363.025 84.3343 363.377 83.846L386.565 70.458L386.384 70.144L386.358 70.124C373.64 49.5302 355.999 32.4225 335.025 20.3412C314.052 8.25986 290.402 1.58411 266.207 0.914978V23.399C269.349 22.1827 272.779 21.9214 276.069 22.648C277.966 23.1347 279.744 24.004 281.293 25.2026C282.842 26.4012 284.13 27.9037 285.077 29.618C286.168 31.5064 286.869 33.5948 287.138 35.7592C287.407 37.9237 287.238 40.12 286.642 42.218C286.071 44.3185 285.085 46.2834 283.743 47.997C282.401 49.7106 280.729 51.1383 278.827 52.196C276.9 53.2372 274.758 53.8188 272.569 53.8951C270.38 53.9714 268.203 53.5405 266.208 52.636V74.264C277.527 74.8957 288.541 78.1656 298.372 83.8124C308.202 89.4592 316.575 97.3266 322.823 106.786V106.836L323.004 107.15L345.904 93.929C346.489 93.8689 347.081 93.9319 347.64 94.114C348.2 94.296 348.715 94.5932 349.153 94.9863C349.591 95.3794 349.942 95.8598 350.183 96.3965C350.424 96.9333 350.55 97.5146 350.553 98.103C350.577 102.827 350.829 107.347 355.281 110.072C357.968 111.64 361.166 112.081 364.177 111.3C367.188 110.519 369.768 108.579 371.354 105.903" fill="#FA8F21"/>
<path d="M459.185 89.512L460.131 120.812L415.455 130.485L417.455 140.629L466.876 137.554L476.029 129.019L482.166 98.954L459.18 89.508" fill="#EFF2F4"/>
<path d="M417.279 139.722L410.667 143.522L403.42 140.009L410.62 128.539L415.458 130.494L417.281 139.724" fill="#EAC1A4"/>
<path d="M111.588 134.853L111.451 139.113L118.97 141.85L123.303 138.567V133.608L119.119 133.375L118.988 132.284L117.618 131.403L111.585 134.854" fill="#AA6755"/>
<path d="M89.5772 125.439L112.777 130.027C112.777 130.027 111.44 144.176 111.453 143C111.466 141.824 80.9912 140.443 80.9912 140.443L89.5792 125.443" fill="#DDDAE8"/>
</svg>
