<svg width="244" height="140" viewBox="0 0 244 140" fill="none" xmlns="http://www.w3.org/2000/svg">
<path d="M17.8761 139.711C17.8761 139.711 -5.5391 102.33 11.9589 65.312C28.4254 30.4766 55.8866 48.9237 86.596 21.2545C133.219 -20.7528 225.717 3.13483 206.598 61.1377C196.689 91.2004 247.033 109.209 230.187 139.775L17.8761 139.711Z" fill="#EBF3FA"/>
<path d="M180.998 89.4758H154.023C153.666 89.4758 153.374 89.1832 153.374 88.826V86.755C153.374 86.398 153.666 86.1061 154.023 86.1061H180.998C181.354 86.1061 181.647 86.398 181.647 86.755V88.826C181.647 89.1832 181.354 89.4758 180.998 89.4758Z" fill="#D9E7FC"/>
<path d="M160.225 89.476L159.889 91.447L155.027 119.99C155.013 120.089 154.904 120.165 154.773 120.165C154.523 120.165 154.328 119.999 154.356 119.808L158.211 90.5795L158.357 89.476H160.225Z" fill="#D9E7FC"/>
<path d="M160.225 89.476L159.889 91.447C159.658 90.6623 158.211 90.5795 158.211 90.5795L158.357 89.476H160.225Z" fill="#BFD3EF"/>
<path d="M180.248 139.849C180.117 139.849 180.007 139.726 179.993 139.562L175.131 92.7114L174.921 90.6925L174.795 89.4758H176.663L176.808 91.2874L176.923 92.7097L180.664 139.264C180.692 139.577 180.497 139.849 180.248 139.849Z" fill="#D9E7FC"/>
<path d="M176.922 92.7098C176.446 91.1674 174.922 90.6945 174.922 90.6945L174.921 90.6927L174.794 89.476H176.662L176.808 91.2876L176.922 92.7098Z" fill="#BFD3EF"/>
<path d="M160.924 68.786C160.683 68.2957 160.436 67.8108 160.178 67.3299C164.045 62.7918 170.55 56.2641 178.115 53.1904C178.356 53.0921 178.597 53.0471 178.827 53.0471C180.152 53.0471 181.174 54.5147 180.463 55.8288C180.449 55.8546 180.434 55.8806 180.421 55.9067C179.194 58.0844 169.022 63.19 160.924 68.786Z" fill="#E5EFFC"/>
<path d="M162.546 72.4638C162.217 71.6309 161.869 70.8101 161.5 70C168.133 65.7216 177.95 60.5667 187.78 59.6834C187.842 59.678 187.903 59.6753 187.963 59.6753C188.944 59.6753 189.823 60.3856 189.949 61.3738C190.036 62.057 189.785 62.9257 188.764 63.9564C186.644 66.0917 173.976 68.7252 162.546 72.4638Z" fill="#E5EFFC"/>
<path d="M94.8875 52.1676C94.8875 52.1676 88.2021 44.3483 87.2668 36.3688C87.1422 35.308 88.4234 34.6783 89.1933 35.4186C89.2063 35.4308 89.2194 35.4438 89.2325 35.456C90.5267 36.7407 92.2067 46.2591 94.8875 52.1676Z" fill="#DFEBFD"/>
<path d="M96.6062 54.6167C96.6062 54.6167 90.7518 42.1292 92.6373 31.7519C92.7523 31.1188 93.3419 30.6624 93.9786 30.7538C94.3932 30.8139 94.8626 31.1005 95.3016 31.8669C96.4712 33.911 95.2972 46.3393 96.6062 54.6167Z" fill="#DFEBFD"/>
<path d="M125.112 21.4892C122.159 18.2857 116.472 22.73 116.472 22.73C116.472 22.73 115.6 31.4835 114.438 32.2862C113.275 33.089 113.723 24.6568 113.723 24.6568C111.193 25.6791 106.594 31.8298 106.594 31.8298C106.594 31.8298 110.949 39.2406 109.624 39.7338C108.301 40.2252 106.103 32.9742 106.103 32.9742C104.137 34.8872 103.378 38.7401 103.378 38.7401C102.966 44.5859 110.493 44.8127 110.493 44.8127C110.493 44.8127 111.947 47.4137 111.894 51.2941C111.894 51.2941 111.818 52.0454 111.939 53.1916L112.574 52.8609C112.538 52.6635 112.509 52.4688 112.49 52.2777V52.2741L112.489 52.2658C112.481 52.1446 112.471 51.9728 112.461 51.7616V51.7607V51.7597C112.456 51.2785 112.441 50.9295 112.418 50.6833V50.6815C112.379 49.1854 112.406 47.1942 112.796 46.577C112.796 46.577 112.674 46.5146 112.507 46.3566C112.599 46.4264 112.696 46.4999 112.796 46.577C115.097 48.3413 120.738 45.8956 123.445 43.6959C126.152 41.4954 124.385 41.3291 122.031 40.7918C119.676 40.2545 116.448 42.4018 115.155 42.3844C113.861 42.366 115.054 41.0536 117.156 40.1563C119.256 39.259 121.319 40.7533 124.744 39.3637C128.169 37.9741 127.457 30.5403 127.457 30.5403C125.568 32.4139 120.881 33.2763 120.32 32.5801C119.76 31.884 125.783 28.8449 126.594 28.1258C127.404 27.4066 128.065 24.6917 125.112 21.4892Z" fill="#DFEBFD"/>
<path d="M158.276 25.8381C153.91 21.1008 145.502 27.6735 145.502 27.6735C145.502 27.6735 144.211 40.6163 142.494 41.8037C140.775 42.9911 141.436 30.5221 141.436 30.5221C137.694 32.033 130.893 41.1274 130.893 41.1274C130.893 41.1274 137.333 52.0874 135.376 52.8154C133.418 53.5434 130.168 42.8203 130.168 42.8203C127.261 45.6498 126.139 51.3472 126.139 51.3472C125.529 59.9907 136.661 60.3264 136.661 60.3264C136.661 60.3264 138.81 64.1728 138.732 69.9103V69.9105C138.732 69.9105 138.619 71.0214 138.798 72.7164L139.738 72.2264C139.683 71.9345 139.64 71.6468 139.613 71.3642L139.612 71.359L139.611 71.3468C139.6 71.168 139.585 70.9132 139.568 70.6014V70.6003V70.5987C139.563 69.8873 139.541 69.371 139.507 69.0075V69.0041C139.447 66.7919 139.489 63.8477 140.064 62.935C140.064 62.935 139.885 62.8429 139.639 62.6089C139.775 62.7128 139.916 62.8213 140.064 62.935C143.468 65.5436 151.81 61.9277 155.812 58.6742C159.813 55.4206 157.202 55.1744 153.72 54.3804C150.239 53.5865 145.465 56.7609 143.553 56.7349C141.641 56.7088 143.405 54.7673 146.512 53.4407C149.618 52.1142 152.668 54.323 157.733 52.2684C162.797 50.2139 161.744 39.2219 161.744 39.2219C158.952 41.9925 152.02 43.267 151.191 42.2379C150.363 41.2088 159.269 36.7148 160.469 35.6518C161.667 34.5887 162.643 30.5742 158.276 25.8381Z" fill="#DFEBFD"/>
<path d="M34.9805 60.1567C34.9734 52.9462 46.8767 51.9638 46.8767 51.9638C46.8767 51.9638 57.767 61.6242 60.0816 61.2959C62.3963 60.9666 52.3835 51.2182 52.3835 51.2182C56.6066 49.6192 69.1049 51.9307 69.1049 51.9307C69.1049 51.9307 72.1331 65.8317 74.2957 64.9434C76.4582 64.055 70.9861 52.7711 70.9861 52.7711C75.5255 52.8896 80.7746 56.7208 80.7746 56.7208C87.8397 63.3643 78.9439 72.0938 78.9439 72.0938C78.9439 72.0938 80.0979 76.8883 84.5188 81.5461H84.5196C84.5196 81.5461 85.4568 82.3734 86.596 83.9028L85.4515 84.2137C85.2747 83.9324 85.091 83.6642 84.8994 83.4099L84.8959 83.4055L84.888 83.3942C84.7609 83.2392 84.5797 83.0179 84.3568 82.7497L84.3559 82.7488L84.3542 82.7471C83.8185 82.1583 83.4449 81.7168 83.1967 81.3928L83.1941 81.3893C81.5628 79.5255 79.2931 77.1374 78.1269 76.8238C78.1269 76.8238 78.2045 76.6113 78.2289 76.2325C78.1966 76.4206 78.1627 76.6174 78.1269 76.8238C77.3091 81.553 67.7053 84.9157 61.9448 85.2798C56.184 85.6438 58.144 83.4586 60.4031 80.1621C62.662 76.8656 68.9969 75.8501 70.5498 74.3765C72.1018 72.902 69.1781 72.6459 65.6159 73.9149C62.0545 75.183 61.2246 79.3156 55.5007 81.4729C49.7766 83.6302 42.2944 73.7947 42.2944 73.7947C46.6942 73.9506 53.3608 69.7335 53.2603 68.259C53.1597 66.7836 42.4246 69.8528 40.6316 69.8894C38.8386 69.926 34.9875 67.3672 34.9805 60.1567Z" fill="#DFEBFD"/>
<path d="M165.915 90.3618C165.915 93.3761 165.643 96.3277 165.121 99.1922C160.964 122.049 140.955 139.379 116.898 139.379C96.8897 139.379 79.6815 127.392 72.0642 110.208C71.0601 107.943 70.2222 105.587 69.5672 103.158C68.4664 99.079 67.8794 94.7888 67.8794 90.3618C67.8794 86.7412 68.2721 83.2132 69.0167 79.8173C71.0538 70.5267 75.7248 62.224 82.2089 55.7301C84.0474 53.8871 86.034 52.1895 88.1478 50.6569C96.2238 44.7979 106.157 41.3431 116.898 41.3431C118.145 41.3431 119.38 41.3902 120.603 41.4822C122.328 41.611 124.027 41.8295 125.697 42.132C137.107 44.1997 147.143 50.2183 154.335 58.7192C155.786 60.4331 157.121 62.2483 158.327 64.1522C163.133 71.733 165.915 80.7231 165.915 90.3618Z" fill="#699FF0"/>
<path d="M165.915 90.3618C165.915 93.3762 165.643 96.3277 165.12 99.1923C164.582 102.155 163.777 105.025 162.729 107.777C155.707 126.251 137.837 139.38 116.897 139.38C108.552 139.38 100.692 137.294 93.8136 133.615C93.1802 133.275 92.5558 132.925 91.9383 132.559C85.9828 129.029 80.8372 124.273 76.8536 118.639C74.9925 116.007 73.3838 113.186 72.0644 110.208C71.0593 107.943 70.2223 105.588 69.5674 103.158C75.1039 104.481 83.8455 105.898 94.323 105.231C96.1434 105.116 98.0145 104.939 99.9315 104.685C106.681 103.797 113.984 101.988 121.504 98.7629C139.343 91.1134 151.344 75.7988 158.326 64.1526C163.132 71.7333 165.915 80.7231 165.915 90.3618Z" fill="#4888E5"/>
<path d="M165.915 90.3618C165.915 93.3762 165.643 96.3277 165.121 99.1923C163.126 98.9032 160.528 98.621 158.924 98.8091C156.035 99.1496 153.145 105.098 147.196 105.332C141.246 105.566 133.938 101.019 126.119 104.078C118.299 107.138 114.22 103.908 112.861 101.699C111.501 99.4892 116.26 94.3899 115.83 92.1803C115.398 89.9708 116.43 82.492 123.059 82.492C129.688 82.492 132.434 78.869 133.598 77.5626C136.937 73.8183 139.548 77.2229 142.266 74.333C144.986 71.4434 140.226 66.3442 142.266 62.9447C144.306 59.5453 154.335 58.7192 154.335 58.7192C161.56 67.2578 165.915 78.3011 165.915 90.3618Z" fill="#A8D29F"/>
<path d="M93.6539 82.0303C91.2745 85.3817 94.504 92.3501 92.4642 95.9201C90.4245 99.4892 86.5149 98.809 83.6251 100.509C81.1168 101.984 80.1109 108.072 72.0643 110.208C69.3739 104.142 67.8794 97.4259 67.8794 90.3617C67.8794 86.7412 68.2722 83.2131 69.0168 79.8173C70.6586 78.159 72.9082 76.6697 75.9765 75.8623C85.6648 73.3131 85.9052 66.1819 89.8166 66.046C99.3386 65.715 96.0333 78.6781 93.6539 82.0303Z" fill="#A8D29F"/>
<path d="M130.198 63.5395C130.198 63.5395 124.25 62.3496 121.02 64.3895C117.791 66.429 111.246 70.0835 112.097 72.2082C112.946 74.333 119.15 75.9476 121.7 75.8622C124.25 75.7777 122.514 70.7371 134.873 72.2082C138.006 72.5814 138.05 65.6961 130.198 63.5395Z" fill="#A8D29F"/>
<path d="M125.698 42.1314C122.684 47.4074 117.169 54.0897 107.852 56.5042C96.6121 59.4154 87.0519 57.3117 82.2095 55.7301C84.0476 53.8865 86.0348 52.1893 88.1485 50.6564C96.2246 44.7978 106.158 41.3428 116.899 41.3428C118.145 41.3428 119.382 41.3898 120.603 41.4819C122.328 41.6111 124.028 41.8288 125.698 42.1314Z" fill="#7DB2FF"/>
<path d="M162.73 107.777C155.708 126.251 137.837 139.38 116.898 139.38C108.552 139.38 100.692 137.294 93.8139 133.615C93.1809 133.275 92.5557 132.924 91.9385 132.559C104.592 131.635 136.162 127.313 162.73 107.777Z" fill="#3B7FD1"/>
<path d="M101.889 121.865C99.2881 123.762 98.6689 129.591 97.0054 130.399C96.1702 130.804 94.8855 132.263 93.8143 133.614C87.0602 130.003 81.2501 124.855 76.8545 118.638C79.7965 116.595 85.3139 113.146 89.1417 113.052C89.1417 113.052 91.0543 113.03 92.4722 109.144C93.0313 107.612 93.6305 106.254 94.3238 105.231C95.3907 103.658 96.6805 102.881 98.3911 103.494C99.1253 103.757 99.586 104.167 99.9326 104.685C100.922 106.159 100.984 108.501 103.773 110.758C107.539 113.807 104.49 119.968 101.889 121.865Z" fill="#A8D29F"/>
<path d="M139.093 56.0001C139.093 56.0001 138.581 46.7871 127.248 45.1857C127.248 45.1857 126.83 56.0001 139.093 56.0001Z" fill="#A8D29F"/>
<path d="M138.583 55.9367C138.583 55.9367 147.67 57.654 151.348 46.8163C151.348 46.8163 140.86 43.8868 138.583 55.9367Z" fill="#A8D29F"/>
<path d="M138.707 52.0941C138.707 52.0941 142.739 48.8288 139.438 43.3221C139.438 43.3221 134.379 46.7466 138.707 52.0941Z" fill="#A8D29F"/>
<path d="M138.582 55.9363C138.582 55.9363 137.22 61.8463 137.456 63.9291H138.582C138.582 63.9291 138.148 58.4284 139.216 55.6522L138.582 55.9363Z" fill="#A8D29F"/>
<path d="M151.129 70.4298C151.129 70.4298 150.887 66.0705 145.525 65.3125C145.525 65.3125 145.327 70.4298 151.129 70.4298Z" fill="#82B378"/>
<path d="M150.888 70.3997C150.888 70.3997 155.187 71.2123 156.928 66.0837C156.928 66.0837 151.965 64.6979 150.888 70.3997Z" fill="#82B378"/>
<path d="M150.947 68.5808C150.947 68.5808 152.856 67.036 151.293 64.4304C151.293 64.4304 148.899 66.0508 150.947 68.5808Z" fill="#82B378"/>
<path d="M150.887 70.3996C150.887 70.3996 150.243 73.1963 150.354 74.1814H150.887C150.887 74.1814 150.682 71.5789 151.187 70.2648L150.887 70.3996Z" fill="#82B378"/>
<path d="M132.463 59.9902C132.463 59.9902 132.311 57.2532 128.943 56.7771C128.943 56.7771 128.819 59.9902 132.463 59.9902Z" fill="#A8D29F"/>
<path d="M132.31 59.972C132.31 59.972 135.011 60.4817 136.103 57.2622C136.103 57.2622 132.987 56.3918 132.31 59.972Z" fill="#A8D29F"/>
<path d="M132.347 58.8295C132.347 58.8295 133.545 57.86 132.564 56.2236C132.564 56.2236 131.06 57.2416 132.347 58.8295Z" fill="#A8D29F"/>
<path d="M132.31 59.972C132.31 59.972 131.905 61.7278 131.975 62.3468H132.31C132.31 62.3468 132.181 60.712 132.498 59.887L132.31 59.972Z" fill="#A8D29F"/>
<path d="M159.213 53.6873C159.213 53.6873 158.341 53.5171 158.141 53.6873C157.941 53.8575 156.995 54.819 157.198 55.1346C157.4 55.4502 158.372 54.8732 158.574 54.8189C158.776 54.7645 159.341 54.5439 159.341 54.5439L159.213 53.6873Z" fill="#FFB27D"/>
<path d="M168.484 84.5359L169.42 84.8842C169.42 84.8842 173.483 79.2492 173.983 74.2919C174.072 73.4069 174.043 72.5492 173.849 71.7573C173.849 71.7573 173.889 71.5304 173.958 71.1296C173.99 70.9425 174.03 70.7172 174.075 70.4591C174.207 69.7024 174.389 68.6669 174.596 67.4879C175.074 64.7748 175.694 61.3063 176.176 58.7566L175.923 58.6756L173.197 57.796L172.633 56.0059L170.602 55.4715C170.602 55.4715 170.149 56.3587 169.743 60.5503C169.669 61.1001 169.6 61.7064 169.549 62.3639C169.39 64.3707 169.38 66.8602 169.743 69.7062C169.836 70.4347 169.953 71.1869 170.099 71.9597C170.207 72.5265 170.221 73.2981 170.176 74.1847C169.971 78.2373 168.484 84.5359 168.484 84.5359Z" fill="#35488B"/>
<path d="M169.549 62.3639L173.958 71.1297C173.99 70.9425 174.03 70.7173 174.075 70.4591C174.207 69.7024 174.389 68.6669 174.596 67.4879C175.074 64.7748 175.694 61.3064 176.176 58.7566L175.923 58.6756L173.197 57.796L172.633 56.0059L170.602 55.4715C170.602 55.4715 170.149 56.3588 169.743 60.5503C169.669 61.1002 169.6 61.7064 169.549 62.3639Z" fill="#2C3A64"/>
<path d="M171.488 56.5966L171.59 55.7213C173.301 56.1755 177.87 54.4522 177.87 54.4522C177.87 54.4522 179.527 55.9083 179.309 59.399C179.203 61.1027 179.009 68.3425 178.806 70.4848C178.734 71.2613 178.669 71.8139 178.643 72.0345V72.0366C178.634 72.104 178.658 72.1676 178.693 72.2264C178.99 72.7323 179.237 73.2591 179.44 73.7983C181.427 79.0962 179.134 85.6195 179.134 85.6195L178.538 85.3801C178.538 85.3801 177.232 78.1199 176.171 74.9122C175.992 74.3678 175.819 73.9411 175.661 73.6851C175.2 72.9412 174.772 71.7246 174.383 70.2781C173.649 67.5431 173.058 63.9852 172.665 61.2389C172.61 61.2414 171.488 56.5966 171.488 56.5966Z" fill="#35488B"/>
<path d="M159.212 53.6876L159.34 54.5442C159.34 54.5442 159.396 54.5442 159.496 54.5372C159.807 54.516 160.565 54.4735 161.42 54.3814C162.709 54.254 164.238 54.0275 164.847 53.6524C165.774 53.0863 167.296 51.3519 168.286 49.6176C168.314 49.5753 168.337 49.5328 168.358 49.4903C168.875 48.5701 169.236 47.657 169.264 46.9281C169.285 46.482 169.236 46.0997 169.143 45.7671C169.023 45.3282 168.825 44.9815 168.62 44.7195C168.591 44.677 168.563 44.6346 168.52 44.5991C168.181 44.1958 167.847 44.0259 167.847 44.0259C167.678 43.955 167.494 44.04 167.303 44.2452V44.2523C167.147 44.4152 166.977 44.6629 166.815 44.9743L166.8 44.9955C166.766 45.0593 166.729 45.13 166.687 45.2079C166.673 45.222 166.666 45.2432 166.659 45.2575C166.581 45.4202 166.503 45.5901 166.425 45.7671C165.555 47.6641 164.627 50.5378 163.855 51.3943C163.523 51.7624 162.001 52.4844 160.79 53.0224C159.921 53.4046 159.212 53.6876 159.212 53.6876Z" fill="#FFB27D"/>
<path d="M168.222 45.9795C168.759 46.2284 169.408 46.398 170.192 46.4408C173.132 46.6019 173.799 44.0246 173.92 42.314C173.497 42.1607 173.126 42.1751 172.911 42.1866C172.703 42.198 172.486 42.2194 172.306 42.2415C171.946 42.0537 171.3 41.1412 170.927 39.6147L170.8 39.6735L168.679 40.6708C168.679 40.6708 168.904 41.3611 169.071 42.0216C169.2 42.5386 169.294 43.038 169.216 43.1778C169.049 43.2458 168.948 43.2885 168.948 43.2885L168.947 43.2907C168.926 43.345 168.465 44.5202 168.222 45.9795Z" fill="#FFB27D"/>
<path d="M167.487 47.9088C167.509 47.9674 167.533 48.0248 167.56 48.0836C168.305 49.6872 169.683 56.3299 169.683 56.3299C169.486 57.5243 178.658 56.0956 178.682 55.0081C179.005 53.8551 177.536 52.0025 176.708 51.0732C176.604 50.9562 176.51 50.8311 176.43 50.699C176.225 50.3675 176.095 49.9934 176.054 49.6024C175.891 48.0608 175.953 46.6162 175.939 45.7378C175.777 45.6178 175.621 45.5071 175.475 45.4016C175.253 45.239 175.055 45.087 174.909 44.9328C174.75 44.7648 174.65 44.593 174.639 44.3989C174.63 44.2524 174.635 44.1019 174.65 43.9516C174.657 43.8805 174.666 43.8095 174.677 43.7385C174.791 42.9925 175.104 42.3159 175.104 42.3159C174.314 41.9966 172.911 42.1868 172.911 42.1868C172.911 42.1868 172.913 42.2647 172.914 42.3922C172.918 42.9046 172.914 44.2203 172.749 44.4693C172.544 44.7793 168.786 46.1378 168.588 45.7171C168.391 45.3032 168.928 43.3643 168.947 43.291L168.949 43.2887C167.69 43.7828 167.24 44.1974 167.24 44.1974C167.998 44.6892 166.9 46.3532 167.487 47.9088Z" fill="#F99746"/>
<path d="M170.018 34.0524C170.022 33.9246 170.121 32.5507 172.213 32.4791C172.213 32.4791 171.184 32.6021 171.006 33.0537C171.006 33.0537 171.708 32.4958 172.279 32.675C172.849 32.8542 173.183 33.8541 173.187 34.1826C173.19 34.5111 172.874 35.5708 172.51 35.6615C172.374 35.695 172.217 35.6866 172.073 35.6615C172.169 35.8121 172.263 35.9781 172.353 36.1633C173.189 37.8776 172.328 39.5525 171.62 39.3673C171.168 39.2478 171.039 40.0216 171.039 40.0216L166.635 36.4572C166.635 36.4572 168.253 33.1098 170.018 34.0524Z" fill="#2C3A64"/>
<path d="M168.678 40.6711C168.678 40.6711 168.904 41.3614 169.07 42.0225C170.31 41.6766 170.687 40.3726 170.8 39.6741L168.678 40.6711Z" fill="#ED985F"/>
<path d="M168.418 41.4015C168.418 41.4015 171.385 40.7148 170.928 38.8744C170.472 37.0328 170.548 35.7048 168.635 36.0658C166.722 36.4256 166.529 37.2186 166.532 37.8707C166.535 38.5217 167.634 41.5328 168.418 41.4015Z" fill="#FFB27D"/>
<path d="M166.364 36.8253C166.682 36.159 167.058 36.1945 167.293 36.3119C168.687 35.0231 170.054 36.076 170.054 36.076C170.58 37.3481 171.721 37.8674 171.721 37.8674C171.721 37.8674 171.266 38.3334 169.944 38.3239C169.541 38.3204 169.135 38.1354 168.766 37.8805C169.478 38.5966 170.312 39.0341 170.312 39.0341C168.66 38.7175 167.551 36.8028 167.437 36.6C167.296 36.8063 167.029 37.2462 167.007 37.6185C166.976 38.1235 167.149 39.1052 166.86 39.142C166.86 39.142 165.885 37.8259 166.364 36.8253Z" fill="#2C3A64"/>
<path d="M167.239 44.197C167.239 44.197 166.526 45.4431 166.418 45.7637C166.418 45.7637 167.345 45.728 167.719 46.4406C167.719 46.4406 167.808 44.365 167.239 44.197Z" fill="#F99746"/>
<path d="M172.153 54.0977C173.962 54.0787 175.494 52.2002 176.43 50.6988C176.225 50.3674 176.096 49.9933 176.054 49.6022C175.891 48.0607 175.953 46.6161 175.939 45.7377V45.7376C175.778 45.6177 175.621 45.5069 175.475 45.4016C175.252 45.2389 175.055 45.0869 174.911 44.9327C173.429 47.4367 169.699 54.1237 172.153 54.0977Z" fill="#ED7D2B"/>
<path d="M165.315 55.0818L165.562 55.9877C165.562 55.9877 165.875 55.9311 166.369 55.839C166.517 55.8107 166.603 55.7895 166.603 55.7895C166.999 55.7117 167.473 55.6056 167.991 55.4922H167.997C168.882 55.2799 169.873 55.0251 170.709 54.7419C171.296 54.5367 171.805 54.3174 172.152 54.0978C172.187 54.0766 172.216 54.0553 172.251 54.0269C173.079 53.4255 174.063 51.6558 174.828 49.7587C174.935 49.4969 175.033 49.2351 175.133 48.9801C175.487 48.0317 175.769 47.0973 175.939 46.2904C176.045 45.8092 176.116 45.3701 176.131 45.0091C176.137 44.8818 176.144 44.7615 176.137 44.6482C176.124 42.5955 175.105 42.3123 175.105 42.3123C175.083 42.3053 175.061 42.2982 175.033 42.2911C174.856 42.2628 174.672 42.3831 174.48 42.6167C174.24 42.9069 173.985 43.3812 173.723 43.9545C173.32 44.8676 172.895 46.0496 172.5 47.2248C172.28 47.8688 172.067 48.513 171.855 49.1075C171.735 49.4685 171.614 49.8083 171.502 50.1198C171.282 50.7143 171.083 51.1956 170.906 51.5001C170.793 51.6983 170.467 51.9743 170.035 52.2857C169.286 52.8308 168.188 53.489 167.233 54.0269C166.836 54.2536 166.461 54.4589 166.15 54.6287C165.648 54.9048 165.315 55.0818 165.315 55.0818Z" fill="#FFB27D"/>
<path d="M173.727 43.9573C175.088 43.5817 176.14 44.6456 176.14 44.6456C176.123 42.5962 175.103 42.3156 175.103 42.3156C174.692 42.1457 174.217 42.8564 173.727 43.9573Z" fill="#F99746"/>
<path d="M175.672 86.1064H180.383C180.383 86.1064 180.496 85.3879 180.25 84.8437C180.014 84.321 179.644 84.0833 179.732 83.451C179.434 83.7593 178.945 84.1042 178.265 84.0127C178.182 84.1477 177.726 84.8723 177.448 85.0718C177.139 85.293 175.766 85.2146 175.672 86.1064Z" fill="#233862"/>
<path d="M165.558 86.1063H170.269C170.269 86.1063 170.445 85.3546 170.135 84.8435C169.862 84.3914 169.967 84.1336 170.169 83.7591C169.956 83.8463 169.68 83.9254 169.376 83.9081C169.141 83.895 168.892 83.7888 168.675 83.6616C168.472 83.8932 167.605 84.8774 167.333 85.0716C167.026 85.2928 165.652 85.2145 165.558 86.1063Z" fill="#233862"/>
<path d="M158.973 57.066L157.699 57.5884C157.354 57.7298 157.171 58.1064 157.261 58.4597L157.124 58.5156C156.607 56.7163 157.239 54.9017 158.659 54.3191C158.859 54.237 159.064 54.1834 159.272 54.1573C159.926 54.071 160.609 54.2472 161.222 54.6295C161.804 54.9923 162.323 55.5416 162.698 56.2309L162.51 56.3078C162.326 55.9943 161.932 55.8535 161.586 55.995L160.313 56.5175C160.213 56.2744 159.977 56.1272 159.729 56.1272C159.651 56.1272 159.569 56.1423 159.492 56.1736L159.316 56.2462C158.997 56.3774 158.842 56.7461 158.973 57.066ZM165.034 59.2796L163.914 56.5486C163.769 56.1925 163.379 56.0074 163.015 56.1076C162.644 55.4103 162.134 54.8436 161.554 54.446C160.945 54.0259 160.259 53.7945 159.583 53.7975C159.226 53.7988 158.871 53.8664 158.531 54.0056C156.94 54.6579 156.226 56.6691 156.81 58.6441L156.723 58.6797C156.723 58.6797 156.452 58.6607 155.995 58.6607C154.553 58.6607 151.275 58.8522 148.977 60.4492C148.977 60.4492 148.832 60.603 148.826 60.8381C148.824 60.9158 148.837 61.0029 148.875 61.0957C148.875 61.0957 152.566 58.7058 155.979 61.1617C156.189 61.3118 156.392 61.4511 156.591 61.5802L156.896 62.3276C157.404 63.5669 158.834 64.1647 160.072 63.6568L163.198 62.3756L163.85 62.1085C164.954 61.6565 165.487 60.3832 165.034 59.2796Z" fill="#C94C43"/>
<path d="M156.591 61.5801C156.393 61.451 156.19 61.3117 155.98 61.1616C152.567 58.7056 148.876 61.0956 148.876 61.0956C148.837 61.0028 148.824 60.9156 148.826 60.838C149.343 60.4976 151.28 59.3659 153.68 59.7526C156.491 60.2061 157 60.5971 156.591 61.5801Z" fill="#B23B38"/>
<path d="M163.85 62.1084L163.199 62.3756C164.175 61.8423 162.966 59.5894 162.259 58.102C161.551 56.6147 160.482 57.2944 160.482 57.2944C160.236 56.796 159.711 56.8229 159.711 56.8229C159.683 56.3427 159.316 56.2462 159.316 56.2462L159.493 56.1735C159.57 56.1423 159.651 56.1272 159.729 56.1272C159.977 56.1272 160.213 56.2744 160.313 56.5175L161.587 55.995C161.932 55.8535 162.327 55.9943 162.51 56.3078L162.699 56.2309C162.323 55.5416 161.805 54.9923 161.222 54.6295C160.609 54.2472 159.926 54.071 159.272 54.1573C159.375 54.0745 159.485 53.9591 159.583 53.7974C160.259 53.7945 160.945 54.0259 161.555 54.4459C162.134 54.8436 162.645 55.4103 163.015 56.1076C163.379 56.0074 163.769 56.1925 163.915 56.5486L165.035 59.2796C165.488 60.3831 164.954 61.6565 163.85 62.1084Z" fill="#B23B38"/>
<path d="M162.385 55.9595C162.837 56.1506 163.474 56.816 164.493 56.4126C165.223 56.1294 165.995 55.9311 166.37 55.8391C166.518 55.8108 166.603 55.7896 166.603 55.7896L166.199 54.6146C166.199 54.6146 166.186 54.6218 166.151 54.6288C165.889 54.6854 164.558 54.9685 163.935 54.827C163.234 54.6643 162.059 55.5065 162.059 55.5065C162.059 55.5065 161.931 55.7754 162.385 55.9595Z" fill="#FFB27D"/>
<path d="M149.594 63.0685C149.594 62.6435 148.825 61.3313 148.825 61.3313C148.825 61.3313 148.055 62.6435 148.055 63.0685C148.055 63.4937 148.4 63.8382 148.825 63.8382C149.25 63.8382 149.594 63.4937 149.594 63.0685Z" fill="white"/>
<path d="M209.828 135.245C209.828 135.245 210.719 136.07 210.546 136.658C210.372 137.245 209.567 137.636 209.458 138.354C209.35 139.072 208.916 139.463 208.522 139.463C208.132 139.463 206.657 139.463 206.657 139.463C206.657 139.463 206.368 138.958 207.065 138.806C207.761 138.654 208.024 137.81 207.979 137.027C207.935 136.245 208.045 135.201 208.045 135.201L209.524 134.853L209.828 135.245Z" fill="#2C3A64"/>
<path d="M198.889 137.498C198.889 137.498 199.105 139.237 198.714 139.433C198.323 139.629 193.647 139.564 193.647 139.564C193.647 139.564 193.647 138.977 194.452 138.846C195.257 138.715 196.67 138.237 196.908 137.171C197.148 136.106 198.889 137.498 198.889 137.498Z" fill="#2C3A64"/>
<path d="M194.659 110.931C194.659 110.931 194.924 114.227 195.235 118.19C195.656 123.573 196.165 130.185 196.215 131.439C196.301 133.613 196.649 137.093 196.649 137.093C196.649 137.093 197.475 137.919 199.129 137.571C199.129 137.571 200.602 132.604 201.022 127.349C201.03 127.262 201.036 127.176 201.043 127.089C201.434 121.739 202.043 110.474 202.043 110.474L194.659 110.931Z" fill="#35488B"/>
<path d="M194.659 110.931C194.659 110.931 194.924 114.227 195.235 118.19L201.022 127.349C201.03 127.262 201.036 127.176 201.043 127.089C201.434 121.739 202.043 110.474 202.043 110.474L194.659 110.931Z" fill="#2C3A64"/>
<path d="M195.867 111.323C195.867 111.323 200.629 123.261 203.761 128.872C206.893 134.483 207.871 136.049 207.871 136.049C207.871 136.049 209.665 135.331 209.828 134.842C209.828 134.842 208.63 124.01 206.534 121.37C205.348 119.878 203.957 115.4 203.892 113.834C203.827 112.268 203.468 109.169 203.468 109.169L195.867 111.323Z" fill="#35488B"/>
<path d="M186.521 109.669C186.521 109.669 184.84 110.477 184.613 110.683C184.387 110.891 183.829 111.907 183.871 111.984C183.914 112.06 183.997 112.084 184.15 111.978C184.302 111.873 184.73 111.433 184.746 111.515C184.761 111.597 183.605 112.957 183.809 113.246C184.014 113.534 185.174 113.448 185.835 112.977C186.499 112.507 187.16 110.776 187.259 110.682C188.102 109.879 186.521 109.669 186.521 109.669Z" fill="#FFB27D"/>
<path d="M186.444 110.535C185.977 110.129 185.965 110.026 185.965 110.026C185.965 110.026 188.945 104.873 189.203 104.377C189.461 103.881 191.059 96.1415 191.059 96.1415L196.58 94.5407C196.58 94.5407 192.69 104.597 192.012 105.841C190.889 107.895 187.225 110.918 187.225 110.918C187.225 110.918 186.811 110.853 186.444 110.535Z" fill="#ED7D2B"/>
<path d="M193.768 92.5271C193.768 92.5271 191.825 95.9455 189.926 96.3922C189.926 96.3922 190.005 95.2435 190.466 94.458C190.277 94.2341 190.111 94.0295 189.968 93.8456C189.49 93.2324 189.261 92.858 189.261 92.858L189.906 91.1249L190.343 89.949C190.553 90.3305 190.786 90.6562 191.027 90.9341C192.272 92.365 193.768 92.5271 193.768 92.5271Z" fill="#FFB27D"/>
<path d="M191.028 90.9338C191.028 90.9338 191.259 92.647 189.968 93.8455C189.489 93.2323 189.262 92.8577 189.262 92.8577L189.907 91.1246C190.599 90.9139 191.028 90.9338 191.028 90.9338Z" fill="#ED975D"/>
<path d="M188.75 93.1105C188.75 93.1105 191.653 91.9783 190.92 90.1815C190.188 88.3839 190.069 87.0279 188.184 87.6741C186.299 88.3213 186.221 89.153 186.32 89.8123C186.418 90.4716 187.976 93.3588 188.75 93.1105Z" fill="#FFB27D"/>
<path d="M203.749 110.072C202.577 111.755 193.82 114.005 193.924 112.84C193.964 112.394 194.018 111.607 193.924 110.541C193.901 110.291 193.87 110.026 193.83 109.747C193.607 108.215 193.08 106.247 191.901 103.967C191.811 103.795 191.72 103.623 191.624 103.449C191.139 102.566 190.726 101.634 190.411 100.721C189.805 98.9673 189.559 97.2898 189.866 96.1933L189.87 96.1785C191.701 95.332 192.41 92.0495 192.41 92.0495C192.41 92.0495 198.655 93.1703 202.153 101.494C202.153 101.494 202.49 102.408 202.873 103.649C203.339 105.154 203.876 107.137 203.969 108.552C204.014 109.223 203.959 109.768 203.749 110.072Z" fill="#F99746"/>
<path d="M191.338 86.8424C191.357 86.8024 191.416 86.7597 191.56 86.7152C191.56 86.7152 191.426 86.6699 191.268 86.7048C191.186 86.5062 190.988 86.1674 190.616 86.1648C190.616 86.1648 190.83 86.2197 190.908 86.4331C190.399 86.1109 189.455 86.0167 187.099 86.8015C183.993 87.8361 185.545 89.639 186.016 89.7835C186.486 89.9281 187.353 89.0005 188.132 88.8743C188.912 88.7472 189.333 89.8332 189.631 89.9228C189.927 90.0134 189.758 89.7661 190.071 89.5188C190.381 89.2714 190.559 89.8532 190.552 90.2626C190.546 90.671 191.152 91.0586 191.152 91.0586C191.152 91.0586 191.152 91.0586 191.509 90.4054C191.864 89.753 191.767 87.3833 191.428 86.9574C191.397 86.919 191.368 86.8807 191.338 86.8424Z" fill="#2B478B"/>
<path d="M203.97 108.552C196.434 106.279 195.236 97.2943 195.236 97.2943C195.236 97.2943 199.526 100.573 202.873 103.649C203.34 105.154 203.877 107.137 203.97 108.552Z" fill="#ED7D2B"/>
<path d="M206.035 108.846C206.035 108.846 205.865 110.272 205.907 110.505C205.948 110.738 206.22 111.43 206.287 111.434C206.355 111.437 206.56 111.445 206.553 111.303C206.548 111.16 206.456 111.027 206.515 111.051C206.576 111.074 206.591 111.613 206.863 111.599C207.135 111.585 207.936 111.283 207.903 110.658C207.871 110.033 207.019 108.888 206.998 108.785C206.826 107.905 206.035 108.846 206.035 108.846Z" fill="#FFB27D"/>
<path d="M206.486 109.088C205.888 109.361 205.667 109.082 205.667 109.082C205.667 109.082 202.185 103.267 201.817 102.8C201.451 102.332 195.023 99.5729 195.023 99.5729C195.023 99.5729 192.406 98.5729 192.302 96.9862C192.213 95.6065 192.995 94.7601 193.853 94.2488C194.874 93.64 196.168 93.7297 197.107 94.4588C199.217 96.0969 203.396 99.3909 204.068 100.284C205.566 102.272 207.226 108.504 207.226 108.504C207.226 108.504 206.956 108.873 206.486 109.088Z" fill="#F99746"/>
<path d="M191.516 113.031L189.949 114.597L189.928 114.584L187.576 113.107C187.576 113.107 188.793 113.501 188.957 113.455C189.113 113.411 190.813 112.827 191.213 112.876C191.238 112.879 191.258 112.884 191.272 112.892C191.516 113.031 191.516 113.031 191.516 113.031Z" fill="#4A75CB"/>
<path d="M189.88 115.021C189.816 115.008 189.63 114.964 189.376 114.899C188.646 114.712 187.357 114.353 186.85 114.059C186.394 113.795 183.984 112.394 182.323 111.41C182.986 111.055 183.639 111.005 184.187 111.074C186.125 112.213 188.658 113.706 188.968 113.924C189.477 114.283 190.172 114.717 190.172 114.717C190.172 114.717 190.169 114.736 190.163 114.765C190.139 114.862 190.067 115.062 189.88 115.021Z" fill="#E58638"/>
<path d="M189.88 115.021C189.816 115.008 189.63 114.964 189.376 114.899C188.646 114.712 187.357 114.353 186.849 114.059C186.394 113.795 183.984 112.394 182.323 111.41C181.489 110.916 180.845 110.526 180.732 110.439C180.393 110.179 179.741 109.527 179.901 109.405C180.002 109.327 180.166 109.348 180.301 109.37C180.38 109.382 180.449 109.394 180.492 109.387L180.497 109.386C180.524 109.383 180.57 109.375 180.632 109.372C180.857 109.358 181.301 109.389 181.932 109.754C181.932 109.754 182.936 110.34 184.187 111.074C186.125 112.213 188.657 113.706 188.968 113.924C189.477 114.283 190.172 114.717 190.172 114.717C190.172 114.717 190.169 114.736 190.163 114.765C190.139 114.862 190.067 115.062 189.88 115.021Z" fill="#739AF0"/>
<path d="M189.879 115.021C189.816 115.008 189.629 114.964 189.375 114.899C189.409 114.609 189.206 114.379 189.206 114.379L190.162 114.765C190.139 114.862 190.066 115.062 189.879 115.021Z" fill="#4A75CB"/>
<path d="M187.825 113.795C187.82 113.795 187.815 113.793 187.808 113.791C187.794 113.782 187.789 113.763 187.798 113.748L187.815 113.719C187.821 113.709 187.831 113.704 187.842 113.704C187.847 113.704 187.853 113.705 187.857 113.708C187.874 113.717 187.878 113.736 187.869 113.751L187.852 113.779C187.847 113.79 187.835 113.795 187.825 113.795Z" fill="#5E87DD"/>
<path d="M187.686 113.712C187.681 113.712 187.675 113.712 187.67 113.708C187.655 113.699 187.65 113.68 187.659 113.665L187.676 113.637C187.681 113.626 187.691 113.621 187.703 113.621C187.708 113.621 187.713 113.623 187.718 113.625C187.734 113.634 187.739 113.654 187.73 113.669L187.713 113.698C187.708 113.707 187.696 113.712 187.686 113.712Z" fill="#5E87DD"/>
<path d="M187.546 113.63C187.541 113.63 187.534 113.629 187.529 113.625C187.514 113.617 187.51 113.598 187.519 113.583L187.534 113.554C187.541 113.544 187.551 113.538 187.563 113.538C187.568 113.538 187.573 113.54 187.578 113.543C187.593 113.551 187.598 113.572 187.589 113.586L187.573 113.615C187.566 113.625 187.556 113.63 187.546 113.63Z" fill="#5E87DD"/>
<path d="M187.406 113.548C187.4 113.548 187.395 113.546 187.39 113.543C187.376 113.535 187.37 113.515 187.379 113.5L187.396 113.471C187.403 113.461 187.413 113.456 187.423 113.456C187.428 113.456 187.435 113.457 187.44 113.461C187.454 113.469 187.459 113.489 187.45 113.503L187.433 113.532C187.428 113.542 187.417 113.548 187.406 113.548Z" fill="#5E87DD"/>
<path d="M187.266 113.465C187.26 113.465 187.255 113.463 187.249 113.461C187.235 113.452 187.23 113.433 187.238 113.417L187.256 113.39C187.261 113.379 187.271 113.374 187.283 113.374C187.288 113.374 187.293 113.375 187.298 113.378C187.314 113.387 187.319 113.406 187.31 113.421L187.293 113.45C187.288 113.46 187.276 113.465 187.266 113.465Z" fill="#5E87DD"/>
<path d="M187.126 113.383C187.12 113.383 187.115 113.382 187.11 113.378C187.096 113.369 187.091 113.35 187.098 113.335L187.115 113.307C187.121 113.296 187.132 113.291 187.143 113.291C187.148 113.291 187.153 113.293 187.158 113.295C187.174 113.304 187.179 113.323 187.17 113.339L187.153 113.367C187.147 113.377 187.137 113.383 187.126 113.383Z" fill="#5E87DD"/>
<path d="M186.986 113.3C186.98 113.3 186.975 113.299 186.97 113.295C186.956 113.287 186.951 113.268 186.96 113.253L186.976 113.224C186.983 113.214 186.993 113.208 187.003 113.208C187.008 113.208 187.015 113.21 187.018 113.213C187.035 113.221 187.039 113.241 187.03 113.256L187.013 113.285C187.007 113.295 186.997 113.3 186.986 113.3Z" fill="#5E87DD"/>
<path d="M186.846 113.218C186.841 113.218 186.836 113.216 186.83 113.214C186.816 113.204 186.811 113.185 186.819 113.17L186.837 113.141C186.842 113.132 186.854 113.126 186.864 113.126C186.869 113.126 186.874 113.127 186.879 113.131C186.894 113.139 186.9 113.159 186.891 113.173L186.874 113.202C186.868 113.212 186.857 113.218 186.846 113.218Z" fill="#5E87DD"/>
<path d="M186.707 113.135C186.702 113.135 186.697 113.133 186.691 113.131C186.677 113.122 186.671 113.103 186.68 113.087L186.697 113.059C186.703 113.049 186.713 113.044 186.725 113.044C186.73 113.044 186.735 113.044 186.74 113.048C186.755 113.057 186.76 113.076 186.751 113.091L186.735 113.119C186.728 113.129 186.718 113.135 186.707 113.135Z" fill="#5E87DD"/>
<path d="M185.062 112.162C185.057 112.162 185.051 112.161 185.047 112.158C185.03 112.149 185.027 112.13 185.035 112.115L185.052 112.086C185.058 112.076 185.068 112.071 185.08 112.071C185.085 112.071 185.09 112.073 185.095 112.075C185.11 112.084 185.115 112.104 185.105 112.119L185.089 112.147C185.084 112.157 185.072 112.162 185.062 112.162Z" fill="#5E87DD"/>
<path d="M184.924 112.079C184.918 112.079 184.913 112.078 184.908 112.075C184.893 112.066 184.888 112.047 184.896 112.032L184.913 112.004C184.919 111.994 184.931 111.988 184.941 111.988C184.946 111.988 184.952 111.99 184.956 111.992C184.972 112.001 184.976 112.021 184.967 112.036L184.951 112.065C184.945 112.074 184.934 112.079 184.924 112.079Z" fill="#5E87DD"/>
<path d="M184.782 111.998C184.777 111.998 184.772 111.996 184.767 111.993C184.752 111.985 184.747 111.965 184.756 111.95L184.772 111.921C184.779 111.911 184.789 111.906 184.8 111.906C184.805 111.906 184.81 111.907 184.815 111.911C184.831 111.919 184.836 111.938 184.827 111.953L184.809 111.982C184.804 111.992 184.794 111.998 184.782 111.998Z" fill="#5E87DD"/>
<path d="M184.504 111.832C184.498 111.832 184.492 111.831 184.487 111.828C184.472 111.819 184.467 111.8 184.476 111.785L184.492 111.756C184.499 111.746 184.509 111.741 184.52 111.741C184.525 111.741 184.532 111.743 184.535 111.745C184.552 111.754 184.556 111.773 184.547 111.789L184.53 111.817C184.524 111.827 184.514 111.832 184.504 111.832Z" fill="#5E87DD"/>
<path d="M184.224 111.668C184.219 111.668 184.213 111.666 184.209 111.663C184.194 111.654 184.189 111.634 184.198 111.62L184.214 111.591C184.219 111.581 184.231 111.576 184.242 111.576C184.247 111.576 184.252 111.577 184.257 111.58C184.272 111.589 184.277 111.608 184.268 111.623L184.251 111.652C184.244 111.661 184.234 111.668 184.224 111.668Z" fill="#5E87DD"/>
<path d="M184.085 111.585C184.079 111.585 184.074 111.583 184.068 111.581C184.054 111.572 184.049 111.553 184.058 111.537L184.074 111.509C184.08 111.499 184.09 111.493 184.102 111.493C184.107 111.493 184.113 111.494 184.118 111.498C184.133 111.506 184.137 111.526 184.128 111.541L184.112 111.569C184.106 111.58 184.095 111.585 184.085 111.585Z" fill="#5E87DD"/>
<path d="M183.945 111.502C183.94 111.502 183.935 111.5 183.928 111.498C183.915 111.489 183.91 111.47 183.917 111.455L183.935 111.426C183.94 111.416 183.951 111.411 183.962 111.411C183.968 111.411 183.974 111.412 183.978 111.415C183.993 111.424 183.998 111.443 183.989 111.459L183.971 111.486C183.966 111.497 183.956 111.502 183.945 111.502Z" fill="#5E87DD"/>
<path d="M183.406 111.182C183.401 111.182 183.394 111.181 183.389 111.178C183.376 111.169 183.369 111.15 183.378 111.135L183.394 111.107C183.401 111.097 183.412 111.091 183.423 111.091C183.428 111.091 183.433 111.093 183.438 111.095C183.454 111.104 183.459 111.124 183.449 111.139L183.432 111.167C183.426 111.177 183.416 111.182 183.406 111.182Z" fill="#5E87DD"/>
<path d="M183.678 111.344C183.673 111.344 183.668 111.343 183.662 111.34C183.648 111.331 183.642 111.311 183.651 111.296L183.668 111.268C183.674 111.258 183.685 111.253 183.696 111.253C183.701 111.253 183.707 111.254 183.711 111.257C183.726 111.266 183.731 111.285 183.722 111.3L183.705 111.329C183.7 111.338 183.69 111.344 183.678 111.344Z" fill="#5E87DD"/>
<path d="M183.265 111.101C183.26 111.101 183.254 111.099 183.249 111.096C183.234 111.087 183.23 111.067 183.239 111.053L183.255 111.024C183.261 111.014 183.271 111.009 183.283 111.009C183.288 111.009 183.294 111.01 183.299 111.013C183.314 111.022 183.318 111.041 183.309 111.056L183.293 111.085C183.286 111.094 183.276 111.101 183.265 111.101Z" fill="#5E87DD"/>
<path d="M183.126 111.018C183.121 111.018 183.115 111.016 183.11 111.013C183.095 111.005 183.09 110.985 183.099 110.97L183.116 110.941C183.121 110.931 183.132 110.926 183.144 110.926C183.149 110.926 183.154 110.927 183.159 110.931C183.174 110.939 183.179 110.958 183.17 110.973L183.153 111.002C183.148 111.012 183.137 111.018 183.126 111.018Z" fill="#5E87DD"/>
<path d="M182.987 110.935C182.982 110.935 182.976 110.933 182.971 110.931C182.956 110.922 182.951 110.903 182.959 110.888L182.976 110.859C182.982 110.849 182.993 110.843 183.005 110.843C183.01 110.843 183.015 110.845 183.02 110.848C183.035 110.857 183.04 110.876 183.031 110.891L183.013 110.919C183.007 110.93 182.997 110.935 182.987 110.935Z" fill="#5E87DD"/>
<path d="M182.846 110.852C182.84 110.852 182.835 110.851 182.83 110.848C182.815 110.839 182.811 110.82 182.82 110.805L182.836 110.776C182.843 110.767 182.853 110.761 182.864 110.761C182.869 110.761 182.875 110.763 182.88 110.765C182.895 110.774 182.899 110.794 182.89 110.809L182.874 110.837C182.868 110.847 182.858 110.852 182.846 110.852Z" fill="#5E87DD"/>
<path d="M182.707 110.77C182.701 110.77 182.696 110.769 182.691 110.766C182.676 110.756 182.671 110.737 182.68 110.722L182.697 110.694C182.702 110.684 182.713 110.678 182.725 110.678C182.73 110.678 182.735 110.68 182.74 110.683C182.755 110.692 182.76 110.711 182.751 110.726L182.734 110.755C182.728 110.764 182.718 110.77 182.707 110.77Z" fill="#5E87DD"/>
<path d="M182.568 110.688C182.562 110.688 182.557 110.686 182.552 110.683C182.537 110.674 182.532 110.654 182.541 110.64L182.557 110.611C182.563 110.601 182.573 110.596 182.585 110.596C182.591 110.596 182.596 110.597 182.601 110.6C182.616 110.609 182.621 110.628 182.612 110.643L182.595 110.672C182.589 110.681 182.579 110.688 182.568 110.688Z" fill="#5E87DD"/>
<path d="M182.428 110.605C182.422 110.605 182.417 110.603 182.412 110.6C182.397 110.592 182.393 110.573 182.402 110.558L182.418 110.529C182.424 110.519 182.434 110.513 182.444 110.513C182.45 110.513 182.457 110.515 182.462 110.518C182.477 110.527 182.48 110.546 182.472 110.56L182.455 110.589C182.449 110.6 182.439 110.605 182.428 110.605Z" fill="#5E87DD"/>
<path d="M182.289 110.522C182.282 110.522 182.277 110.521 182.272 110.518C182.257 110.509 182.252 110.49 182.261 110.475L182.279 110.446C182.285 110.437 182.295 110.431 182.305 110.431C182.311 110.431 182.316 110.432 182.321 110.435C182.336 110.444 182.341 110.463 182.332 110.479L182.315 110.507C182.31 110.517 182.3 110.522 182.289 110.522Z" fill="#5E87DD"/>
<path d="M182.15 110.441C182.145 110.441 182.14 110.441 182.135 110.437C182.12 110.428 182.115 110.409 182.123 110.394L182.141 110.366C182.146 110.356 182.157 110.35 182.167 110.35C182.173 110.35 182.178 110.352 182.183 110.354C182.198 110.363 182.203 110.383 182.195 110.398L182.177 110.427C182.172 110.436 182.162 110.441 182.15 110.441Z" fill="#5E87DD"/>
<path d="M182.011 110.359C182.006 110.359 181.999 110.358 181.996 110.355C181.981 110.346 181.976 110.326 181.984 110.312L182.001 110.283C182.007 110.273 182.017 110.268 182.028 110.268C182.034 110.268 182.039 110.269 182.044 110.272C182.059 110.281 182.064 110.3 182.055 110.315L182.038 110.344C182.032 110.353 182.022 110.359 182.011 110.359Z" fill="#5E87DD"/>
<path d="M181.872 110.277C181.865 110.277 181.86 110.275 181.855 110.272C181.84 110.264 181.837 110.244 181.844 110.229L181.862 110.2C181.868 110.191 181.878 110.185 181.888 110.185C181.894 110.185 181.899 110.186 181.905 110.19C181.92 110.198 181.924 110.217 181.915 110.232L181.899 110.261C181.893 110.271 181.883 110.277 181.872 110.277Z" fill="#5E87DD"/>
<path d="M180.746 109.57C180.74 109.57 180.734 109.569 180.729 109.568L180.715 109.56L180.497 109.386C180.524 109.383 180.57 109.375 180.632 109.372L180.775 109.485C180.796 109.501 180.799 109.532 180.783 109.552C180.773 109.564 180.76 109.57 180.746 109.57Z" fill="#5E87DD"/>
<path d="M184.327 111.888C184.317 111.888 184.307 111.885 184.297 111.88L184.254 111.855C184.226 111.838 184.217 111.802 184.234 111.774L184.339 111.597C184.349 111.578 184.369 111.567 184.389 111.567C184.399 111.567 184.411 111.57 184.42 111.576L184.461 111.601C184.489 111.618 184.499 111.653 184.483 111.682L184.378 111.859C184.367 111.877 184.348 111.888 184.327 111.888Z" fill="#5E87DD"/>
<path d="M184.605 112.051C184.594 112.051 184.584 112.049 184.575 112.044L184.533 112.018C184.506 112.002 184.495 111.965 184.512 111.937L184.617 111.761C184.628 111.741 184.647 111.732 184.668 111.732C184.678 111.732 184.688 111.734 184.698 111.74L184.74 111.765C184.768 111.781 184.778 111.818 184.761 111.846L184.656 112.023C184.645 112.041 184.626 112.051 184.605 112.051Z" fill="#5E87DD"/>
<path d="M186.298 112.892C186.292 112.892 186.287 112.891 186.282 112.888C186.266 112.879 186.262 112.86 186.271 112.845L186.288 112.816C186.294 112.806 186.305 112.8 186.315 112.8C186.321 112.8 186.326 112.802 186.331 112.805C186.347 112.814 186.35 112.834 186.341 112.848L186.325 112.877C186.319 112.887 186.308 112.892 186.298 112.892Z" fill="#5E87DD"/>
<path d="M186.156 112.81C186.151 112.81 186.146 112.809 186.141 112.806C186.126 112.796 186.12 112.777 186.129 112.762L186.147 112.734C186.154 112.724 186.164 112.718 186.174 112.718C186.179 112.718 186.185 112.72 186.189 112.722C186.205 112.732 186.21 112.751 186.201 112.766L186.184 112.795C186.178 112.804 186.168 112.81 186.156 112.81Z" fill="#5E87DD"/>
<path d="M186.017 112.728C186.012 112.728 186.007 112.726 186.002 112.723C185.986 112.714 185.981 112.694 185.99 112.68L186.008 112.651C186.013 112.641 186.023 112.636 186.035 112.636C186.04 112.636 186.045 112.637 186.05 112.64C186.065 112.649 186.07 112.668 186.062 112.683L186.044 112.712C186.039 112.721 186.027 112.728 186.017 112.728Z" fill="#5E87DD"/>
<path d="M185.879 112.645C185.874 112.645 185.868 112.643 185.863 112.64C185.847 112.631 185.843 112.612 185.852 112.597L185.869 112.569C185.874 112.558 185.885 112.553 185.896 112.553C185.902 112.553 185.907 112.555 185.912 112.557C185.927 112.566 185.931 112.585 185.922 112.6L185.906 112.629C185.899 112.639 185.889 112.645 185.879 112.645Z" fill="#5E87DD"/>
<path d="M185.738 112.562C185.733 112.562 185.727 112.561 185.722 112.558C185.707 112.549 185.702 112.53 185.711 112.515L185.729 112.486C185.734 112.477 185.745 112.471 185.755 112.471C185.761 112.471 185.767 112.472 185.771 112.475C185.786 112.484 185.791 112.504 185.782 112.518L185.766 112.547C185.759 112.557 185.749 112.562 185.738 112.562Z" fill="#5E87DD"/>
<path d="M185.598 112.479C185.593 112.479 185.588 112.478 185.583 112.476C185.567 112.466 185.562 112.447 185.571 112.432L185.589 112.404C185.594 112.394 185.604 112.388 185.616 112.388C185.621 112.388 185.626 112.39 185.631 112.392C185.646 112.402 185.651 112.421 185.642 112.436L185.625 112.464C185.62 112.474 185.608 112.479 185.598 112.479Z" fill="#5E87DD"/>
<path d="M185.459 112.397C185.454 112.397 185.448 112.396 185.443 112.393C185.429 112.384 185.424 112.364 185.433 112.349L185.449 112.321C185.456 112.311 185.466 112.306 185.476 112.306C185.482 112.306 185.487 112.307 185.492 112.31C185.508 112.319 185.513 112.338 185.503 112.353L185.486 112.382C185.481 112.391 185.469 112.397 185.459 112.397Z" fill="#5E87DD"/>
<path d="M185.319 112.315C185.314 112.315 185.308 112.313 185.303 112.31C185.288 112.302 185.283 112.282 185.292 112.267L185.31 112.239C185.315 112.228 185.326 112.223 185.336 112.223C185.341 112.223 185.348 112.225 185.352 112.228C185.367 112.236 185.372 112.256 185.363 112.27L185.347 112.299C185.34 112.309 185.33 112.315 185.319 112.315Z" fill="#5E87DD"/>
<path d="M185.18 112.232C185.175 112.232 185.17 112.231 185.165 112.228C185.149 112.219 185.144 112.2 185.153 112.185L185.171 112.156C185.176 112.146 185.186 112.14 185.198 112.14C185.203 112.14 185.208 112.142 185.213 112.145C185.228 112.154 185.233 112.173 185.224 112.188L185.207 112.216C185.202 112.227 185.191 112.232 185.18 112.232Z" fill="#5E87DD"/>
<path d="M184.305 112.619C184.398 112.636 184.469 112.535 184.422 112.452C184.374 112.37 184.302 112.274 184.199 112.214C183.988 112.093 183.924 112.479 183.994 112.523C184.034 112.548 184.18 112.597 184.305 112.619Z" fill="#2B478B"/>
<path d="M184.283 112.159L184.023 112.598C184.023 112.598 183.765 112.546 183.412 112.349C183.195 112.228 183.066 112.115 182.996 112.047C182.954 112.004 182.935 111.978 182.935 111.978L183.207 111.517C183.234 111.513 183.265 111.519 183.303 111.529C183.613 111.616 184.248 112.117 184.248 112.117L184.283 112.159Z" fill="#2B478B"/>
<path d="M183.304 111.529L182.997 112.047C182.953 112.004 182.936 111.978 182.936 111.978L183.208 111.517C183.235 111.513 183.266 111.519 183.304 111.529Z" fill="#4A75CB"/>
<path d="M189.217 114.301C189.229 114.297 190.127 114.5 190.615 114.857L189.998 114.847L189.206 114.379C189.206 114.379 189.154 114.325 189.217 114.301Z" fill="#2B478B"/>
<path d="M187.385 112.514C187.385 112.514 186.83 112.896 186.734 112.948C186.637 112.999 186.481 112.985 186.481 112.985L185.525 112.824C185.525 112.824 184.508 112.229 184.288 112.094C184.269 112.082 184.256 112.073 184.25 112.07C184.186 112.024 184.164 111.982 184.186 111.969C184.209 111.957 185.883 112.623 186.069 112.698L186.074 112.7C186.253 112.772 186.289 112.734 186.289 112.734L187.212 112.481C187.226 112.474 187.244 112.473 187.262 112.475C187.318 112.481 187.385 112.514 187.385 112.514Z" fill="#4A75CB"/>
<path d="M187.263 112.475C187.011 112.552 186.313 112.766 186.252 112.773C186.187 112.781 184.664 112.229 184.29 112.094C184.269 112.082 184.257 112.073 184.25 112.07C184.187 112.024 184.166 111.982 184.187 111.969C184.209 111.957 185.883 112.623 186.069 112.698C186.254 112.773 186.291 112.734 186.291 112.734L187.213 112.481C187.227 112.474 187.245 112.473 187.263 112.475Z" fill="#4A75CB"/>
<path d="M187.385 112.514C187.385 112.514 186.83 112.896 186.734 112.948C186.636 112.999 186.481 112.985 186.481 112.985C186.301 112.889 186.161 112.779 186.074 112.7C186.253 112.772 186.289 112.734 186.289 112.734L187.212 112.481C187.226 112.474 187.244 112.473 187.262 112.475C187.318 112.481 187.385 112.514 187.385 112.514Z" fill="#4A75CB"/>
<path d="M189.971 114.606L187.576 113.107C187.576 113.107 188.812 113.511 188.979 113.466C189.137 113.424 190.855 112.849 191.262 112.902C190.8 113.088 189.717 113.551 189.641 113.807C189.57 114.051 189.834 114.43 189.971 114.606Z" fill="#739AF0"/>
<path d="M170.056 113.969C170.065 113.465 170.456 112.605 169.685 111.789C169.137 111.203 168.655 110.545 168.426 110.223C168.342 110.092 167.408 110.86 167.428 110.891C167.582 111.119 168.287 112.278 168.389 112.924C168.5 113.653 169.75 114.451 169.75 114.451C169.75 114.451 170.053 114.469 170.056 113.969Z" fill="#F4A671"/>
<path d="M175.918 114.069C174.689 114.132 173.851 112.228 173.334 112.202C173.249 112.199 173.088 112.222 172.88 112.253C173.389 113.088 173.779 114.07 173.994 115.15C174.731 118.824 173.179 122.234 170.529 122.764C167.954 123.28 165.287 120.881 164.466 117.367C164.443 117.269 164.421 117.169 164.402 117.069C164.187 115.998 164.168 114.948 164.313 113.987L164.314 113.978C164.202 114.008 164.117 114.033 164.065 114.057C163.597 114.279 163.557 116.36 162.399 116.774C161.241 117.188 160.461 114.968 161.84 113.24C162.679 112.186 164.17 111.677 165.205 111.441C165.42 111.09 165.667 110.775 165.942 110.503C165.952 110.493 165.962 110.482 165.973 110.472C165.212 110.061 164.635 109.327 164.452 108.414C164.39 108.105 164.379 107.796 164.41 107.498L164.403 107.497C163.88 107.339 163.46 106.905 163.345 106.332C163.179 105.505 163.716 104.699 164.543 104.535C165.142 104.414 165.73 104.663 166.072 105.122C166.301 105.009 166.549 104.923 166.814 104.871C167.047 104.824 167.281 104.805 167.508 104.813C167.653 104.267 168.095 103.823 168.686 103.705C169.514 103.539 170.319 104.076 170.484 104.904C170.594 105.446 170.399 105.98 170.02 106.33C170.176 106.603 170.291 106.906 170.356 107.232C170.529 108.094 170.315 108.944 169.833 109.602C170.266 109.751 170.685 109.974 171.083 110.26C172.121 110.062 173.817 109.9 175.073 110.591C177.011 111.655 177.145 114.003 175.918 114.069Z" fill="#2B478B"/>
<path d="M164.466 117.367C164.444 117.269 164.422 117.169 164.401 117.069C164.187 115.998 164.167 114.948 164.312 113.987C164.465 113.809 164.667 113.678 164.896 113.787C165.403 114.027 165.322 116.455 166.097 117.016C166.671 117.431 165.236 117.436 164.466 117.367Z" fill="#233862"/>
<path d="M167.41 110.116C167.12 110.224 166.498 110.418 165.943 110.503C165.952 110.493 165.962 110.482 165.973 110.472C165.213 110.061 164.636 109.327 164.452 108.414C164.389 108.104 164.378 107.796 164.41 107.498L164.402 107.497C164.433 107.484 164.472 107.503 164.523 107.574C164.716 107.849 165.759 110.063 167.41 109.81C167.41 109.81 167.841 109.957 167.41 110.116Z" fill="#233862"/>
<path d="M168.192 105.006C168.192 105.006 168.58 104.285 169.154 104.472C169.727 104.659 169.807 105.486 169.434 105.713C169.434 105.713 168.877 105.199 168.192 105.006Z" fill="#233862"/>
<path d="M165.497 105.427C165.497 105.427 164.67 105.046 164.296 105.487C163.923 105.926 164.67 106.488 164.67 106.488C164.67 106.488 165.029 105.742 165.497 105.427Z" fill="#233862"/>
<path d="M158.853 118.758C158.268 118.232 158.749 116.991 158.527 116.747C158.491 116.707 158.407 116.645 158.3 116.565C158.153 117.173 157.886 117.793 157.495 118.378C156.168 120.372 153.928 121.214 152.491 120.258C151.093 119.328 150.97 117.039 152.185 115.08C152.219 115.025 152.253 114.97 152.29 114.916C152.677 114.334 153.142 113.851 153.641 113.482L153.645 113.478C153.583 113.441 153.532 113.414 153.499 113.401C153.358 113.352 153.086 113.512 152.764 113.672C152.373 113.867 151.908 114.063 151.518 113.878C150.808 113.543 151.457 112.187 152.86 112.027C153.716 111.93 154.62 112.373 155.194 112.733C155.45 112.671 155.704 112.64 155.952 112.641C155.96 112.641 155.97 112.641 155.979 112.641C155.821 112.112 155.891 111.519 156.221 111.024C156.333 110.856 156.466 110.711 156.615 110.591L156.612 110.587C156.448 110.279 156.452 109.893 156.659 109.582C156.958 109.134 157.563 109.012 158.013 109.311C158.339 109.527 158.492 109.904 158.439 110.266C158.594 110.319 158.745 110.392 158.889 110.487C159.014 110.572 159.129 110.668 159.228 110.776C159.54 110.594 159.941 110.593 160.261 110.806C160.711 111.105 160.833 111.71 160.534 112.159C160.338 112.454 160.009 112.608 159.679 112.595C159.626 112.789 159.541 112.978 159.424 113.155C159.113 113.624 158.633 113.911 158.118 113.991C158.247 114.253 158.335 114.543 158.386 114.852C158.944 115.231 159.785 115.925 160.04 116.804C160.438 118.16 159.437 119.282 158.853 118.758Z" fill="#EFCDAF"/>
<path d="M152.184 115.08C152.218 115.025 152.253 114.97 152.289 114.916C152.676 114.334 153.142 113.851 153.641 113.482C153.789 113.47 153.941 113.502 153.995 113.655C154.116 113.992 152.983 115.055 153.08 115.657C153.152 116.104 152.501 115.459 152.184 115.08Z" fill="#E2B99A"/>
<path d="M156.789 113.13C156.608 113.047 156.241 112.854 155.951 112.641C155.96 112.641 155.97 112.641 155.979 112.641C155.821 112.113 155.891 111.519 156.22 111.024C156.332 110.856 156.465 110.711 156.614 110.591L156.613 110.587C156.631 110.596 156.64 110.622 156.631 110.677C156.595 110.887 156.067 112.361 156.927 112.991C156.927 112.991 157.056 113.252 156.789 113.13Z" fill="#E2B99A"/>
<path d="M159.45 111.172C159.45 111.172 159.951 111.02 160.126 111.363C160.301 111.707 159.964 112.118 159.692 112.051C159.692 112.051 159.673 111.568 159.45 111.172Z" fill="#FFF3E9"/>
<path d="M158.04 110.145C158.04 110.145 157.838 109.599 157.47 109.63C157.102 109.66 157.187 110.252 157.187 110.252C157.187 110.252 157.687 110.076 158.04 110.145Z" fill="#FFF3E9"/>
<path d="M146.49 118.456C146.49 118.456 145.237 116.839 145.228 115.52C145.22 114.201 145.258 113.763 145.478 113.822C145.698 113.882 146.689 114.617 147.045 115.35C147.402 116.082 148.027 117.999 148.039 118.26C148.053 118.521 146.49 118.456 146.49 118.456Z" fill="#AFCDFB"/>
<path d="M146.559 117.94C146.559 117.94 145.757 116.823 145.727 115.931C145.697 115.039 145.712 114.744 145.848 114.788C145.984 114.833 146.607 115.349 146.84 115.851C147.072 116.352 147.494 117.661 147.505 117.837C147.519 118.013 146.559 117.94 146.559 117.94Z" fill="#E57970"/>
<path d="M148.513 117.781C148.513 117.781 147.913 115.592 148.149 114.995C148.387 114.4 149.619 114.798 149.759 115.218C149.898 115.638 149.812 117.412 149.812 117.412L148.513 117.781Z" fill="#AFCDFB"/>
<path d="M148.673 115.264C148.673 115.264 148.586 116.999 148.889 117.675L149.473 117.509C149.473 117.509 149.563 115.571 149.485 115.44C149.407 115.31 148.673 115.264 148.673 115.264Z" fill="#E57970"/>
<path d="M148.116 115.12C148.116 115.12 150.138 116.458 150.301 116.317C150.464 116.176 149.848 114.818 149.611 114.696C149.373 114.574 148.102 114.323 148.116 115.12Z" fill="#AFCDFB"/>
<path d="M144.397 139.574H171.956V116.85H144.397V139.574Z" fill="#D3671E"/>
<path d="M185.737 116.849V139.574H158.178V116.849H185.737Z" fill="#F99746"/>
<path d="M158.178 125.716V116.849H185.737V124.065L158.178 125.716Z" fill="#EC8432"/>
<path d="M158.178 116.85L163.631 122.829H190.825L185.738 116.85H158.178Z" fill="#F99746"/>
<path d="M144.415 133.811H148.781L148.397 132.582L148.781 131.704H144.415V133.811Z" fill="#F1A34F"/>
<path d="M185.743 137.708H185.736V135.601H185.743V137.708Z" fill="#E3BB9E"/>
<path d="M185.737 137.708H181.375L181.761 136.479L181.375 135.601H185.737V137.708Z" fill="#EC8432"/>
<path d="M158.178 119.418L152.369 125.227H144.414V116.849H158.178V119.418Z" fill="#C95C12"/>
<path d="M144.397 116.85L138.202 122.829H151.989L158.178 116.85H144.397Z" fill="#F99746"/>
<path d="M137.593 133.587L137.091 133.685C136.495 133.801 135.913 133.408 135.798 132.812L135.059 129.013C134.954 128.47 135.27 127.939 135.778 127.762C135.773 127.749 135.769 127.735 135.766 127.722L135.723 127.498C135.694 127.343 135.796 127.192 135.95 127.162L136.174 127.118C136.329 127.088 136.481 127.19 136.511 127.345L136.554 127.569C136.556 127.579 136.557 127.59 136.558 127.6V127.606C137.109 127.563 137.619 127.941 137.727 128.494L138.465 132.295C138.581 132.89 138.188 133.471 137.593 133.587Z" fill="#CADDFF"/>
<path d="M137.769 128.711L138.276 131.323L135.609 131.84L135.102 129.229L137.769 128.711Z" fill="#2B478B"/>
<path d="M136.559 127.6L135.778 127.762C135.774 127.748 135.77 127.735 135.768 127.721L135.724 127.498C135.694 127.343 135.796 127.192 135.951 127.161L136.175 127.118C136.33 127.088 136.482 127.19 136.512 127.345L136.555 127.569C136.556 127.579 136.558 127.59 136.559 127.6Z" fill="#4A75CB"/>
<path d="M151.117 126.641C151.117 126.641 150.786 127.107 150.483 127.113C150.18 127.119 149.719 126.897 149.719 126.897C149.719 126.897 149.441 126.277 149.629 126.034C149.629 126.034 149.819 125.952 150.016 126.098C150.051 126.123 150.085 126.155 150.12 126.196C150.168 126.254 150.222 126.287 150.278 126.304C150.495 126.37 150.751 126.216 150.846 126.364C150.904 126.452 150.964 126.517 151.014 126.562C151.073 126.615 151.117 126.641 151.117 126.641Z" fill="#F9DDBF"/>
<path d="M146.809 129.996C146.809 129.996 147.976 127.167 150.077 127.113C150.077 127.113 152.018 127.329 152.126 129.996H146.809Z" fill="#F9DDBF"/>
<path d="M149.502 127.199C149.502 127.199 150.345 127.386 150.604 127.276C150.604 127.276 150.644 126.924 150.289 126.973C150.046 127.007 149.887 126.891 149.794 126.844C149.663 126.777 149.467 127.052 149.502 127.199Z" fill="#F1A34F"/>
<path d="M150.235 126.668C150.181 126.709 150.016 126.098 150.016 126.098C150.049 126.123 150.084 126.156 150.119 126.197C150.166 126.254 150.22 126.287 150.277 126.305C150.278 126.322 150.288 126.629 150.235 126.668Z" fill="#E5C1A1"/>
<path d="M151.013 126.562C151.001 126.569 150.612 126.803 150.558 126.803C150.505 126.803 150.846 126.365 150.846 126.365C150.902 126.452 150.963 126.517 151.013 126.562Z" fill="#E5C1A1"/>
<path d="M147.949 129.206C147.927 129.187 148.775 127.957 149.009 127.948C149.242 127.939 149.768 128.218 150.147 128.254C150.526 128.289 150.895 128.182 150.967 128.406C151.038 128.631 151.237 129.428 151.116 129.555C150.995 129.682 148.415 129.604 147.949 129.206Z" fill="#E5C1A1"/>
<path d="M138.108 131.119C138.075 131.183 138.028 131.233 137.973 131.271C137.942 131.291 137.909 131.307 137.874 131.318C137.775 131.351 137.667 131.345 137.569 131.295L132.331 128.635C132.134 128.535 132.055 128.293 132.155 128.096C132.205 127.998 132.29 127.929 132.388 127.897C132.486 127.864 132.596 127.869 132.694 127.92L137.931 130.58C138.127 130.68 138.207 130.922 138.108 131.119Z" fill="#E57970"/>
<path d="M134.067 129.518L133.736 128.45L132.893 128.021L133.401 129.18L134.067 129.518Z" fill="#B64C41"/>
<path d="M135.346 130.167L134.681 129.829L134.173 128.671L135.016 129.099L135.346 130.167Z" fill="#B64C41"/>
<path d="M136.623 130.816L135.958 130.478L135.45 129.321L136.293 129.749L136.623 130.816Z" fill="#B64C41"/>
<path d="M137.972 131.271C137.941 131.291 137.908 131.307 137.873 131.319C137.775 131.351 137.666 131.346 137.567 131.295L137.26 131.139L136.751 129.982L137.595 130.41L137.972 131.271Z" fill="#B64C41"/>
<path d="M132.154 128.096C132.154 128.096 132.048 127.526 131.586 127.357C131.586 127.357 131.64 127.423 131.418 127.494C131.195 127.565 131.259 127.718 131.18 127.788C131.18 127.788 131.502 128.214 132.154 128.096Z" fill="#B64C41"/>
<path d="M132.065 128.171L132.053 128.165C132.017 128.146 132.003 128.103 132.021 128.067L132.086 127.939C132.104 127.904 132.148 127.89 132.183 127.907L132.195 127.914C132.231 127.931 132.245 127.975 132.228 128.011L132.162 128.139C132.145 128.174 132.1 128.189 132.065 128.171Z" fill="#4A75CB"/>
<path d="M138.084 131.109C138.084 131.109 138.606 130.858 139.015 131.131C139.015 131.131 138.93 131.127 139.004 131.348C139.078 131.569 138.917 131.608 138.907 131.713C138.907 131.713 138.374 131.705 138.084 131.109Z" fill="#B64C41"/>
<path d="M138.077 131.225L138.088 131.232C138.124 131.249 138.168 131.235 138.185 131.199L138.25 131.071C138.269 131.036 138.254 130.992 138.219 130.974L138.207 130.968C138.172 130.95 138.128 130.964 138.109 131L138.044 131.128C138.027 131.164 138.04 131.207 138.077 131.225Z" fill="#4A75CB"/>
<path d="M144.885 131.161C144.823 131.196 144.758 131.213 144.691 131.214C144.653 131.215 144.617 131.21 144.581 131.2C144.482 131.174 144.393 131.109 144.337 131.014L141.395 125.93C141.285 125.739 141.35 125.493 141.542 125.382C141.638 125.327 141.746 125.316 141.845 125.342C141.945 125.369 142.035 125.433 142.09 125.528L145.032 130.613C145.142 130.804 145.076 131.05 144.885 131.161Z" fill="#F1A34F"/>
<path d="M142.37 127.616L142.676 126.541L142.202 125.723L141.998 126.97L142.37 127.616Z" fill="#F9DDBF"/>
<path d="M143.089 128.857L142.715 128.212L142.92 126.964L143.394 127.783L143.089 128.857Z" fill="#F9DDBF"/>
<path d="M143.807 130.098L143.433 129.452L143.638 128.204L144.112 129.024L143.807 130.098Z" fill="#F9DDBF"/>
<path d="M144.692 131.214C144.654 131.215 144.617 131.21 144.582 131.2C144.481 131.174 144.393 131.109 144.338 131.014L144.165 130.716L144.369 129.468L144.843 130.286L144.692 131.214Z" fill="#F9DDBF"/>
<path d="M141.541 125.382C141.541 125.382 141.763 124.847 141.467 124.454C141.467 124.454 141.477 124.538 141.253 124.477C141.026 124.415 140.997 124.578 140.893 124.593C140.893 124.593 140.93 125.126 141.541 125.382Z" fill="#F1A34F"/>
<path d="M141.425 125.396L141.418 125.384C141.398 125.35 141.41 125.306 141.444 125.286L141.569 125.213C141.604 125.193 141.648 125.205 141.668 125.24L141.675 125.252C141.694 125.287 141.683 125.331 141.648 125.351L141.524 125.422C141.49 125.442 141.445 125.431 141.425 125.396Z" fill="#D3671E"/>
<path d="M144.873 131.139C144.873 131.139 145.447 131.214 145.641 131.667C145.641 131.667 145.572 131.616 145.514 131.842C145.455 132.068 145.297 132.012 145.234 132.094C145.234 132.094 144.79 131.798 144.873 131.139Z" fill="#F1A34F"/>
<path d="M144.802 131.233L144.809 131.245C144.828 131.279 144.873 131.292 144.908 131.272L145.033 131.199C145.067 131.179 145.079 131.135 145.058 131.101L145.052 131.089C145.032 131.054 144.988 131.043 144.953 131.063L144.828 131.134C144.794 131.154 144.781 131.198 144.802 131.233Z" fill="#D3671E"/>
<path d="M135.365 132.587C135.303 132.553 135.253 132.506 135.216 132.451C135.196 132.419 135.181 132.385 135.17 132.351C135.14 132.252 135.146 132.142 135.198 132.045L137.942 126.851C138.046 126.656 138.289 126.581 138.485 126.684C138.582 126.736 138.649 126.823 138.68 126.921C138.71 127.02 138.703 127.128 138.652 127.226L135.907 132.419C135.804 132.615 135.56 132.69 135.365 132.587Z" fill="#4A75CB"/>
<path d="M137.034 128.573L138.105 128.261L138.547 127.424L137.381 127.914L137.034 128.573Z" fill="#699FF0"/>
<path d="M136.362 129.842L136.711 129.182L137.877 128.693L137.435 129.529L136.362 129.842Z" fill="#699FF0"/>
<path d="M135.692 131.109L136.041 130.449L137.207 129.96L136.765 130.796L135.692 131.109Z" fill="#699FF0"/>
<path d="M135.216 132.451C135.196 132.419 135.181 132.385 135.17 132.35C135.14 132.252 135.146 132.142 135.198 132.045L135.359 131.74L136.525 131.251L136.083 132.087L135.216 132.451Z" fill="#699FF0"/>
<path d="M138.484 126.684C138.484 126.684 139.055 126.588 139.232 126.128C139.232 126.128 139.165 126.182 139.097 125.958C139.03 125.734 138.877 125.797 138.808 125.716C138.808 125.716 138.377 126.03 138.484 126.684Z" fill="#699FF0"/>
<path d="M138.41 126.594L138.416 126.582C138.435 126.546 138.479 126.533 138.515 126.551L138.641 126.618C138.677 126.637 138.691 126.681 138.672 126.717L138.665 126.729C138.647 126.764 138.603 126.777 138.568 126.758L138.441 126.691C138.404 126.673 138.392 126.629 138.41 126.594Z" fill="#4A75CB"/>
<path d="M135.377 132.565C135.377 132.565 135.618 133.091 135.338 133.496C135.338 133.496 135.344 133.411 135.122 133.481C134.9 133.552 134.864 133.389 134.758 133.378C134.758 133.378 134.776 132.844 135.377 132.565Z" fill="#4A75CB"/>
<path d="M135.26 132.555L135.253 132.568C135.234 132.603 135.248 132.647 135.284 132.665L135.411 132.733C135.445 132.751 135.49 132.737 135.508 132.703L135.515 132.69C135.533 132.655 135.52 132.611 135.484 132.593L135.357 132.526C135.321 132.507 135.278 132.52 135.26 132.555Z" fill="#4A75CB"/>
<path d="M140.85 127.866C140.85 127.866 141.088 128.204 141.309 128.208C141.528 128.213 141.863 128.052 141.863 128.052C141.863 128.052 142.065 127.602 141.929 127.426C141.929 127.426 141.791 127.366 141.647 127.472C141.622 127.491 141.597 127.513 141.573 127.544C141.538 127.586 141.499 127.609 141.457 127.621C141.3 127.669 141.114 127.557 141.045 127.666C141.004 127.728 140.96 127.775 140.923 127.809C140.881 127.848 140.85 127.866 140.85 127.866Z" fill="#B64C41"/>
<path d="M143.976 130.301C143.976 130.301 143.128 128.247 141.603 128.208C141.603 128.208 140.194 128.365 140.116 130.301H143.976Z" fill="#B64C41"/>
<path d="M142.019 128.271C142.019 128.271 141.408 128.407 141.219 128.328C141.219 128.328 141.191 128.072 141.449 128.107C141.625 128.132 141.739 128.047 141.806 128.013C141.903 127.965 142.045 128.164 142.019 128.271Z" fill="#963333"/>
<path d="M141.487 127.886C141.526 127.915 141.646 127.472 141.646 127.472C141.622 127.491 141.596 127.513 141.572 127.544C141.537 127.586 141.498 127.609 141.456 127.621C141.456 127.634 141.449 127.857 141.487 127.886Z" fill="#963333"/>
<path d="M140.921 127.81C140.93 127.814 141.213 127.984 141.252 127.984C141.291 127.984 141.043 127.666 141.043 127.666C141.002 127.729 140.958 127.776 140.921 127.81Z" fill="#963333"/>
<path d="M143.146 129.727C143.162 129.714 142.547 128.822 142.377 128.815C142.207 128.808 141.826 129.011 141.55 129.037C141.275 129.063 141.008 128.984 140.955 129.147C140.904 129.31 140.76 129.888 140.848 129.981C140.936 130.073 142.807 130.016 143.146 129.727Z" fill="#963333"/>
<path d="M146.926 127.976C146.674 127.979 146.547 127.598 146.547 127.598L144.088 128.342C144.199 128.612 144.021 128.819 144.021 128.819C144.021 128.819 143.596 129.103 143.728 129.539L144.271 131.337C144.368 131.655 144.708 131.837 145.026 131.74L147.619 130.955C147.937 130.859 148.118 130.52 148.023 130.201L147.478 128.404C147.402 128.153 147.174 127.987 146.926 127.976Z" fill="#CADDFF"/>
<path d="M143.842 128.262L143.991 128.75C144.044 128.926 144.717 128.878 145.494 128.643C146.271 128.408 146.858 128.074 146.805 127.898L146.656 127.411L143.842 128.262Z" fill="#963333"/>
<path d="M146.656 127.411C146.71 127.587 146.123 127.92 145.347 128.155C144.568 128.391 143.895 128.438 143.842 128.262C143.789 128.087 144.375 127.752 145.153 127.517C145.93 127.282 146.603 127.234 146.656 127.411Z" fill="#B64C41"/>
<path d="M140.33 128.952C140.154 128.867 140.198 128.559 140.198 128.559L138.233 128.222C138.216 128.447 138.02 128.53 138.02 128.53C138.02 128.53 137.628 128.579 137.567 128.929L137.321 130.365C137.277 130.619 137.451 130.863 137.705 130.907L139.777 131.261C140.032 131.305 140.275 131.132 140.319 130.878L140.565 129.441C140.6 129.24 140.498 129.046 140.33 128.952Z" fill="#B7D2F9"/>
<path d="M138.091 128.081L138.023 128.472C137.999 128.613 138.483 128.813 139.105 128.919C139.726 129.025 140.249 128.998 140.273 128.856L140.34 128.466L138.091 128.081Z" fill="#C95C12"/>
<path d="M140.34 128.466C140.317 128.607 139.793 128.635 139.172 128.529C138.551 128.423 138.067 128.222 138.091 128.081C138.115 127.941 138.638 127.912 139.259 128.018C139.88 128.125 140.364 128.325 140.34 128.466Z" fill="#F1A34F"/>
<path d="M134.069 139.574H146.243V129.535H134.069V139.574Z" fill="#D3671E"/>
<path d="M140.155 139.574H152.33V129.535H140.155V139.574Z" fill="#F99746"/>
<path d="M140.155 129.535H152.361V133.032L140.155 134.554V129.535Z" fill="#ED7D2B"/>
<path d="M140.156 129.535L142.565 132.176H154.579L152.33 129.535H140.156Z" fill="#F99746"/>
<path d="M134.075 137.028H136.004L135.834 136.485L136.004 136.097H134.075V137.028Z" fill="#F99746"/>
<path d="M140.155 130.67L137.589 133.236H134.076V129.535H140.155V130.67Z" fill="#C95C12"/>
<path d="M134.069 129.535L131.331 132.176H137.422L140.156 129.535H134.069Z" fill="#F99746"/>
<path d="M119.128 83.6475C106.845 81.3761 99.6154 95.9024 98.3734 97.7009C97.1313 95.9024 89.9007 81.3761 77.6182 83.6475C64.0714 86.1532 58.246 98.9307 63.3642 111.403C67.5346 121.565 94.4782 137.839 98.1809 139.776V139.976C98.1809 139.976 98.2477 139.942 98.3734 139.876C98.4981 139.942 98.5658 139.976 98.5658 139.976V139.776C102.268 137.839 128.785 121.379 133.383 111.403C138.513 100.268 132.675 86.1532 119.128 83.6475Z" fill="#F77D48"/>
<path d="M81.3204 112.505C81.0992 113.045 79.636 112.898 78.5073 112.129C77.3873 111.369 75.776 110.665 74.8598 110.028C74.1735 109.562 73.4619 107.795 72.922 106.708C72.7835 106.43 72.652 106.192 72.5457 106.037C71.8838 105.841 71.9247 105.154 71.3107 104.933C70.5835 104.679 70.8038 104.271 70.8038 104.271C70.8038 104.271 71.3273 104.049 71.9657 104.116C72.1938 104.148 72.652 104.811 72.922 105.227C73.1754 105.415 73.4785 105.669 73.8051 105.964C74.6882 106.748 75.6863 107.762 76.0869 108.261C76.5529 108.842 79.5707 109.48 80.3885 110.15C81.8439 111.344 81.3204 112.505 81.3204 112.505Z" fill="#ED985F"/>
<path d="M76.0957 120.811L79.2598 138.376L80.3555 138.448C80.3555 138.448 81.2168 130.799 80.4791 128.159C79.7415 125.518 81.7525 122.179 81.1872 119.888C80.622 117.598 76.0957 120.811 76.0957 120.811Z" fill="#ED985F"/>
<path d="M79.7356 111.108L76.973 110.659C76.8415 110.21 76.804 109.594 76.8023 109.049C76.8005 108.371 76.8537 107.804 76.8537 107.804L79.0833 107.59L80.0735 107.494C79.5301 108.53 79.7356 111.108 79.7356 111.108Z" fill="#FFB27D"/>
<path d="M79.8183 108.038C79.8183 108.038 78.3421 109.297 76.8023 109.049C76.8005 108.371 76.8537 107.804 76.8537 107.804L79.0833 107.59L79.8183 108.038Z" fill="#ED985F"/>
<path d="M78.2024 125.138C77.6424 126.694 77.1398 128.279 77.3924 129.578C77.4664 129.962 77.5126 130.36 77.5344 130.765C77.5553 131.136 77.5561 131.514 77.5413 131.893C77.4177 134.956 76.2515 138.077 76.0712 138.543C76.0564 138.582 76.0485 138.602 76.0485 138.602L75.0783 138.499L74.6611 120.069C74.6611 120.069 79.0899 118.281 79.3372 120.626C79.4644 121.839 78.8007 123.472 78.2024 125.138Z" fill="#FFB27D"/>
<path d="M80.8494 126.183C80.8494 126.183 80.5672 126.223 80.1465 126.269C79.3574 126.356 78.0859 126.458 77.2994 126.337C76.9249 126.28 76.715 125.661 76.6166 124.83C76.3971 122.989 76.7246 120.106 77.0216 119.978C77.4544 119.793 81.2796 119.95 81.2796 119.95C81.2796 119.95 82.1148 122.015 80.8494 126.183Z" fill="#35488B"/>
<path d="M80.2081 126.269C79.4191 126.356 78.1475 126.458 77.361 126.337C76.9865 126.28 76.7766 125.661 76.6782 124.83L78.7754 121.398L80.3492 120.781C80.3492 120.781 80.9815 123.412 80.2081 126.269Z" fill="#2C3A64"/>
<path d="M74.6446 120.009C74.6446 120.009 73.8216 123.652 73.9453 126.533C73.9453 126.533 75.8178 126.903 77.7312 126.533C77.7312 126.533 80.9006 121.923 80.6332 120.441C80.3658 118.96 75.4476 119.536 74.6446 120.009Z" fill="#35488B"/>
<path d="M76.1499 107.361C76.1499 107.361 78.7262 109.402 79.9725 107.779C81.2197 106.155 82.3919 105.325 80.7999 103.954C79.2087 102.581 78.4091 102.952 77.8613 103.393C77.3135 103.833 75.5124 106.788 76.1499 107.361Z" fill="#FFB27D"/>
<path d="M82.6286 104.563C82.6286 104.563 82.4857 104.517 82.3211 104.567V104.563C82.5293 104.179 82.3734 103.583 82.3734 103.583C82.4248 103.91 82.1304 104.294 82.1304 104.294C82.113 103.083 79.1169 102.333 78.84 102.256C78.563 102.179 78.5978 101.718 78.5978 101.718C78.0256 101.833 77.4195 102.564 77.4369 103.275C77.4543 103.987 78.0431 105.351 78.4245 105.371C78.8051 105.391 78.6318 105.698 78.3723 106.12C78.1127 106.544 78.4498 107.693 78.9175 108.097C79.2946 108.421 79.4923 108.15 79.7127 108.03C79.7675 108 79.8259 107.977 79.8868 107.963C80.7604 107.768 81.6697 106.905 82.1217 105.803C82.302 105.366 82.3263 104.927 82.3263 104.708C82.4004 104.664 82.545 104.584 82.6286 104.563Z" fill="#2C3A64"/>
<path d="M80.5046 139.659H79.8923C79.6877 139.631 79.5361 139.578 79.3262 139.554C79.0075 139.518 78.8603 139.633 78.8315 139.659L78.8254 139.665H76.2274C76.1621 139.583 76.2248 139.391 76.2858 139.251C76.3276 139.155 76.4173 139.083 76.5296 139.054C76.8049 138.984 77.3483 138.921 77.8456 138.522C78.1252 138.299 79.1965 137.7 79.1965 137.7L79.2026 137.699C79.2261 137.699 79.3384 137.729 79.8253 138.094C80.0778 138.282 80.5072 137.829 80.5072 137.829C80.5072 137.829 80.5874 137.887 80.6474 137.997C80.6962 138.084 80.7319 138.203 80.7032 138.35C80.6649 138.557 80.7903 138.942 80.8896 139.202C80.9505 139.36 81.001 139.471 81.001 139.471C81.001 139.471 81.0307 139.601 80.5046 139.659Z" fill="#739CF3"/>
<path d="M80.6473 137.997C80.5018 138.088 80.1935 138.268 79.9888 138.291C79.7128 138.323 79.1963 137.7 79.1963 137.7L79.2024 137.699C79.2259 137.699 79.3383 137.729 79.8251 138.094C80.0777 138.282 80.5071 137.829 80.5071 137.829C80.5071 137.829 80.5872 137.887 80.6473 137.997Z" fill="#415DA5"/>
<path d="M80.5046 139.659H79.8923C79.6877 139.631 79.5361 139.578 79.3262 139.554C79.0075 139.518 78.8603 139.633 78.8315 139.659L78.8254 139.665H76.2274C76.1621 139.583 76.2248 139.391 76.2858 139.251C76.365 139.188 76.3868 139.52 76.4304 139.573C76.4739 139.626 78.5502 139.592 78.6704 139.515C78.7897 139.438 79.1494 139.303 79.6511 139.41C80.0874 139.501 80.7302 139.265 80.8896 139.202C80.9505 139.36 81.001 139.471 81.001 139.471C81.001 139.471 81.0307 139.601 80.5046 139.659Z" fill="#415DA5"/>
<path d="M76.3239 139.659H75.7125C75.507 139.631 75.3563 139.578 75.1456 139.554C74.8268 139.518 74.6796 139.633 74.6509 139.659L74.6448 139.665H72.0468C71.9814 139.583 72.0441 139.391 72.1051 139.251C72.1469 139.155 72.2375 139.083 72.349 139.054C72.6242 138.984 73.1677 138.921 73.665 138.522C73.9445 138.299 75.0167 137.7 75.0167 137.7L75.0219 137.699C75.0454 137.699 75.1578 137.729 75.6455 138.094C75.8972 138.282 76.3266 137.829 76.3266 137.829C76.3266 137.829 76.4076 137.887 76.4677 137.997C76.5156 138.084 76.5513 138.203 76.5234 138.35C76.4842 138.557 76.6096 138.942 76.7089 139.202C76.7699 139.36 76.8212 139.471 76.8212 139.471C76.8212 139.471 76.85 139.601 76.3239 139.659Z" fill="#739CF3"/>
<path d="M76.4676 137.997C76.3213 138.088 76.013 138.268 75.8083 138.291C75.5322 138.323 75.0166 137.7 75.0166 137.7L75.0218 137.699C75.0453 137.699 75.1577 137.729 75.6454 138.094C75.8971 138.282 76.3265 137.829 76.3265 137.829C76.3265 137.829 76.4075 137.887 76.4676 137.997Z" fill="#415DA5"/>
<path d="M76.3239 139.659H75.7125C75.507 139.631 75.3563 139.578 75.1456 139.554C74.8268 139.518 74.6796 139.633 74.6509 139.659L74.6448 139.665H72.0468C71.9814 139.583 72.0441 139.391 72.1051 139.251C72.1844 139.188 72.207 139.52 72.2506 139.573C72.2941 139.626 74.3696 139.592 74.4898 139.515C74.6099 139.438 74.9696 139.303 75.4704 139.41C75.9068 139.501 76.5504 139.265 76.7089 139.202C76.7699 139.36 76.8212 139.471 76.8212 139.471C76.8212 139.471 76.85 139.601 76.3239 139.659Z" fill="#415DA5"/>
<path d="M81.8164 120.781C81.8164 120.781 79.3403 121.501 76.3268 120.988C75.7764 120.895 74.8097 120.62 74.126 120.236L75.0344 113.014L75.2216 109.657C75.2216 109.657 76.2606 109.339 76.7649 109.308C76.7649 109.308 78.8743 109.56 79.6922 109.344C79.6922 109.344 80.8644 109.586 81.2006 110.689C81.8991 112.984 82.1334 115.833 81.8164 120.781Z" fill="white"/>
<path d="M76.9293 112.505C76.7003 113.045 75.2362 112.898 74.1162 112.129C74.0178 112.064 73.9202 111.998 73.814 111.933C72.7175 111.246 71.2952 110.608 70.4609 110.028C69.6761 109.488 68.8496 107.239 68.294 106.274C68.2443 106.184 68.1955 106.102 68.1468 106.037C67.4927 105.832 67.5336 105.154 66.9196 104.933C66.1924 104.679 66.4049 104.271 66.4049 104.271C66.4049 104.271 66.9362 104.05 67.5659 104.116C67.8028 104.148 68.2609 104.811 68.523 105.227C68.7024 105.366 68.9236 105.538 69.1527 105.726C70.0846 106.536 71.2543 107.713 71.6871 108.261C72.0224 108.678 73.6746 109.128 74.8852 109.586C75.359 109.774 75.7684 109.962 75.9974 110.15C77.4527 111.344 76.9293 112.505 76.9293 112.505Z" fill="#FFB27D"/>
<path d="M76.9291 112.505C76.6827 113.625 73.826 112.266 73.7197 112.201C73.8756 110.517 73.8547 109.594 74.3285 109.301C75.2587 109.156 76.6591 109.227 76.9378 109.327C79.2188 110.149 76.9291 112.505 76.9291 112.505Z" fill="white"/>
<path d="M73.8051 105.964C73.7075 106.233 73.4619 106.544 72.922 106.708C72.7835 106.43 72.652 106.192 72.5457 106.037C71.8838 105.841 71.9247 105.154 71.3107 104.933C70.5835 104.679 70.8038 104.271 70.8038 104.271C70.8038 104.271 71.3273 104.049 71.9657 104.116C72.1938 104.148 72.652 104.811 72.922 105.227C73.1754 105.415 73.4785 105.669 73.8051 105.964Z" fill="#FFA412"/>
<path d="M72.288 105.288C72.0407 105.479 71.3796 106.148 71.3796 106.148L69.8555 104.178C69.8555 104.178 70.635 103.686 70.8954 103.487C71.1314 103.306 71.8255 102.654 71.8255 102.654L73.3497 104.624C73.3497 104.624 72.5362 105.096 72.288 105.288Z" fill="white"/>
<path d="M72.2879 105.288C72.0406 105.479 71.3795 106.148 71.3795 106.148L70.3057 104.761C70.3057 104.761 71.0852 104.268 71.3456 104.069C71.5816 103.888 72.2766 103.237 72.2766 103.237L73.3496 104.624C73.3496 104.624 72.5361 105.096 72.2879 105.288Z" fill="white"/>
<path d="M73.3498 104.624L71.8257 102.654L71.9833 102.532L73.5075 104.502L73.3498 104.624Z" fill="white"/>
<path d="M71.2219 106.27L69.6978 104.3L69.8554 104.178L71.3795 106.148L71.2219 106.27Z" fill="white"/>
<path d="M64.9785 106.5H69.6943V102.023H64.9785V106.5Z" fill="#F1B8A1"/>
<path d="M66.3925 104.519C66.3481 104.379 66.4047 104.271 66.4047 104.271C66.4047 104.271 66.5014 104.231 66.6616 104.19L66.3925 104.519Z" fill="#F5D3BC"/>
<path d="M66.795 107.184C66.6409 107.184 66.4858 107.133 66.3587 107.029L65.7168 106.505L65.9372 106.685C65.938 106.686 65.9389 106.687 65.9398 106.688L66.3587 107.029C66.4858 107.133 66.6409 107.184 66.795 107.184C66.9962 107.184 67.1957 107.097 67.3324 106.93L68.0805 106.013L67.3324 106.93C67.1957 107.097 66.9962 107.184 66.795 107.184Z" fill="#F3A17E"/>
<path d="M66.7952 107.184C66.641 107.184 66.486 107.133 66.3589 107.029L65.9399 106.688C66.068 106.79 66.2212 106.841 66.3745 106.841C66.5757 106.841 66.7752 106.754 66.9119 106.586L67.6513 105.681C67.7576 105.817 67.8856 105.938 68.0807 106.013L67.3326 106.93C67.1958 107.097 66.9964 107.184 66.7952 107.184ZM68.6451 105.322C68.6024 105.289 68.5615 105.257 68.5231 105.227C68.4578 105.124 68.3812 105.007 68.2993 104.886L68.9447 104.096C69.2904 103.672 69.3288 103.095 69.0893 102.638C69.0797 102.619 69.0753 102.599 69.0753 102.579C69.0657 102.581 69.0553 102.582 69.0457 102.582C69.0318 102.582 69.0178 102.58 69.0039 102.576C68.8881 102.544 68.7688 102.529 68.6503 102.529C68.2645 102.529 67.8821 102.694 67.6209 103.015L66.6619 104.19L67.6209 103.015C67.8821 102.694 68.2645 102.529 68.6503 102.529C68.7688 102.529 68.8881 102.544 69.0039 102.576C69.0178 102.58 69.0318 102.582 69.0457 102.582C69.0553 102.582 69.0657 102.581 69.0753 102.579C69.1154 102.571 69.1511 102.548 69.1737 102.512C69.1842 102.496 69.1946 102.479 69.2077 102.464L69.3148 102.333L69.6946 102.642L69.5866 102.774C69.5726 102.791 69.5578 102.807 69.5413 102.821C69.5117 102.848 69.496 102.885 69.496 102.923C69.496 102.943 69.5003 102.963 69.5099 102.982C69.6109 103.174 69.6623 103.388 69.6623 103.604C69.6623 103.898 69.5648 104.194 69.3653 104.439L68.6451 105.322Z" fill="#EFCABC"/>
<path d="M68.0802 106.013C67.8852 105.938 67.7571 105.817 67.6509 105.681L68.2989 104.886C68.3807 105.007 68.4574 105.124 68.5227 105.227C68.561 105.257 68.6019 105.289 68.6446 105.322L68.0802 106.013Z" fill="#F2DDCF"/>
<path d="M65.94 106.687C65.9391 106.687 65.9383 106.686 65.9374 106.685L65.717 106.505C65.7153 106.504 65.7127 106.502 65.7109 106.5L65.94 106.687Z" fill="#F1BAA3"/>
<path d="M66.3747 106.841C66.2214 106.841 66.0681 106.79 65.9401 106.687L65.7111 106.5C65.5384 106.357 65.4487 106.148 65.4487 105.937C65.4486 105.774 65.5024 105.61 65.6126 105.475L66.393 104.519C66.4357 104.65 66.5672 104.81 66.9199 104.933C67.3153 105.075 67.439 105.407 67.6515 105.681L66.9121 106.586C66.7753 106.754 66.5759 106.841 66.3747 106.841ZM68.2995 104.886C68.0487 104.521 67.7447 104.14 67.5662 104.116C67.4852 104.107 67.4059 104.103 67.3284 104.103C67.0636 104.103 66.8285 104.147 66.6621 104.19L67.621 103.015C67.8823 102.694 68.2647 102.529 68.6505 102.529C68.7689 102.529 68.8882 102.544 69.0041 102.576C69.018 102.58 69.0319 102.582 69.0459 102.582C69.0555 102.582 69.0659 102.581 69.0755 102.579C69.0755 102.599 69.0798 102.619 69.0894 102.638C69.3289 103.095 69.2906 103.672 68.9449 104.096L68.2995 104.886Z" fill="#EED6CF"/>
<path d="M67.6511 105.681C67.4386 105.407 67.3149 105.075 66.9195 104.933C66.5668 104.81 66.4353 104.65 66.3926 104.519L66.6617 104.19C66.828 104.147 67.0632 104.103 67.328 104.103C67.4055 104.103 67.4847 104.107 67.5657 104.116C67.7443 104.14 68.0482 104.521 68.2991 104.886L67.6511 105.681Z" fill="#F0E4DC"/>
<path d="M67.9978 106.114L65.8735 104.381L67.0667 102.919L69.1909 104.652L67.9978 106.114Z" fill="#EBF3FA"/>
<path d="M69.9082 102.466L69.0634 101.779L68.9014 101.979L69.7462 102.665L69.9082 102.466Z" fill="#EBF3FA"/>
<path d="M69.1527 105.726C69.0055 105.947 68.7434 106.143 68.294 106.274C68.2443 106.184 68.1955 106.102 68.1468 106.037C67.4927 105.832 67.5336 105.154 66.9196 104.933C66.1924 104.679 66.4049 104.271 66.4049 104.271C66.4049 104.271 66.9362 104.049 67.5659 104.116C67.8028 104.148 68.2609 104.811 68.523 105.227C68.7024 105.366 68.9236 105.538 69.1527 105.726Z" fill="#FFA412"/>
<path d="M58.4889 102.217L58.3416 103.206C58.3416 103.206 58.2762 103.206 58.1617 103.199C57.802 103.174 56.9269 103.124 55.9375 103.018C54.4491 102.871 52.6828 102.61 51.9795 102.176C50.9082 101.522 49.1501 99.5188 48.0052 97.5148C47.9725 97.466 47.948 97.4172 47.9234 97.3676C47.3265 96.305 46.9094 95.2495 46.8767 94.4073C46.8522 93.8925 46.9094 93.451 47.0157 93.066C47.1547 92.5591 47.3838 92.1585 47.6209 91.8563C47.6536 91.8066 47.6863 91.7579 47.7354 91.7169C48.1278 91.251 48.5123 91.055 48.5123 91.055C48.7085 90.9731 48.9211 91.0716 49.1419 91.3085V91.3163C49.3218 91.5044 49.518 91.791 49.7062 92.1507C49.7143 92.1585 49.7225 92.1672 49.7225 92.175C49.7634 92.2482 49.8043 92.3301 49.8533 92.4206C49.8696 92.4363 49.8779 92.4616 49.886 92.4773C49.976 92.6654 50.0659 92.8622 50.1559 93.066C51.1618 95.2582 52.233 98.5782 53.1244 99.5676C53.5087 99.9926 55.2669 100.827 56.6652 101.449C57.6711 101.89 58.4889 102.217 58.4889 102.217Z" fill="#FFB27D"/>
<path d="M45.1863 80.4026C45.1863 80.4026 44.8821 78.8218 43.1776 78.7356C41.4729 78.6502 39.4642 80.0089 39.6352 81.7874C39.8061 83.5658 37.8829 84.2922 37.541 85.7876C37.1991 87.2839 38.81 87.2873 39.1561 88.4378C39.5021 89.5884 38.5434 90.6283 40.6235 90.7232C42.7037 90.8181 45.0932 90.4584 45.5759 89.2922C46.0587 88.126 46.3276 83.4082 46.3276 83.4082L45.1863 80.4026Z" fill="#2C3A64"/>
<path d="M48.1383 96.5454C48.0396 97.0932 47.8765 97.5627 47.6802 98.0068C47.5166 98.3796 47.3302 98.7332 47.1382 99.1016C46.5758 100.185 45.3275 100.682 45.2064 102.8C45.165 103.53 45.2571 104.453 45.557 105.657C47.0344 111.594 35.3637 106.537 36.0236 104.999C37.3355 101.943 39.1104 100.214 39.1704 97.6585L39.1691 97.6393C39.163 97.5148 39.1587 97.1829 39.1562 96.744C39.15 95.6701 39.1536 93.9578 39.1642 93.0921C39.1642 93.0712 39.1648 93.0521 39.1648 93.0329C39.1698 92.6619 39.1685 92.3928 39.1568 92.3222C40.1144 88.8393 42.0152 88.8951 42.6634 88.9308C42.9036 88.943 43.1555 88.9682 43.3624 88.9935C43.7784 88.7775 44.5242 87.7228 44.9564 85.9591L45.1021 86.0271L47.5531 87.1793C47.5531 87.1793 47.2925 87.9762 47.1005 88.74C46.9505 89.3375 46.8431 89.9141 46.9332 90.0752C47.1264 90.1536 47.2419 90.2032 47.2419 90.2032L47.2425 90.2058C47.2826 90.306 48.6409 93.7654 48.1383 96.5454Z" fill="#FFB27D"/>
<path d="M47.7772 138.007L46.8806 138.475C46.8806 138.475 42.004 131.748 41.4254 126.021C41.3228 124.998 41.357 124.008 41.5792 123.093C41.5792 123.093 41.4818 122.528 41.3185 121.593C41.286 121.406 41.251 121.207 41.2142 120.993C41.0758 120.203 40.9057 119.233 40.7168 118.161C40.5304 117.105 40.3261 115.948 40.1149 114.767C39.6996 112.445 39.2619 110.026 38.8926 108.074L39.1841 107.98L40.5184 107.549L42.334 106.964L42.9853 104.896L43.4101 104.784L45.3308 104.278C45.3308 104.278 45.4146 104.443 45.5445 104.948C45.7172 105.615 45.971 106.881 46.2215 109.154C46.2549 109.466 46.289 109.795 46.3233 110.146C46.6755 112.719 46.8797 116.358 46.3241 120.724C46.2164 121.566 46.0805 122.434 45.913 123.328C45.789 123.982 45.7711 124.874 45.8224 125.898C46.0591 130.579 47.7772 138.007 47.7772 138.007Z" fill="#35488B"/>
<path d="M46.2212 109.154C44.9681 112.138 42.2508 118.547 41.2139 120.993C41.0755 120.203 40.9054 119.233 40.7165 118.161C40.5301 117.105 40.3258 115.948 40.1146 114.767L39.6411 109.797L40.5181 107.549L41.6353 104.684C41.6353 104.684 42.4704 104.726 43.4098 104.784C44.1877 104.832 45.0382 104.892 45.5442 104.948C45.7169 105.615 45.9707 106.881 46.2212 109.154Z" fill="#2C3A64"/>
<path d="M60.4884 104.869C60.0632 105.245 58.2659 103.37 58.1105 103.199C57.7507 103.174 56.8757 103.124 55.8862 103.018C56.1969 102.511 56.4832 101.784 56.614 101.449C57.6198 101.89 58.4376 102.217 58.4376 102.217C58.4376 102.217 59.9741 102.47 60.2072 102.726C60.8538 103.439 60.9545 104.468 60.4884 104.869Z" fill="#F99746"/>
<path d="M60.0148 103.483C59.7082 103.483 53.6772 103.177 53.6772 103.177L57.8682 107.646L67.068 109.605L60.0148 103.483Z" fill="#699FF0"/>
<path d="M64.1867 109.204C63.9867 109.815 63.6347 111.716 63.6347 111.716L58.769 110.124C58.769 110.124 59.5263 108.388 59.739 107.748C59.9321 107.167 60.3615 105.258 60.3615 105.258L65.2271 106.85C65.2271 106.85 64.3868 108.592 64.1867 109.204Z" fill="#F99746"/>
<path d="M64.1863 109.204C63.9862 109.815 63.6343 111.716 63.6343 111.716L60.207 110.595C60.207 110.595 60.9643 108.859 61.1769 108.219C61.37 107.639 61.7994 105.729 61.7994 105.729L65.2267 106.85C65.2267 106.85 64.3863 108.592 64.1863 109.204Z" fill="#ED7D2B"/>
<path d="M65.2266 106.85L60.3608 105.258L60.4883 104.869L65.3539 106.461L65.2266 106.85Z" fill="#ED7D2B"/>
<path d="M63.507 112.106L58.6411 110.514L58.7685 110.124L63.6343 111.716L63.507 112.106Z" fill="#DC8D39"/>
<path d="M65.1076 107.838L66.864 110.531C67.0722 110.85 66.9816 111.281 66.6628 111.489L65.559 112.208C65.2219 112.429 64.766 112.333 64.5463 111.996L62.8109 109.336C62.5156 108.883 62.5346 108.313 62.8126 107.885C62.8491 107.828 62.8473 107.754 62.8032 107.703C62.7905 107.689 62.7787 107.673 62.7677 107.656L62.675 107.514L63.4951 106.979L63.588 107.121C63.6002 107.14 63.6106 107.16 63.6196 107.179C63.6447 107.234 63.7028 107.268 63.7626 107.257C64.2711 107.168 64.8092 107.38 65.1076 107.838Z" fill="#ECF2FD"/>
<path d="M65.1072 107.838L66.8636 110.531C67.0717 110.85 66.9812 111.281 66.6624 111.489L65.9683 111.941C65.6312 112.161 65.1758 112.066 64.9559 111.728L63.2206 109.068C62.9253 108.616 62.9442 108.044 63.2223 107.618C63.2356 107.597 63.2439 107.573 63.2468 107.55C63.2516 107.51 63.2406 107.468 63.2128 107.436C63.2002 107.421 63.1883 107.405 63.1774 107.389L63.0847 107.247L63.4947 106.979L63.5876 107.121C63.5997 107.14 63.6102 107.16 63.6192 107.179C63.6443 107.234 63.7023 107.268 63.7622 107.257C64.2706 107.168 64.8088 107.38 65.1072 107.838Z" fill="#E5EAF5"/>
<path d="M65.5716 112.059C65.3316 112.059 65.0962 111.943 64.9563 111.728L63.2211 109.068C63.0757 108.846 63.0065 108.594 63.0068 108.345C63.0072 108.088 63.0816 107.835 63.2227 107.618C63.2361 107.597 63.2443 107.573 63.2472 107.55C63.2595 107.554 63.2726 107.556 63.2859 107.556C63.2931 107.556 63.3004 107.556 63.3078 107.554C63.3841 107.541 63.4612 107.534 63.538 107.534C63.9725 107.534 64.3992 107.746 64.6529 108.135L66.4094 110.827C66.6176 111.147 66.527 111.578 66.2082 111.785L65.9687 111.941C65.8468 112.021 65.7083 112.059 65.5716 112.059Z" fill="#DEE3F2"/>
<path d="M66.2886 109.649L63.9921 111.148L62.9609 109.567L65.2575 108.069L66.2886 109.649Z" fill="#EBF3FA"/>
<path d="M63.392 106.721L62.4814 107.318L62.6226 107.534L63.5333 106.937L63.392 106.721Z" fill="#EBF3FA"/>
<path d="M59.0539 106.698L59.7058 109.846C59.7829 110.219 59.541 110.588 59.1683 110.664L57.8778 110.932C57.4837 111.013 57.0944 110.757 57.0128 110.364L56.3688 107.254C56.2593 106.724 56.4852 106.2 56.9003 105.904C56.9547 105.864 56.9802 105.795 56.9576 105.731C56.9513 105.713 56.946 105.694 56.9418 105.675L56.9074 105.508L57.8664 105.31L57.9008 105.476C57.9053 105.498 57.908 105.52 57.9092 105.541C57.9124 105.602 57.9541 105.655 58.0138 105.667C58.5197 105.769 58.9431 106.163 59.0539 106.698Z" fill="#ECF2FD"/>
<path d="M59.054 106.698L59.7059 109.846C59.7829 110.219 59.5411 110.588 59.1683 110.664L58.3572 110.832C57.9632 110.914 57.5739 110.658 57.4923 110.264L56.8483 107.154C56.7387 106.625 56.9647 106.1 57.3797 105.804C57.3996 105.79 57.4158 105.771 57.4271 105.75C57.4463 105.715 57.4512 105.672 57.4372 105.632C57.4308 105.614 57.4255 105.594 57.4214 105.575L57.387 105.409L57.8664 105.31L57.9008 105.476C57.9054 105.498 57.9081 105.52 57.9092 105.541C57.9124 105.602 57.9541 105.655 58.0138 105.667C58.5197 105.769 58.9432 106.163 59.054 106.698Z" fill="#E5EAF5"/>
<path d="M58.354 110.833C58.355 110.833 58.3561 110.833 58.3571 110.832L58.6421 110.773C58.6403 110.774 58.6384 110.774 58.6365 110.775L58.3571 110.832C58.3561 110.833 58.355 110.833 58.354 110.833Z" fill="#E2EAF5"/>
<path d="M58.2097 110.848C57.8703 110.848 57.5636 110.608 57.4923 110.264L56.8483 107.154C56.8299 107.065 56.821 106.977 56.8208 106.889C56.82 106.455 57.0344 106.051 57.3797 105.804C57.3996 105.79 57.4158 105.771 57.4272 105.75C57.4426 105.763 57.4612 105.772 57.482 105.776C57.9879 105.879 58.4114 106.273 58.5222 106.808L59.1741 109.956C59.2509 110.327 59.0117 110.694 58.6422 110.773L58.3572 110.832C58.3562 110.833 58.3551 110.833 58.3541 110.833C58.3057 110.843 58.2573 110.848 58.2097 110.848Z" fill="#DEE3F2"/>
<path d="M59.4924 108.815L56.8075 109.372L56.4248 107.524L59.1097 106.967L59.4924 108.815Z" fill="#ED7D2B"/>
<path d="M57.8639 105.033L56.7983 105.256L56.8511 105.507L57.9167 105.284L57.8639 105.033Z" fill="#ED7D2B"/>
<path d="M70.2241 127.469L69.1851 134.077L68.8829 135.982L68.2854 139.801H60.2063C60.2063 139.801 59.1433 139.146 57.7613 138.288C55.4062 136.808 52.1515 134.747 51.8243 134.379C51.6117 134.142 51.2438 132.359 50.884 130.347C50.3769 127.478 49.8862 124.125 49.8862 124.125L52.8466 118.597L50.2951 112.488L53.6643 103.177L57.8512 107.647L67.0591 109.602L70.2241 127.469Z" fill="#AAC9F5"/>
<path d="M58.2129 126.253L57.293 131.466L64.1928 126.662L58.2129 126.253Z" fill="#AAC9F5"/>
<path d="M69.1718 134.077L68.2729 139.801H60.1932C60.1932 139.801 59.1302 139.146 57.7482 138.288L57.0776 136.318L64.8462 132.793L65.7786 132.744L69.1718 134.077Z" fill="#AAC9F5"/>
<path d="M70.2236 127.469L69.1846 134.077L68.8824 135.982C68.3589 135.72 64.7116 133.84 64.8588 132.793C65.0142 131.672 70.2236 127.469 70.2236 127.469Z" fill="#C3D9FA"/>
<path d="M51.8242 134.379C51.8242 134.379 56.7307 135.861 57.0885 136.321C57.4463 136.782 58.4684 138.723 58.4684 138.723L51.8242 134.379Z" fill="#C3D9FA"/>
<path d="M58.2129 126.253C58.2129 126.253 62.0973 125.129 62.455 124.617C62.8128 124.106 65.3171 120.988 65.3171 120.988C65.3171 120.988 64.6528 126.048 64.1928 126.662C63.7327 127.275 58.2129 126.253 58.2129 126.253Z" fill="#C3D9FA"/>
<path d="M55.03 122.587L50.884 130.347C50.3769 127.478 49.8862 124.125 49.8862 124.125L52.2332 121.361L55.03 122.587Z" fill="#9DC1ED"/>
<path d="M55.03 122.587C55.03 122.587 52.7811 121.704 49.8862 124.125L52.8466 118.597L55.03 122.587Z" fill="#C3D9FA"/>
<path d="M50.2949 112.488L57.1395 114.276L60.0016 118.638L50.2949 112.488Z" fill="#C3D9FA"/>
<path d="M57.2933 131.466L57.0889 136.321L64.8596 132.793L70.2244 127.469L65.3175 120.988L62.9665 127.224L57.2933 131.466Z" fill="#9DC1ED"/>
<path d="M49.7698 82.1567C49.7698 82.1567 49.1121 79.7903 47.2088 79.5621C45.3055 79.334 44.1089 80.474 43.8524 81.5853C43.596 82.6966 43.7813 85.603 44.9566 85.9592C46.1319 86.3154 49.7698 82.1567 49.7698 82.1567Z" fill="#2C3A64"/>
<path d="M44.3066 105.578L44.1886 104.567C42.2131 105.091 36.9345 103.1 36.9345 103.1C36.9345 103.1 35.0207 104.783 35.272 108.815C35.3946 110.784 35.4742 114.124 35.4742 114.124H35.4745C35.4695 116.988 35.6826 119.825 35.8526 121.622C35.9372 122.519 36.0113 123.158 36.0415 123.413L36.0421 123.416C36.0514 123.493 36.0243 123.567 35.9848 123.635C35.6403 124.219 35.3139 124.814 35.121 125.451C33.7715 129.908 34.8338 136.758 34.8338 136.758L36.1626 138.83C36.1626 138.83 37.6708 130.443 38.8963 126.737C39.1044 126.109 39.3037 125.616 39.4864 125.32C40.0193 124.46 40.5138 123.055 40.9626 121.384C41.806 118.242 44.3066 105.578 44.3066 105.578Z" fill="#35488B"/>
<path d="M47.553 87.1793C47.553 87.1793 47.2925 87.9762 47.1005 88.74C45.668 88.3403 45.233 86.8344 45.1021 86.0279L47.553 87.1793Z" fill="#ED985F"/>
<path d="M47.855 88.0233C47.855 88.0233 44.4276 87.2298 44.9545 85.103C45.4813 82.9771 45.3937 81.4416 47.6042 81.8588C49.8147 82.2751 50.0373 83.1913 50.034 83.9438C50.0309 84.6963 48.76 88.1748 47.855 88.0233Z" fill="#FFB27D"/>
<path d="M50.227 82.7367C49.8586 81.9659 49.4249 82.0068 49.1536 82.1436C47.5433 80.6534 45.9637 81.871 45.9637 81.871C45.3557 83.3394 44.0381 83.9394 44.0381 83.9394C44.0381 83.9394 44.5646 84.4786 46.0906 84.4672C46.5568 84.4638 47.0254 84.2495 47.4518 83.9543C46.6293 84.7834 45.6648 85.2877 45.6648 85.2877C47.5751 84.9219 48.856 82.7106 48.9873 82.4754C49.1491 82.714 49.4586 83.2227 49.4847 83.6529C49.52 84.2364 49.3192 85.3704 49.6536 85.4131C49.6536 85.4131 50.7796 83.8924 50.227 82.7367Z" fill="#2C3A64"/>
<path d="M49.2157 91.2527C49.2157 91.2527 50.0409 92.6924 50.1644 93.0625C50.1644 93.0625 49.0943 93.0216 48.6621 93.8446C48.6621 93.8446 48.6992 91.46 49.2157 91.2527Z" fill="#F99746"/>
<path d="M48.9304 95.5412C48.9056 95.6083 48.8766 95.6753 48.8459 95.7424C47.9859 97.5949 47.2029 99.1408 47.2029 99.1408C47.1816 99.1277 47.0781 106.004 46.0379 106.275C45.4506 106.426 43.7752 106.651 42.576 106.73C41.993 106.768 40.3963 106.858 38.9329 106.73C37.0874 106.568 36.0377 106.15 35.3334 105.513C34.4983 104.4 38.3671 100.735 38.8927 98.0965C38.8859 97.9589 38.9098 97.5165 38.9474 96.9391C39.0141 95.8852 39.1218 94.382 39.1543 93.4631C39.1602 93.3255 39.1637 93.201 39.1645 93.0921C39.1645 93.0712 39.1654 93.0521 39.1654 93.0329C39.3518 92.8944 39.5338 92.7664 39.7013 92.6445C40.2398 92.2517 40.6425 91.9164 40.6681 91.4861C40.6775 91.3172 40.6724 91.143 40.6544 90.9688C40.6468 90.8869 40.6365 90.8042 40.6237 90.7232C40.4911 89.8609 40.1321 89.0797 40.1321 89.0797C41.0425 88.7104 42.664 88.9299 42.664 88.9299C42.664 88.9299 42.6614 89.0205 42.6606 89.1677C42.6546 89.7599 42.6606 91.2797 42.8504 91.5671C43.088 91.9251 47.4294 93.4954 47.6585 93.0094C47.8842 92.5312 47.2661 90.2912 47.2431 90.2058L47.2423 90.2041C48.6962 90.7737 49.2159 91.2527 49.2159 91.2527C48.3398 91.8214 49.6083 93.7445 48.9304 95.5412Z" fill="#F99746"/>
<path d="M42.9178 102.211C41.7775 101.682 40.0534 98.9196 38.9473 96.9391C39.014 95.8852 39.1217 94.382 39.1542 93.4631L42.9178 102.211Z" fill="#ED7D2B"/>
<path d="M51.4395 103.828L51.1533 104.875C51.1533 104.875 50.7935 104.81 50.221 104.703C50.0493 104.67 49.9512 104.646 49.9512 104.646C49.4933 104.556 48.9454 104.433 48.3484 104.302H48.3402C47.318 104.057 46.1732 103.763 45.2082 103.435C44.5294 103.198 43.9407 102.945 43.54 102.692C43.4991 102.666 43.4664 102.642 43.4255 102.61C42.4687 101.915 41.332 99.8698 40.4489 97.6785C40.3262 97.3763 40.2118 97.0732 40.0972 96.7788C39.6883 95.6832 39.3613 94.6041 39.1651 93.6713C39.0423 93.1156 38.9606 92.6087 38.9442 92.1916C38.936 92.0444 38.9278 91.905 38.936 91.7744C38.9524 89.4028 40.13 89.0754 40.13 89.0754C40.1545 89.0675 40.179 89.0597 40.2118 89.051C40.4162 89.0187 40.6288 89.1572 40.8496 89.4272C41.1275 89.7625 41.422 90.3103 41.7246 90.9731C42.1906 92.0278 42.6814 93.3935 43.1393 94.7513C43.3928 95.495 43.6381 96.2397 43.8834 96.926C44.0225 97.3432 44.1615 97.736 44.2923 98.0957C44.5458 98.7828 44.7748 99.3385 44.9793 99.6903C45.11 99.9194 45.4862 100.238 45.985 100.598C46.8519 101.228 48.1194 101.988 49.2234 102.61C49.6813 102.871 50.1147 103.109 50.4746 103.305C51.0551 103.624 51.4395 103.828 51.4395 103.828Z" fill="#FFB27D"/>
<path d="M41.7218 90.9766C40.1475 90.542 38.9331 91.7718 38.9331 91.7718C38.9529 89.4037 40.1314 89.0797 40.1314 89.0797C40.6056 88.8838 41.155 89.7042 41.7218 90.9766Z" fill="#F99746"/>
<path d="M54.8765 104.866C54.3531 105.087 53.6171 105.856 52.4396 105.39C51.5972 105.062 50.706 104.833 50.2725 104.727C50.1008 104.695 50.0027 104.67 50.0027 104.67C49.5448 104.58 48.9968 104.457 48.3999 104.326C48.8905 103.721 49.1686 102.953 49.2748 102.633C49.7328 102.895 50.1662 103.132 50.526 103.329C51.7113 103.781 52.366 103.721 53.0856 103.557C53.8952 103.37 55.2526 104.343 55.2526 104.343C55.2526 104.343 55.3998 104.654 54.8765 104.866Z" fill="#F99746"/>
<path d="M39.7816 139.393H34.4926C34.4926 139.393 34.2949 138.549 34.6421 137.975C34.9495 137.467 34.8186 136.883 34.7562 136.189C34.9958 136.287 35.301 136.539 35.6378 136.597C36.0082 136.662 36.3754 136.554 36.6198 136.412C36.8474 136.672 37.4837 138.013 37.7883 138.232C38.134 138.48 39.6752 138.392 39.7816 139.393Z" fill="#233862"/>
<path d="M50.4501 139.393H45.161C45.161 139.393 44.9633 138.549 45.3105 137.975C45.6179 137.467 45.4871 136.883 45.4247 136.189C45.6643 136.287 45.9694 136.539 46.3062 136.597C46.6766 136.662 47.1554 136.417 47.3998 136.275C47.5197 137.303 48.1522 138.013 48.4568 138.232C48.8024 138.48 50.3436 138.392 50.4501 139.393Z" fill="#233862"/>
<path d="M243.395 140H0.270569C0.121699 140 0 139.878 0 139.73V139.65C0 139.502 0.121699 139.38 0.270569 139.38H243.395C243.545 139.38 243.665 139.502 243.665 139.65V139.73C243.665 139.878 243.545 140 243.395 140Z" fill="#2E3552"/>
</svg>
