<svg width="168" height="160" viewBox="0 0 168 160" fill="none" xmlns="http://www.w3.org/2000/svg">
<path d="M23.1919 140.865V143.769H44.9319V140.865H23.1919Z" fill="#E0E0E0"/>
<path d="M26.154 140.982C26.3362 141.88 26.3362 142.805 26.154 143.703C25.9718 142.805 25.9718 141.88 26.154 140.982Z" fill="#FAFAFA"/>
<path d="M25.6808 140.926C25.863 141.824 25.863 142.749 25.6808 143.647C25.4986 142.749 25.4986 141.824 25.6808 140.926Z" fill="#FAFAFA"/>
<path d="M43.2498 140.982C43.4325 141.88 43.4325 142.805 43.2498 143.703C43.0681 142.805 43.0681 141.88 43.2498 140.982Z" fill="#FAFAFA"/>
<path d="M42.778 140.926C42.9602 141.824 42.9602 142.749 42.778 143.647C42.5958 142.749 42.5958 141.824 42.778 140.926Z" fill="#FAFAFA"/>
<path d="M39.9379 142.405C39.9379 142.481 37.4479 142.542 34.3769 142.542C31.3059 142.542 28.8149 142.481 28.8149 142.405C28.8149 142.329 31.3049 142.268 34.3769 142.268C37.4489 142.268 39.9379 142.329 39.9379 142.405Z" fill="#FAFAFA"/>
<path d="M23.0979 153.941V159.75H44.8379V153.941H23.0979Z" fill="#E0E0E0"/>
<path d="M45.1159 158.115C45.08 158.143 45.0403 158.166 44.9979 158.183C44.9179 158.224 44.7979 158.283 44.6359 158.349C44.1636 158.549 43.6686 158.691 43.1619 158.771C42.3489 158.918 41.5101 158.799 40.7699 158.432C40.3131 158.187 39.9232 157.833 39.6339 157.403C39.2977 156.914 39.1551 156.317 39.2339 155.729C39.2853 155.409 39.4237 155.11 39.6339 154.864C39.7449 154.729 39.8852 154.622 40.0442 154.55C40.2031 154.477 40.3765 154.443 40.5509 154.448C40.7305 154.464 40.9049 154.516 41.0634 154.602C41.2218 154.688 41.3609 154.806 41.4719 154.948C41.7099 155.227 41.8568 155.573 41.8929 155.938C41.9228 156.315 41.8712 156.694 41.7418 157.049C41.6124 157.404 41.4082 157.728 41.1429 157.997C40.5931 158.579 39.8509 158.942 39.0539 159.018C38.2333 159.099 37.4049 158.997 36.6289 158.718C35.7993 158.459 35.063 157.964 34.5099 157.294C34.2252 156.934 34.0533 156.498 34.0159 156.04C33.993 155.803 34.0227 155.563 34.1027 155.338C34.1827 155.114 34.3111 154.909 34.4789 154.74C34.6618 154.561 34.9034 154.454 35.1589 154.44C35.4104 154.433 35.6579 154.503 35.8689 154.64C36.2778 154.912 36.5648 155.332 36.6689 155.812C36.7595 156.276 36.7281 156.756 36.5779 157.205C36.4277 157.653 36.1638 158.055 35.8119 158.371C35.1223 158.954 34.2657 159.304 33.3649 159.371C32.5108 159.47 31.6454 159.385 30.8269 159.121C30.0242 158.869 29.3391 158.337 28.8969 157.621C28.6785 157.282 28.5428 156.897 28.5007 156.496C28.4587 156.096 28.5115 155.691 28.6549 155.314C28.7281 155.125 28.8477 154.957 29.0026 154.825C29.1576 154.694 29.343 154.604 29.5419 154.563C29.7336 154.528 29.9305 154.534 30.1199 154.579C30.3093 154.625 30.4871 154.71 30.6419 154.828C30.913 155.066 31.107 155.379 31.1993 155.727C31.2916 156.076 31.2779 156.444 31.1599 156.785C30.9478 157.394 30.5661 157.929 30.0599 158.328C29.2225 159.034 28.1736 159.442 27.0789 159.486C26.4121 159.507 25.7482 159.388 25.1295 159.139C24.5108 158.889 23.9507 158.514 23.4849 158.036C23.3927 157.941 23.3059 157.841 23.2249 157.736C23.1944 157.702 23.1689 157.665 23.1489 157.624C23.6067 158.131 24.1547 158.549 24.7649 158.857C25.4812 159.209 26.2748 159.374 27.0719 159.336C28.1267 159.277 29.1327 158.872 29.9339 158.184C30.4043 157.805 30.7575 157.3 30.9529 156.728C31.0553 156.429 31.0671 156.107 30.9866 155.802C30.9062 155.496 30.7372 155.221 30.5009 155.012C30.3716 154.915 30.2237 154.846 30.0664 154.809C29.9092 154.772 29.7459 154.767 29.5869 154.796C29.4259 154.83 29.2761 154.905 29.1517 155.013C29.0274 155.121 28.9325 155.258 28.8759 155.413C28.7503 155.754 28.7063 156.121 28.7474 156.482C28.7886 156.844 28.9137 157.19 29.1129 157.495C29.5274 158.157 30.1663 158.648 30.9129 158.878C31.6954 159.126 32.5217 159.205 33.3369 159.109C34.1802 159.048 34.9826 158.722 35.6299 158.178C35.946 157.894 36.1833 157.533 36.3189 157.13C36.4545 156.727 36.4838 156.296 36.4039 155.878C36.3159 155.469 36.0729 155.111 35.7259 154.878C35.5695 154.763 35.3779 154.707 35.1844 154.719C34.9908 154.731 34.8075 154.809 34.6659 154.942C34.5268 155.085 34.4206 155.256 34.355 155.444C34.2893 155.632 34.2657 155.833 34.2859 156.031C34.3192 156.436 34.4716 156.823 34.7239 157.142C35.2438 157.771 35.9347 158.235 36.7129 158.48C37.4516 158.75 38.2409 158.852 39.0239 158.78C39.7635 158.714 40.4539 158.382 40.9669 157.845C41.2106 157.601 41.3991 157.309 41.5199 156.986C41.6406 156.663 41.6908 156.319 41.6669 155.975C41.6526 155.663 41.5334 155.365 41.3288 155.129C41.1241 154.893 40.8458 154.733 40.5389 154.675C40.3954 154.67 40.2527 154.698 40.1218 154.757C39.9909 154.816 39.8753 154.904 39.7839 155.015C39.5962 155.232 39.4714 155.495 39.4229 155.778C39.3452 156.319 39.4702 156.87 39.7739 157.324C40.0432 157.735 40.4084 158.075 40.8379 158.314C41.5464 158.677 42.3516 158.805 43.1379 158.682C43.6392 158.613 44.1315 158.49 44.6059 158.314C44.9429 158.178 45.1119 158.106 45.1159 158.115Z" fill="#FAFAFA"/>
<path d="M25.0388 143.853V153.931H44.8368V143.853H25.0388Z" fill="#EBEBEB"/>
<path d="M28.3288 144.199C28.511 147.448 28.511 150.705 28.3288 153.954C28.1466 150.705 28.1466 147.448 28.3288 144.199Z" fill="#E0E0E0"/>
<path d="M29.8298 144.072C30.0125 147.279 30.0125 150.495 29.8298 153.702C29.6476 150.495 29.6476 147.279 29.8298 144.072Z" fill="#E0E0E0"/>
<path d="M42.5998 143.75C42.7826 147.128 42.7826 150.514 42.5998 153.892C42.4176 150.514 42.4176 147.128 42.5998 143.75Z" fill="#E0E0E0"/>
<path d="M40.8359 143.886C41.0182 147.177 41.0182 150.475 40.8359 153.766C40.6537 150.475 40.6537 147.177 40.8359 143.886Z" fill="#E0E0E0"/>
<path d="M147.407 121.854C149.511 120.867 151.876 120.579 154.155 121.034C155.401 121.145 156.574 121.668 157.488 122.522C157.923 122.965 158.169 123.559 158.175 124.179C158.182 124.8 157.948 125.398 157.522 125.85C156.905 126.267 156.163 126.455 155.422 126.383C153.638 126.362 151.659 126.048 150.234 127.121C149.421 127.733 148.88 128.751 147.908 129.052C147.421 129.164 146.912 129.115 146.456 128.912C146 128.709 145.622 128.363 145.38 127.927C144.916 127.033 144.814 125.995 145.094 125.027C145.209 124.356 145.478 123.72 145.879 123.17C146.28 122.62 146.803 122.169 147.407 121.854Z" fill="#EBEBEB"/>
<path d="M142.705 112.777C143.96 114.569 146.399 113.977 147.53 112.877C148.563 111.68 149.267 110.236 149.574 108.685C150.568 105.23 151.574 101.606 150.831 98.085C150.653 97.0187 150.185 96.022 149.478 95.204C149.12 94.8011 148.662 94.4994 148.15 94.3292C147.638 94.1589 147.091 94.1261 146.563 94.234C145.973 94.4744 145.441 94.8372 145.002 95.2986C144.563 95.7599 144.227 96.3091 144.016 96.91C142.387 100.293 141.533 103.996 141.516 107.751C141.399 109.505 141.812 111.254 142.701 112.77" fill="#EBEBEB"/>
<path d="M139.258 115.348C139.902 114.506 140.331 113.519 140.508 112.474C140.685 111.428 140.604 110.355 140.273 109.348C139.585 107.335 138.354 105.551 136.718 104.192C134.86 102.538 132.698 101.262 130.352 100.436C129.444 100.069 128.468 99.903 127.49 99.949C127.002 99.9774 126.528 100.125 126.109 100.378C125.691 100.632 125.341 100.983 125.09 101.403C124.42 102.681 125.062 104.23 125.757 105.495C126.982 107.724 128.38 109.852 129.938 111.862C131.085 113.568 132.675 114.93 134.538 115.801C136.448 116.531 138.432 116.445 139.444 115.121" fill="#EBEBEB"/>
<path d="M142.619 139.815C142.686 139.548 142.724 139.276 142.733 139.001L142.949 136.778C143.06 135.683 143.227 134.595 143.449 133.518C143.741 132.206 144.137 130.919 144.634 129.67C145.121 128.422 145.783 127.25 146.599 126.188C147.263 125.324 148.112 124.618 149.083 124.123C149.742 123.797 150.448 123.577 151.175 123.472C151.449 123.462 151.72 123.422 151.986 123.355C151.712 123.321 151.435 123.316 151.16 123.342C150.405 123.399 149.666 123.592 148.979 123.91C147.956 124.393 147.059 125.106 146.358 125.993C145.507 127.07 144.82 128.267 144.321 129.545C143.816 130.812 143.422 132.121 143.144 133.456C142.933 134.546 142.789 135.648 142.711 136.756C142.64 137.7 142.611 138.464 142.601 138.993C142.577 139.267 142.583 139.542 142.619 139.815Z" fill="#E0E0E0"/>
<path d="M142.774 138.105C142.796 137.98 142.803 137.853 142.796 137.727C142.796 137.443 142.796 137.085 142.796 136.646C142.796 135.708 142.796 134.346 142.844 132.675C142.927 129.323 143.216 125.715 143.773 120.629C144.301 115.846 145.01 110.281 145.757 106.662C145.917 105.839 146.079 105.098 146.231 104.45C146.383 103.802 146.5 103.239 146.619 102.786L146.872 101.736C146.908 101.615 146.931 101.489 146.938 101.363C146.88 101.475 146.836 101.594 146.807 101.717L146.493 102.752C146.354 103.201 146.211 103.758 146.049 104.405C145.887 105.052 145.701 105.79 145.525 106.611C144.599 110.891 143.902 115.217 143.439 119.571C142.88 124.671 142.629 129.309 142.606 132.671C142.586 134.351 142.622 135.711 142.665 136.65C142.692 137.089 142.714 137.45 142.731 137.73C142.73 137.856 142.745 137.982 142.774 138.105Z" fill="#E0E0E0"/>
<path d="M142.795 129.154C142.822 128.778 142.819 128.401 142.787 128.025C142.746 127.299 142.646 126.251 142.441 124.966C142.194 123.463 141.861 121.975 141.446 120.51C140.961 118.707 140.338 116.944 139.583 115.237C138.29 112.088 136.436 109.201 134.11 106.715C133.707 106.288 133.277 105.887 132.823 105.515C132.623 105.348 132.451 105.182 132.273 105.05L131.773 104.706C131.473 104.479 131.155 104.275 130.823 104.097C131.918 104.958 132.958 105.886 133.938 106.876C136.187 109.382 137.991 112.254 139.274 115.367C140.014 117.065 140.64 118.81 141.148 120.591C141.574 122.043 141.927 123.516 142.206 125.003C142.439 126.275 142.574 127.313 142.655 128.032C142.672 128.409 142.719 128.784 142.795 129.154Z" fill="#E0E0E0"/>
<path d="M133.545 143.583L134.445 155.87H150.23L151.13 143.583H133.545Z" fill="#EBEBEB"/>
<path d="M153.008 138.74H132.021V143.583H153.008V138.74Z" fill="#EBEBEB"/>
<path d="M132.021 155.4V156.742H152.661V155.4H132.021Z" fill="#E0E0E0"/>
<path d="M133.974 158.957L133.007 156.594H151.907L150.779 158.957H133.974Z" fill="#E0E0E0"/>
<path d="M150.831 147.599C150.811 147.64 150.787 147.678 150.757 147.712L150.521 148.025L149.602 149.202L149.561 149.255L149.521 149.2L147.262 146.075H147.392L145.168 149.224L145.099 149.324L145.021 149.231L142.383 146.093H142.535L142.39 146.275L140.032 149.232L139.953 149.332L139.88 149.232L137.655 146.083L137.785 146.089L135.044 149.211L134.995 149.267L134.958 149.204L134.1 147.763L133.88 147.379C133.852 147.336 133.83 147.29 133.813 147.242C133.849 147.279 133.88 147.32 133.905 147.364L134.149 147.734L135.049 149.15L134.963 149.143L137.663 145.982L137.731 145.902L137.792 145.988L140.037 149.123H139.886L142.239 146.162L142.384 145.98L142.459 145.886L142.536 145.978L145.166 149.123L145.018 149.129L147.264 145.995L147.33 145.903L147.394 145.995L149.606 149.153H149.525L150.482 148.006L150.738 147.706C150.795 147.629 150.827 147.596 150.831 147.599Z" fill="#F5F5F5"/>
<path d="M151.344 143.502C151.344 143.556 147.389 143.602 142.511 143.602C137.633 143.602 133.677 143.558 133.677 143.502C133.677 143.446 137.631 143.402 142.511 143.402C147.391 143.402 151.344 143.448 151.344 143.502Z" fill="#F5F5F5"/>
<path d="M61.3498 15.507C61.3186 15.5028 61.2882 15.4936 61.2598 15.48L61.0038 15.38L60.0288 14.975L56.4628 13.445L44.7208 8.32997L44.3138 8.15197H44.3988L32.8988 13.072L29.4178 14.535L28.4688 14.922C28.3601 14.9712 28.2478 15.012 28.1328 15.044C28.2347 14.9819 28.3414 14.9281 28.4518 14.883L29.3858 14.459L32.8398 12.935L44.3188 7.95697L44.3608 7.93797L44.4028 7.95697L44.8098 8.13497L56.5258 13.307L60.0628 14.896L61.0218 15.338L61.2688 15.458C61.2982 15.47 61.3255 15.4865 61.3498 15.507Z" fill="#E0E0E0"/>
<path d="M79.6659 13.821H4.25586V70.285H79.6659V13.821Z" fill="#E0E0E0"/>
<path d="M77.3128 16.446H6.89185V67.964H77.3128V16.446Z" fill="#FAFAFA"/>
<path d="M22.4468 38.955C22.4468 38.955 22.5198 47.603 22.9598 50.242L33.8068 49.729C33.8068 49.729 32.8538 41.229 33.2198 38.955H22.4468Z" fill="#E0E0E0"/>
<path d="M27.7897 40.178C27.803 40.1761 27.8165 40.1761 27.8298 40.178H27.9467C28.0974 40.1725 28.2483 40.1798 28.3978 40.2C28.6365 40.2344 28.8689 40.3034 29.0877 40.405C29.3776 40.5471 29.6337 40.7496 29.8387 40.999C30.0887 41.3036 30.2665 41.6609 30.3587 42.044C30.4427 42.4927 30.4033 42.9559 30.2448 43.384C30.1656 43.6161 30.0652 43.8404 29.9447 44.054C29.8168 44.2733 29.7006 44.4993 29.5967 44.731C29.3803 45.2213 29.2329 45.7392 29.1587 46.27V46.306H29.1237L28.0528 46.323L26.9297 46.34H26.8897V46.299C26.8416 45.7691 26.6626 45.2595 26.3688 44.816C26.2388 44.594 26.0957 44.385 25.9627 44.175C25.8241 43.9753 25.6969 43.768 25.5817 43.554C25.3832 43.1437 25.3236 42.6801 25.4118 42.233C25.475 41.8475 25.6177 41.4794 25.8308 41.152C26.0144 40.8888 26.2559 40.6712 26.5368 40.516C26.7461 40.4004 26.9702 40.3136 27.2028 40.258C27.3483 40.2225 27.4964 40.1984 27.6458 40.186C27.6968 40.186 27.7357 40.186 27.7627 40.186C27.7757 40.1838 27.7888 40.1838 27.8018 40.186C27.7889 40.1888 27.7759 40.1905 27.7627 40.191L27.6478 40.203C27.5003 40.2213 27.3543 40.2497 27.2107 40.288C26.9827 40.3478 26.7635 40.4372 26.5587 40.554C26.2865 40.709 26.0533 40.9241 25.8767 41.183C25.6719 41.5054 25.5357 41.8666 25.4767 42.244C25.3933 42.6776 25.4534 43.1265 25.6478 43.523C25.7628 43.7342 25.8897 43.9389 26.0277 44.136C26.1597 44.343 26.3047 44.554 26.4367 44.777C26.7392 45.2314 26.9231 45.7543 26.9717 46.298L26.9307 46.258L28.0547 46.24L29.1257 46.223L29.0857 46.26C29.1614 45.7206 29.3122 45.1945 29.5337 44.697C29.6389 44.4634 29.7567 44.2357 29.8867 44.015C30.0066 43.8059 30.107 43.5863 30.1867 43.359C30.3426 42.9442 30.3837 42.4951 30.3057 42.059C30.2177 41.6849 30.0468 41.3353 29.8057 41.036C29.6078 40.7902 29.36 40.5891 29.0788 40.446C28.865 40.3431 28.6377 40.2711 28.4037 40.232C28.2558 40.209 28.1064 40.1969 27.9567 40.196H27.8397C27.8223 40.1925 27.8054 40.1865 27.7897 40.178Z" fill="white"/>
<path d="M28.3469 46.203C28.3469 46.203 28.3469 46.191 28.3399 46.169L28.3239 46.069C28.3099 45.979 28.2899 45.849 28.2649 45.682C28.2159 45.346 28.1439 44.858 28.0949 44.251C28.0829 44.099 28.0729 43.94 28.0669 43.774C28.0609 43.608 28.0539 43.435 28.0669 43.255C28.0722 43.0678 28.1136 42.8834 28.1889 42.712C28.2715 42.5279 28.4188 42.3806 28.6029 42.298C28.7016 42.2579 28.8097 42.2472 28.9143 42.2671C29.019 42.2869 29.1157 42.3366 29.1929 42.41C29.2333 42.4487 29.2654 42.4953 29.2873 42.5469C29.3091 42.5985 29.3202 42.654 29.3199 42.71C29.3171 42.8228 29.2782 42.9318 29.2089 43.021C29.1399 43.1111 29.0504 43.1834 28.9479 43.232C28.8453 43.2808 28.7372 43.3167 28.6259 43.339C28.4003 43.3859 28.1711 43.4126 27.9409 43.419C27.7107 43.428 27.4801 43.4169 27.2519 43.386C27.1396 43.369 27.03 43.3374 26.9259 43.292C26.8227 43.246 26.7298 43.1797 26.6529 43.097C26.5755 43.0159 26.521 42.9159 26.4949 42.807C26.4713 42.6986 26.4851 42.5855 26.5339 42.486C26.5793 42.3866 26.6603 42.3077 26.7609 42.265C26.8107 42.2464 26.8638 42.2381 26.9169 42.2407C26.97 42.2433 27.0221 42.2566 27.0699 42.28C27.1629 42.325 27.2423 42.3941 27.2999 42.48C27.3547 42.562 27.3937 42.6536 27.4149 42.75C27.4488 42.9324 27.4672 43.1174 27.4699 43.303L27.5219 44.297C27.5529 44.903 27.5769 45.397 27.5949 45.735C27.6029 45.904 27.6089 46.035 27.6129 46.126V46.226C27.6129 46.249 27.6129 46.261 27.6129 46.261C27.6129 46.261 27.6129 46.249 27.6129 46.227C27.6129 46.205 27.6129 46.169 27.6059 46.127C27.5999 46.036 27.5919 45.905 27.5819 45.736C27.5619 45.395 27.5339 44.904 27.4989 44.298C27.4819 43.998 27.4629 43.662 27.4429 43.305C27.4396 43.1211 27.4209 42.9377 27.3869 42.757C27.3661 42.6645 27.3285 42.5767 27.2759 42.498C27.2203 42.4182 27.1448 42.3544 27.0569 42.313C27.0129 42.2916 26.965 42.2794 26.9162 42.2772C26.8674 42.2749 26.8186 42.2827 26.7729 42.3C26.6798 42.3394 26.6051 42.4127 26.5639 42.505C26.5184 42.5981 26.5057 42.7038 26.5279 42.805C26.5526 42.9083 26.6044 43.0032 26.6779 43.08C26.8345 43.2357 27.0393 43.3337 27.2589 43.358C27.4852 43.3886 27.7137 43.3997 27.9419 43.391C28.1697 43.3847 28.3966 43.3583 28.6199 43.312C28.7285 43.2916 28.8343 43.258 28.9349 43.212C29.0327 43.1662 29.1181 43.0976 29.1839 43.012C29.2473 42.9281 29.2824 42.8261 29.2839 42.721C29.2841 42.6698 29.274 42.6192 29.254 42.572C29.2341 42.5249 29.2048 42.4824 29.1679 42.447C29.0952 42.3776 29.0042 42.3307 28.9056 42.3117C28.807 42.2927 28.705 42.3026 28.6119 42.34C28.4339 42.4196 28.2915 42.562 28.2119 42.74C28.1376 42.9075 28.0965 43.0878 28.0909 43.271C28.0809 43.449 28.0909 43.622 28.0909 43.787C28.0909 43.952 28.1059 44.112 28.1169 44.263C28.1629 44.869 28.2309 45.357 28.2759 45.694L28.3289 46.082L28.3419 46.182C28.3459 46.191 28.3469 46.203 28.3469 46.203Z" fill="white"/>
<path d="M26.9178 46.259C26.9228 46.264 26.9318 46.393 26.9458 46.62L26.9948 47.559L26.9858 47.536L27.7158 48.377L27.6788 48.361L28.5228 48.313L28.4868 48.331L28.9068 47.817L29.1178 47.561L29.1068 47.594C29.0958 47.099 29.0848 46.631 29.0748 46.203L29.1208 46.247L27.5438 46.264H27.0878C27.0311 46.2659 26.9743 46.2638 26.9178 46.258C26.9673 46.2484 27.0175 46.2437 27.0678 46.244L27.5128 46.221L29.1188 46.158H29.1638V46.204C29.1768 46.631 29.1908 47.104 29.2058 47.594V47.613L29.1938 47.628L28.9838 47.885L28.5618 48.397L28.5478 48.414H28.5258L27.6818 48.455H27.6588L27.6448 48.438L26.9278 47.585L26.9198 47.575V47.562C26.9165 47.188 26.9135 46.8666 26.9108 46.598C26.9064 46.4849 26.9088 46.3717 26.9178 46.259Z" fill="white"/>
<path d="M29.0967 47.481C29.0691 47.4721 29.0423 47.4607 29.0167 47.447C28.9657 47.424 28.8917 47.393 28.7977 47.36C28.3038 47.1892 27.7644 47.2056 27.2817 47.406C27.1897 47.444 27.1177 47.48 27.0687 47.506C27.0439 47.5213 27.0178 47.5344 26.9907 47.545C27.0125 47.5257 27.0363 47.509 27.0617 47.495C27.129 47.4534 27.1992 47.4166 27.2717 47.385C27.7571 47.1687 28.308 47.1519 28.8057 47.338C28.8803 47.3662 28.9528 47.3996 29.0227 47.438C29.049 47.4493 29.0739 47.4637 29.0967 47.481Z" fill="white"/>
<path d="M29.0967 47.143C29.0691 47.1341 29.0423 47.1228 29.0167 47.109C28.9657 47.086 28.8917 47.055 28.7977 47.022C28.3035 46.8509 27.7637 46.8673 27.2807 47.068C27.1887 47.106 27.1167 47.142 27.0677 47.168C27.0431 47.1835 27.0169 47.1965 26.9897 47.207C27.0116 47.1879 27.0354 47.1711 27.0607 47.157C27.1282 47.1156 27.1983 47.0789 27.2707 47.047C27.7561 46.8307 28.307 46.8139 28.8047 47C28.8793 47.0282 28.9518 47.0616 29.0217 47.1C29.0483 47.1114 29.0734 47.1259 29.0967 47.143Z" fill="white"/>
<path d="M29.0767 46.822C29.0491 46.8131 29.0223 46.8017 28.9967 46.788C28.9457 46.765 28.8717 46.734 28.7777 46.701C28.2838 46.5301 27.7444 46.5464 27.2617 46.747C27.1697 46.785 27.0977 46.821 27.0477 46.847C27.0228 46.862 26.9967 46.8751 26.9697 46.886C26.9913 46.8665 27.0151 46.8497 27.0407 46.836C27.1086 46.7947 27.1791 46.758 27.2517 46.726C27.7371 46.5097 28.288 46.4929 28.7857 46.679C28.8602 46.7075 28.9327 46.7409 29.0027 46.779C29.0288 46.7907 29.0536 46.8052 29.0767 46.822Z" fill="white"/>
<path d="M10.366 24.816C10.366 24.816 10.439 33.465 10.879 36.103L21.726 35.59C21.726 35.59 20.773 27.09 21.139 24.816H10.366Z" fill="#EBEBEB"/>
<path d="M19.5051 28.448C18.3014 28.6268 17.0884 28.7353 15.8721 28.773C14.66 28.8814 13.4426 28.9191 12.2261 28.886C13.4297 28.7071 14.6428 28.5986 15.8591 28.561C17.0712 28.4525 18.2886 28.4148 19.5051 28.448Z" fill="white"/>
<path d="M19.508 30.28C18.3044 30.4588 17.0913 30.5673 15.875 30.605C14.6629 30.7134 13.4455 30.7511 12.229 30.718C13.433 30.5391 14.6464 30.4306 15.863 30.393C17.0748 30.2846 18.2918 30.2468 19.508 30.28Z" fill="white"/>
<path d="M17.6641 32.078C16.9847 32.2248 16.2921 32.3022 15.5971 32.309C14.9062 32.3859 14.2093 32.3922 13.5171 32.328C14.1964 32.1809 14.889 32.1035 15.5841 32.097C16.275 32.0201 16.9719 32.0137 17.6641 32.078Z" fill="white"/>
<path d="M9.85278 50.26C9.85278 50.26 9.92578 58.908 10.3658 61.547L21.2128 61.034C21.2128 61.034 20.2598 52.534 20.6268 50.26H9.85278Z" fill="#EBEBEB"/>
<path d="M18.9919 53.892C17.7882 54.0708 16.5752 54.1793 15.3589 54.217C14.1468 54.3254 12.9294 54.3631 11.7129 54.33C12.9166 54.1512 14.1296 54.0427 15.3459 54.005C16.558 53.8967 17.7754 53.859 18.9919 53.892Z" fill="white"/>
<path d="M18.9948 55.724C17.7912 55.9028 16.5781 56.0113 15.3618 56.049C14.1497 56.1574 12.9323 56.1951 11.7158 56.162C12.9195 55.9835 14.1326 55.875 15.3488 55.837C16.5609 55.7288 17.7783 55.691 18.9948 55.724Z" fill="white"/>
<path d="M17.1509 57.523C16.4716 57.6701 15.779 57.7475 15.0839 57.754C14.393 57.8309 13.6961 57.8372 13.0039 57.773C13.6833 57.6261 14.3759 57.5487 15.0709 57.542C15.7618 57.4651 16.4587 57.4587 17.1509 57.523Z" fill="white"/>
<path d="M39.4958 27.109L40.5698 52.053L71.7088 52.429L70.3089 27.439L39.4958 27.109Z" fill="#EBEBEB"/>
<path d="M70.0668 26.93H39.1348V50.287H70.0668V26.93Z" fill="#F5F5F5"/>
<path d="M70.0667 50.288C70.0667 50.288 70.0607 50.137 70.0567 49.855C70.0527 49.573 70.0517 49.15 70.0467 48.609C70.0417 47.509 70.0337 45.918 70.0247 43.883C70.0137 39.81 69.9977 33.983 69.9787 26.932L70.0657 27.019L39.1367 27.038L39.2437 26.932C39.2437 35.332 39.2367 43.286 39.2337 50.289L39.1337 50.189L61.4457 50.237L67.7917 50.262L69.4787 50.274L69.9147 50.279C70.0147 50.279 70.0657 50.285 70.0657 50.285C70.0657 50.285 70.0197 50.285 69.9257 50.29L69.4997 50.295L67.8317 50.307L61.5077 50.332L39.1327 50.38H39.0327V50.28C39.0327 43.28 39.0257 35.323 39.0227 26.923V26.816H39.1317L70.0607 26.835H70.1487V26.922C70.1297 33.995 70.1147 39.842 70.1037 43.928C70.0937 45.955 70.0867 47.544 70.0817 48.635C70.077 49.1683 70.0737 49.5783 70.0717 49.865C70.0737 50.15 70.0667 50.288 70.0667 50.288Z" fill="#E0E0E0"/>
<path d="M55.4057 31.879H42.8667V47.66H55.4057V31.879Z" fill="#F5F5F5"/>
<path d="M55.4057 47.66C55.4022 47.6335 55.4005 47.6067 55.4007 47.58L55.3957 47.355C55.3957 47.147 55.3917 46.8593 55.3837 46.492C55.3777 45.73 55.3697 44.636 55.3587 43.255C55.3467 40.477 55.3307 36.546 55.3117 31.879L55.4067 31.979L42.8687 31.99C42.8437 32.012 43.0687 31.79 42.9737 31.89V32.977C42.9737 33.339 42.9737 33.699 42.9737 34.057C42.9737 34.7736 42.9737 35.4823 42.9737 36.183C42.9737 37.583 42.9737 38.952 42.9737 40.278C42.9687 42.928 42.9647 45.412 42.9597 47.667L42.8717 47.579L51.9497 47.625L54.4967 47.648L55.1717 47.658C55.3257 47.658 55.4097 47.668 55.4097 47.668C55.337 47.6759 55.2638 47.6792 55.1907 47.678L54.5327 47.688L52.0047 47.711L42.8707 47.757H42.7827V47.668C42.7827 45.413 42.7747 42.929 42.7697 40.279C42.7697 38.953 42.7697 37.585 42.7697 36.184C42.7697 35.4833 42.7697 34.7746 42.7697 34.058V31.891C42.6747 31.985 42.8987 31.758 42.8777 31.782L55.4157 31.793H55.5157V31.888C55.4957 36.581 55.4797 40.533 55.4677 43.326L55.4427 46.542C55.438 46.902 55.4344 47.1836 55.4317 47.387C55.4317 47.474 55.4317 47.544 55.4257 47.601C55.4214 47.6214 55.4146 47.6412 55.4057 47.66Z" fill="#E0E0E0"/>
<path d="M67.3777 28.267H43.3467V30.541H67.3777V28.267Z" fill="#F5F5F5"/>
<path d="M67.3767 30.541C67.3708 30.4892 67.3681 30.4371 67.3687 30.385C67.3687 30.274 67.3627 30.129 67.3587 29.944C67.3527 29.544 67.3447 28.988 67.3347 28.267L67.3777 28.31C63.3257 28.347 54.0877 28.373 43.3487 28.373L43.4547 28.267V29.423C43.4547 29.804 43.4547 30.177 43.4547 30.54L43.3487 30.434L60.3817 30.479L65.4937 30.51L66.8847 30.525L67.2497 30.532C67.2928 30.5316 67.3359 30.5339 67.3787 30.539C67.341 30.5451 67.3028 30.5475 67.2647 30.546L66.9137 30.553L65.5467 30.568L60.4587 30.6L43.3487 30.645H43.2427V29.422C43.2427 29.232 43.2427 29.039 43.2427 28.846V28.266L43.3497 28.159C54.0887 28.159 63.3267 28.185 67.3787 28.222H67.4227V28.265C67.4117 28.996 67.4037 29.565 67.3977 29.965C67.3977 30.146 67.3907 30.288 67.3877 30.397C67.3881 30.4452 67.3844 30.4934 67.3767 30.541Z" fill="#E0E0E0"/>
<path d="M67.3777 31.879H56.9407V41.39H67.3777V31.879Z" fill="#F5F5F5"/>
<path d="M67.3776 41.39C67.3705 41.3289 67.3672 41.2675 67.3676 41.206L67.3576 40.69C67.3526 40.225 67.3436 39.573 67.3336 38.751C67.3226 37.077 67.3066 34.715 67.2876 31.879L67.3776 31.97L56.9416 31.986C56.9176 32.009 57.1416 31.786 57.0466 31.881V33.168C57.0466 33.594 57.0466 34.0163 57.0466 34.435C57.0466 35.2716 57.0466 36.0896 57.0466 36.889C57.0466 38.489 57.0396 39.996 57.0376 41.389L56.9446 41.296L64.4726 41.343L66.6086 41.368L67.1786 41.379C67.2454 41.3782 67.3123 41.3819 67.3786 41.39C67.3183 41.3983 67.2574 41.4017 67.1966 41.4L66.6456 41.411L64.5306 41.435L56.9426 41.482H56.8496V41.388C56.8496 39.988 56.8436 38.48 56.8396 36.888C56.8396 36.088 56.8396 35.27 56.8396 34.434C56.8396 34.016 56.8396 33.5936 56.8396 33.167V31.88C56.7396 31.974 56.9686 31.749 56.9466 31.772L67.3826 31.788H67.4736V31.878C67.4546 34.738 67.4386 37.121 67.4266 38.808C67.4166 39.622 67.4086 40.266 67.4026 40.726C67.4026 40.933 67.3946 41.098 67.3926 41.226C67.3926 41.281 67.3876 41.3359 67.3776 41.39Z" fill="#E0E0E0"/>
<path d="M67.3777 42.881H56.9407V47.66H67.3777V42.881Z" fill="#F5F5F5"/>
<path d="M67.3767 47.66C67.3652 47.545 67.3598 47.4295 67.3607 47.314L67.3417 46.354C67.3317 45.511 67.3177 44.33 67.2997 42.881L67.3767 42.958L56.9407 42.987C56.8407 43.087 57.0697 42.858 57.0457 42.881V43.506C57.0457 43.714 57.0457 43.9206 57.0457 44.126C57.0457 44.5373 57.0457 44.943 57.0457 45.343C57.0457 46.143 57.0457 46.917 57.0457 47.658L56.9457 47.558L64.4087 47.606L66.5837 47.634L67.1707 47.647C67.2413 47.6461 67.3118 47.6501 67.3817 47.659C67.3199 47.669 67.2573 47.673 67.1947 47.671L66.6277 47.684L64.4757 47.712L56.9447 47.76H56.8447V47.66C56.8447 46.919 56.8447 46.144 56.8447 45.345C56.8447 44.945 56.8447 44.5393 56.8447 44.128V42.883L56.9517 42.776L67.3877 42.805H67.4657V42.882C67.4487 44.35 67.4347 45.547 67.4247 46.402C67.4167 46.795 67.4097 47.108 67.4057 47.345C67.4036 47.4505 67.3939 47.5558 67.3767 47.66Z" fill="#E0E0E0"/>
<path d="M55.0957 31.906C51.2147 37.268 46.7487 42.298 42.8667 47.66L55.0957 31.906Z" fill="white"/>
<path d="M42.8667 47.66C42.8916 47.5969 42.9253 47.5377 42.9667 47.484L43.2937 47.004C43.5807 46.588 44.0097 45.997 44.5497 45.273C45.6267 43.824 47.1687 41.863 48.8957 39.718C50.6227 37.573 52.1817 35.628 53.2887 34.204L54.5967 32.515L54.9567 32.059C55.0407 31.959 55.0877 31.904 55.0937 31.908C55.0684 31.9709 55.0348 32.0301 54.9937 32.084L54.6667 32.564C54.3797 32.98 53.9507 33.571 53.4117 34.295C52.3347 35.745 50.7927 37.706 49.0657 39.851C47.3387 41.996 45.7797 43.94 44.6737 45.364L43.3657 47.053L43.0067 47.509C42.9672 47.5655 42.9201 47.6163 42.8667 47.66Z" fill="#E0E0E0"/>
<path d="M55.4048 47.66C55.3588 47.696 52.5148 44.193 49.0528 39.836C45.5908 35.479 42.8198 31.916 42.8658 31.879C42.9118 31.842 45.7558 35.345 49.2188 39.704C52.6818 44.063 55.4508 47.623 55.4048 47.66Z" fill="#E0E0E0"/>
<path d="M40.5697 31.912C40.5697 32.3 40.4547 32.6793 40.2391 33.002C40.0235 33.3246 39.7171 33.5761 39.3586 33.7246C39.0001 33.8731 38.6056 33.912 38.225 33.8363C37.8444 33.7606 37.4948 33.5737 37.2204 33.2993C36.946 33.0249 36.7592 32.6753 36.6835 32.2947C36.6077 31.9141 36.6466 31.5197 36.7951 31.1611C36.9436 30.8026 37.1951 30.4962 37.5177 30.2806C37.8404 30.065 38.2197 29.95 38.6078 29.95C39.1281 29.95 39.6272 30.1567 39.9951 30.5246C40.363 30.8926 40.5697 31.3916 40.5697 31.912Z" fill="#E0E0E0"/>
<path d="M72.6528 27.151C72.6528 27.539 72.5377 27.9184 72.3221 28.241C72.1065 28.5637 71.8001 28.8151 71.4416 28.9636C71.0831 29.1121 70.6886 29.151 70.308 29.0753C69.9274 28.9996 69.5778 28.8127 69.3034 28.5383C69.029 28.2639 68.8422 27.9143 68.7665 27.5337C68.6908 27.1531 68.7296 26.7587 68.8781 26.4001C69.0266 26.0416 69.2781 25.7352 69.6007 25.5196C69.9234 25.304 70.3027 25.189 70.6907 25.189C70.9484 25.1888 71.2036 25.2395 71.4417 25.3381C71.6798 25.4366 71.8962 25.5811 72.0784 25.7633C72.2606 25.9456 72.4051 26.1619 72.5037 26.4C72.6022 26.6381 72.6529 26.8933 72.6528 27.151Z" fill="#E0E0E0"/>
<path d="M149.389 40.813H126.783V73.579H149.389V40.813Z" fill="#E0E0E0"/>
<path d="M148.256 40.813H125.65V73.579H148.256V40.813Z" fill="#F5F5F5"/>
<path d="M145.448 44.362H128.459V70.03H145.448V44.362Z" fill="white"/>
<path d="M145.447 70.031C145.447 70.031 145.447 69.988 145.447 69.906C145.447 69.824 145.447 69.7 145.447 69.542C145.447 69.22 145.447 68.747 145.44 68.134C145.44 66.904 145.431 65.111 145.425 62.847C145.418 58.321 145.409 51.911 145.397 44.363L145.453 44.419L128.466 44.424L128.527 44.363C128.527 54.046 128.518 62.974 128.515 70.031L128.466 69.982L140.832 70.008L144.248 70.02L145.148 70.026C145.348 70.026 145.458 70.031 145.458 70.031C145.458 70.031 145.358 70.031 145.158 70.036L144.271 70.041L140.866 70.053L128.466 70.079H128.417V70.03C128.417 62.973 128.409 54.045 128.405 44.362V44.301H128.468L145.455 44.306H145.512V44.362C145.5 51.925 145.491 58.347 145.484 62.883C145.477 65.142 145.472 66.93 145.469 68.158C145.469 68.766 145.464 69.235 145.462 69.558C145.462 69.714 145.462 69.833 145.462 69.916C145.462 69.999 145.447 70.031 145.447 70.031Z" fill="#E0E0E0"/>
<path d="M148.319 40.813C148.204 41.0197 148.07 41.2155 147.919 41.398C147.656 41.749 147.284 42.227 146.858 42.743C146.432 43.259 146.035 43.717 145.741 44.043C145.59 44.227 145.423 44.3968 145.241 44.55C145.369 44.3503 145.514 44.1617 145.673 43.986L146.761 42.665L147.848 41.344C147.99 41.154 148.147 40.9764 148.319 40.813Z" fill="#E0E0E0"/>
<path d="M145.534 69.947C146.379 71.2901 147.373 72.5334 148.497 73.653L145.534 69.947Z" fill="white"/>
<path d="M148.497 73.653C148.309 73.5146 148.136 73.3571 147.98 73.183C147.193 72.3802 146.489 71.4997 145.88 70.555C145.745 70.3651 145.629 70.1617 145.536 69.948C145.688 70.1238 145.828 70.3106 145.953 70.507C146.202 70.856 146.553 71.335 146.961 71.846C147.369 72.357 147.761 72.804 148.046 73.124C148.209 73.2889 148.36 73.4657 148.497 73.653Z" fill="#E0E0E0"/>
<path d="M125.647 73.553L128.608 69.899L125.647 73.553Z" fill="white"/>
<path d="M128.608 69.899C127.685 71.1678 126.697 72.3874 125.647 73.553C126.57 72.2844 127.558 71.0647 128.608 69.899Z" fill="#E0E0E0"/>
<path d="M125.65 40.813C126.64 41.9318 127.567 43.1043 128.428 44.325C127.438 43.2059 126.511 42.0335 125.65 40.813Z" fill="#E0E0E0"/>
<path d="M140.154 49.574H134.466V65.725H140.154V49.574Z" fill="#E0E0E0"/>
<path d="M144.177 6.00363L140.941 6.02097L141.027 22.1227L144.263 22.1054L144.177 6.00363Z" fill="#E0E0E0"/>
<path d="M121.287 6.05006L112.907 6.09196L112.951 14.981L121.331 14.9391L121.287 6.05006Z" fill="#EBEBEB"/>
<path d="M129.627 6.00207L121.247 6.04697L121.294 14.9358L129.674 14.8909L129.627 6.00207Z" fill="#F5F5F5"/>
<path d="M122.908 14.7874L107.683 14.869L107.722 22.1129L122.946 22.0313L122.908 14.7874Z" fill="#EBEBEB"/>
<path d="M138.06 14.7064L122.836 14.788L122.875 22.0319L138.099 21.9503L138.06 14.7064Z" fill="#F5F5F5"/>
<path d="M107.69 16.883C117.804 16.998 127.954 16.895 138.067 16.733C138.09 16.733 138.113 16.7236 138.13 16.7069C138.146 16.6902 138.156 16.6676 138.156 16.644C138.156 16.6204 138.146 16.5977 138.13 16.581C138.113 16.5644 138.09 16.555 138.067 16.555C127.952 16.502 117.802 16.508 107.69 16.731C107.669 16.731 107.65 16.739 107.636 16.7534C107.621 16.7677 107.613 16.7872 107.613 16.8075C107.613 16.8278 107.621 16.8472 107.636 16.8616C107.65 16.8759 107.669 16.884 107.69 16.884V16.883Z" fill="#E0E0E0"/>
<path d="M160.985 22.113H102V24.708H160.985V22.113Z" fill="#E0E0E0"/>
<path d="M114.052 23.361H111.657V32.216H114.052V23.361Z" fill="#E0E0E0"/>
<path d="M149.797 23.361H147.402V32.216H149.797V23.361Z" fill="#E0E0E0"/>
<path d="M147.335 0.000787773L144.099 0.0169678L144.209 22.163L147.445 22.1468L147.335 0.000787773Z" fill="#EBEBEB"/>
<path d="M152.391 4.12203L147.363 4.14897L147.459 22.0957L152.487 22.0688L152.391 4.12203Z" fill="#F5F5F5"/>
<path d="M152.361 19.368C150.687 19.4838 149.007 19.4838 147.333 19.368C149.007 19.2516 150.687 19.2516 152.361 19.368Z" fill="#E0E0E0"/>
<path d="M152.361 18.614C150.687 18.7303 149.007 18.7303 147.333 18.614C149.007 18.4981 150.687 18.4981 152.361 18.614Z" fill="#E0E0E0"/>
<path d="M149.924 16.97C149.876 16.97 149.837 15.159 149.837 12.926C149.837 10.693 149.876 8.88197 149.924 8.88197C149.972 8.88197 150.011 10.692 150.011 12.926C150.011 15.16 149.975 16.97 149.924 16.97Z" fill="#E0E0E0"/>
<path d="M157.884 8.52898H152.411V22.075H157.884V8.52898Z" fill="#EBEBEB"/>
<path d="M155.302 18.562C155.14 18.5689 154.978 18.5421 154.827 18.4834C154.676 18.4247 154.538 18.3353 154.423 18.2209C154.308 18.1064 154.219 17.9695 154.159 17.8185C154.1 17.6676 154.072 17.506 154.079 17.344C154.07 17.1667 154.106 16.9901 154.183 16.8303C154.261 16.6706 154.377 16.5329 154.522 16.43L154.646 16.601C154.53 16.686 154.436 16.7982 154.373 16.9277C154.31 17.0572 154.28 17.2001 154.286 17.344C154.294 17.6078 154.405 17.858 154.594 18.0417C154.784 18.2254 155.037 18.3281 155.301 18.3281C155.565 18.3281 155.819 18.2254 156.008 18.0417C156.198 17.858 156.308 17.6078 156.317 17.344C156.322 17.2001 156.292 17.0572 156.229 16.9276C156.166 16.7981 156.073 16.6859 155.957 16.601L156.082 16.43C156.226 16.5336 156.341 16.6714 156.419 16.831C156.496 16.9906 156.532 17.1668 156.525 17.344C156.53 17.5059 156.503 17.6673 156.443 17.818C156.384 17.9687 156.294 18.1055 156.179 18.2199C156.064 18.3342 155.927 18.4236 155.776 18.4825C155.625 18.5413 155.464 18.5684 155.302 18.562Z" fill="#FAFAFA"/>
<path d="M156.216 16.094L156.031 15.988C156.222 15.7394 156.325 15.4337 156.322 15.12C156.322 14.612 156.142 14.41 155.869 14.41C155.169 14.41 155.684 16.01 154.738 16.01C154.373 16.01 154.078 15.71 154.078 15.096C154.073 14.8035 154.154 14.5161 154.313 14.27L154.498 14.376C154.352 14.5888 154.276 14.8419 154.281 15.1C154.281 15.571 154.475 15.779 154.733 15.779C155.458 15.779 154.945 14.179 155.864 14.179C156.257 14.179 156.524 14.516 156.524 15.13C156.535 15.4771 156.426 15.8176 156.216 16.094Z" fill="#FAFAFA"/>
<path d="M156.216 13.888L156.029 13.781C156.22 13.5324 156.323 13.2267 156.32 12.913C156.32 12.406 156.14 12.202 155.867 12.202C155.167 12.202 155.682 13.802 154.736 13.802C154.371 13.802 154.076 13.502 154.076 12.888C154.071 12.5955 154.152 12.3081 154.311 12.062L154.496 12.168C154.35 12.3811 154.274 12.6346 154.279 12.893C154.279 13.363 154.473 13.571 154.731 13.571C155.456 13.571 154.943 11.971 155.862 11.971C156.255 11.971 156.522 12.308 156.522 12.922C156.534 13.2696 156.426 13.6108 156.216 13.888Z" fill="#FAFAFA"/>
<path d="M145.957 6.33897H145.382V19.513H145.957V6.33897Z" fill="#E0E0E0"/>
<path d="M167.77 159.603C167.77 159.659 130.47 159.703 84.477 159.703C38.465 159.703 1.177 159.658 1.177 159.603C1.177 159.548 38.465 159.503 84.477 159.503C130.474 159.503 167.77 159.543 167.77 159.603Z" fill="#263238"/>
<path d="M46.2821 26.857C43.2557 31.8002 41.7365 37.5187 41.9105 43.3121C42.0846 49.1055 43.9444 54.7225 47.2621 59.475C51.7751 65.713 58.5461 69.894 63.9221 75.406C69.2981 80.918 73.3811 89.04 70.5441 96.198C67.6561 103.485 59.1961 106.449 52.8611 111.065C45.8749 116.155 41.1323 123.754 39.629 132.266C38.1258 140.778 39.9788 149.541 44.7991 156.716H110.605C110.605 156.716 122.165 134.685 107.305 117.896C92.4451 101.107 84.4571 100.832 85.0081 89.819C85.5591 78.806 93.2651 75.232 97.6691 71.103C102.073 66.974 123.541 57.341 110.88 26.853L46.2821 26.857Z" fill="#FAFAFA"/>
<path d="M46.2821 26.857C46.2821 26.857 46.6641 26.851 47.4151 26.848L50.7511 26.839L63.5921 26.821L110.879 26.786H110.928L110.945 26.83C111.908 29.1528 112.727 31.5327 113.397 33.956C114.108 36.4869 114.577 39.0795 114.797 41.699C115.023 44.4301 114.883 47.1791 114.38 49.873C113.826 52.6654 112.821 55.349 111.406 57.819C110.672 59.0798 109.843 60.2832 108.927 61.419C107.989 62.5658 106.976 63.6492 105.895 64.662C104.798 65.6903 103.649 66.6625 102.454 67.575C101.254 68.501 100.007 69.375 98.7861 70.302C98.1751 70.763 97.6171 71.28 97.0341 71.802C96.4511 72.324 95.8461 72.802 95.2341 73.286C94.0181 74.259 92.7901 75.231 91.6341 76.296C89.2179 78.3912 87.362 81.0555 86.2341 84.048C85.6883 85.5767 85.3424 87.1696 85.2051 88.787C85.1721 89.194 85.1181 89.6 85.1051 90.009C85.0921 90.418 85.0741 90.828 85.0931 91.237C85.1034 92.0587 85.1861 92.8779 85.3401 93.685C85.6553 95.3158 86.33 96.8558 87.3151 98.193C88.3254 99.538 89.4689 100.778 90.7281 101.893C93.2281 104.177 95.8761 106.358 98.4151 108.712C100.954 111.066 103.443 113.525 105.829 116.123C107.049 117.41 108.192 118.769 109.251 120.192C110.313 121.635 111.237 123.176 112.01 124.792C113.575 128.071 114.535 131.606 114.844 135.227C115.16 138.895 114.944 142.59 114.203 146.197C113.844 148.018 113.372 149.816 112.791 151.579C112.22 153.36 111.521 155.098 110.702 156.779L110.675 156.833H108.908H44.7961H44.7451L44.7171 156.79C41.6282 152.137 39.7359 146.792 39.2081 141.232C38.6725 135.898 39.4543 130.514 41.4851 125.553C43.4165 120.811 46.3899 116.565 50.1851 113.128C52.0258 111.503 54.0141 110.052 56.1241 108.796C58.1781 107.521 60.2501 106.341 62.2091 105.051C64.1681 103.826 65.9672 102.362 67.5651 100.693C69.0953 99.0567 70.2295 97.0909 70.8801 94.947C71.4523 92.8568 71.5415 90.6638 71.1411 88.534C70.7624 86.4766 70.0767 84.4877 69.1071 82.634C68.1818 80.846 67.0717 79.1598 65.7951 77.603C64.5617 76.1142 63.2222 74.7165 61.7871 73.421C59.0011 70.856 56.1511 68.614 53.5871 66.309C52.3021 65.159 51.0871 63.998 49.9631 62.809C48.8744 61.6504 47.8717 60.4137 46.9631 59.109C45.3141 56.7183 44.0442 54.0873 43.1981 51.309C42.4541 48.9109 42.0232 46.4266 41.9161 43.918C41.8621 43.343 41.8841 42.78 41.8841 42.229C41.8841 41.678 41.8751 41.141 41.9311 40.619C41.9717 40.0964 42.0111 39.587 42.0491 39.091C42.1081 38.598 42.1901 38.12 42.2561 37.654C42.681 34.8038 43.552 32.0383 44.8371 29.459C45.0144 29.0649 45.2148 28.6816 45.4371 28.311L45.9091 27.506C46.1621 27.075 46.2931 26.86 46.2931 26.86L45.9201 27.519L45.4571 28.326C45.24 28.6972 45.0443 29.0805 44.8711 29.474C43.6009 32.0548 42.7416 34.8181 42.3241 37.664C42.2591 38.129 42.1791 38.606 42.1241 39.098C42.0874 39.5934 42.0494 40.1017 42.0101 40.623C41.9541 41.144 41.9721 41.68 41.9661 42.229C41.9601 42.778 41.9461 43.34 42.0021 43.913C42.1138 46.4144 42.548 48.8909 43.2941 51.281C44.1414 54.0491 45.4107 56.6699 47.0571 59.051C47.966 60.3515 48.9686 61.5837 50.0571 62.738C51.1761 63.926 52.3931 65.083 53.6781 66.229C56.2441 68.529 59.0971 70.767 61.8901 73.329C63.3314 74.6275 64.6769 76.0285 65.9161 77.521C67.2004 79.0844 68.3175 80.778 69.2491 82.574C70.2266 84.4388 70.9187 86.4398 71.3021 88.51C71.7078 90.6625 71.6189 92.879 71.0421 94.992C70.386 97.1595 69.2413 99.1475 67.6961 100.803C66.0906 102.483 64.2824 103.957 62.3131 105.19C60.3491 106.49 58.2761 107.667 56.2261 108.942C54.1256 110.194 52.1464 111.64 50.3141 113.259C46.5412 116.68 43.586 120.906 41.6671 125.624C39.6496 130.559 38.8742 135.913 39.4091 141.217C39.9402 146.737 41.8238 152.042 44.8931 156.661L44.8131 156.619H108.925H110.608L110.519 156.673C111.333 155.002 112.027 153.276 112.596 151.506C113.175 149.751 113.644 147.961 114.002 146.148C114.739 142.56 114.955 138.884 114.641 135.235C114.334 131.638 113.381 128.126 111.827 124.867C111.059 123.262 110.142 121.732 109.087 120.298C108.033 118.881 106.895 117.527 105.679 116.245C103.297 113.651 100.83 111.184 98.2791 108.845C95.7441 106.493 93.0991 104.315 90.5941 102.024C89.3259 100.901 88.1741 99.653 87.1561 98.299C86.1558 96.9394 85.4705 95.3743 85.1501 93.717C84.9946 92.8989 84.9113 92.0687 84.9011 91.236C84.8821 90.821 84.9011 90.408 84.9131 89.995C84.9251 89.582 84.9831 89.173 85.0131 88.763C85.1527 87.1305 85.5026 85.5229 86.0541 83.98C87.195 80.9598 89.0705 78.2715 91.5111 76.158C92.6771 75.088 93.9111 74.113 95.1251 73.142C95.7331 72.657 96.3341 72.168 96.9161 71.663C97.4981 71.158 98.0621 70.624 98.6781 70.163C99.9051 69.235 101.152 68.363 102.347 67.438C103.538 66.5296 104.683 65.5617 105.776 64.538C106.852 63.5308 107.86 62.4534 108.794 61.313C109.705 60.1832 110.529 58.9861 111.259 57.732C112.667 55.2789 113.667 52.6131 114.22 49.839C114.722 47.1596 114.864 44.425 114.641 41.708C114.424 39.0979 113.96 36.5143 113.254 33.992C112.587 31.5742 111.773 29.1997 110.814 26.882L110.88 26.926L63.6211 26.891L50.7701 26.872L47.4261 26.863C46.6711 26.863 46.2821 26.857 46.2821 26.857Z" fill="#263238"/>
<path d="M108.253 44.734C117.945 46.327 102.664 63.493 94.013 70.266C89.004 74.188 83.626 78.442 81.247 84.342C78.547 91.036 80.547 98.56 79.241 105.294C79.1944 105.522 79.0643 105.725 78.8761 105.863C78.6879 106 78.4552 106.062 78.2235 106.037C77.9918 106.012 77.7778 105.902 77.6232 105.727C77.4687 105.553 77.3849 105.327 77.388 105.094C77.5255 100.683 77.2624 96.2685 76.602 91.905C75.563 85.733 73.191 79.628 68.865 75.105C65.334 71.413 60.704 68.96 56.938 65.505C51.438 60.466 45.791 53.966 45.238 46.528C45.238 46.528 55.796 38.028 61.657 39.097C68.506 40.352 75.248 50.92 85.857 49.71C93.271 48.87 97.01 42.886 108.253 44.734Z" fill="#E8505B"/>
<path d="M109.113 136.613C108.868 134.189 108.222 131.446 106.071 130.303C104.712 129.69 103.173 129.604 101.754 130.063C100.327 130.439 98.9861 131.087 97.5711 131.507C94.7624 132.333 91.7629 132.238 89.0121 131.236C86.3821 130.27 84.1251 128.524 81.6841 127.151C79.2431 125.778 76.3841 124.751 73.6651 125.432C68.9771 126.599 66.5381 132.242 61.9031 133.605C59.7976 134.075 57.6072 134.004 55.5371 133.396C53.4752 132.79 51.3434 132.454 49.1951 132.396C47.4915 132.418 45.8538 133.058 44.5861 134.196L44.5981 134.18C44.5861 134.192 44.5761 134.205 44.5641 134.217C44.3696 134.409 44.192 134.618 44.0331 134.84C43.3708 135.834 42.9203 136.953 42.7095 138.129C42.4988 139.305 42.5323 140.511 42.8081 141.673C43.4096 144.276 44.4342 146.763 45.8411 149.035C47.3881 151.768 49.1411 154.49 51.7041 156.312C54.8591 158.56 58.8281 157.012 62.6911 157.312C71.9029 158.183 81.1678 158.35 90.4051 157.812C95.1651 157.443 99.6261 157.959 103.405 155.039C106.023 152.891 107.858 149.938 108.624 146.639C109.374 143.352 109.539 139.958 109.113 136.613Z" fill="#E8505B"/>
<g opacity="0.24">
<g opacity="0.24">
<path opacity="0.24" d="M92.1101 131.97C91.8315 132.34 91.6619 132.781 91.6204 133.243C91.5789 133.705 91.6671 134.169 91.8751 134.583C92.4573 135.309 92.9185 136.125 93.2411 136.998C93.5751 138.421 92.7191 139.812 92.0791 141.126C90.901 143.481 90.4562 146.135 90.8021 148.745C91.1676 151.364 92.5202 153.744 94.5831 155.398C95.0084 155.791 95.5206 156.078 96.0779 156.236C96.6351 156.394 97.2218 156.418 97.7901 156.306C98.2967 156.103 98.7407 155.769 99.0771 155.34C99.4136 154.91 99.6305 154.399 99.7061 153.858C99.8435 152.777 99.8098 151.681 99.6061 150.61C98.9769 145.59 99.1054 140.503 99.9871 135.521C100.119 135.12 100.166 134.696 100.125 134.276C100.083 133.856 99.9553 133.449 99.7481 133.081C99.3715 132.691 98.8908 132.416 98.3631 132.291C96.3551 131.623 94.1871 132.366 92.1081 131.971" fill="black"/>
</g>
</g>
<path d="M39.9681 159.704C39.9681 159.704 39.7871 156.684 43.7261 155.004H112.941C112.941 155.004 116.55 156.83 116.994 159.643L39.9681 159.704Z" fill="#263238"/>
<path d="M111.475 27.224L111.365 27.275L46.2811 26.856C46.2811 26.856 46.0501 26.708 45.7041 26.437C45.2989 26.1193 45.0032 25.6828 44.8585 25.1886C44.7138 24.6945 44.7273 24.1674 44.897 23.6813C45.0668 23.1952 45.3843 22.7743 45.8052 22.4777C46.2261 22.1811 46.7292 22.0235 47.2441 22.027L110.412 22.537C110.969 22.5399 111.509 22.7314 111.944 23.0803C112.378 23.4292 112.682 23.9149 112.805 24.4583C112.928 25.0018 112.864 25.571 112.622 26.0732C112.381 26.5754 111.977 26.981 111.475 27.224Z" fill="#263238"/>
<g opacity="0.24">
<g opacity="0.24">
<path opacity="0.24" d="M101.059 52.052C101.19 52.303 100.701 52.846 99.769 53.674C98.837 54.502 97.469 55.64 95.729 57.04C93.6645 58.7446 91.4732 60.2894 89.174 61.661C87.7416 62.4877 86.235 63.1787 84.674 63.725C83.8287 64.0177 82.9656 64.2562 82.09 64.439C81.1709 64.6366 80.237 64.758 79.298 64.802C77.3958 64.9069 75.4912 64.6466 73.687 64.035C72.0937 63.4599 70.5789 62.6872 69.178 61.735C67.878 60.875 66.762 60.026 65.708 59.213C64.654 58.4 63.701 57.613 62.846 56.874C59.427 53.912 57.629 51.734 57.976 51.313C58.334 50.876 60.754 52.261 64.526 54.579L67.607 56.471C68.712 57.144 69.901 57.887 71.114 58.571C72.3157 59.2778 73.5896 59.8537 74.914 60.289C76.2696 60.6961 77.6859 60.863 79.099 60.782C82.0079 60.5386 84.8401 59.723 87.433 58.382C89.933 57.156 92.178 55.769 94.133 54.675C95.6797 53.7617 97.2969 52.9732 98.969 52.317C100.189 51.89 100.933 51.811 101.059 52.052Z" fill="black"/>
</g>
</g>
<path d="M77.4372 113.36C77.71 113.264 78.0096 113.28 78.2712 113.403C78.5327 113.526 78.7352 113.748 78.8347 114.019C78.9342 114.291 78.9228 114.591 78.803 114.854C78.6831 115.117 78.4644 115.322 78.1943 115.425C77.9241 115.529 77.6242 115.521 77.3594 115.405C77.0947 115.289 76.8864 115.073 76.7796 114.804C76.6728 114.535 76.6762 114.235 76.789 113.969C76.9018 113.703 77.1149 113.491 77.3822 113.381" fill="#E8505B"/>
<path d="M54.157 62.822C54.0741 62.7512 53.9972 62.6736 53.927 62.59L53.297 61.899C53.031 61.592 52.68 61.238 52.322 60.785L51.093 59.256C50.673 58.662 50.193 58.023 49.718 57.315L49.013 56.192C48.894 55.998 48.764 55.806 48.649 55.602L48.31 54.975C47.2811 53.154 46.4753 51.2158 45.91 49.202C45.3411 47.1879 45.0352 45.1087 45 43.016C45 42.535 45.025 42.065 45.036 41.609C45.046 41.381 45.043 41.156 45.065 40.936L45.135 40.287C45.184 39.862 45.218 39.449 45.275 39.056L45.475 37.932C45.585 37.212 45.775 36.58 45.912 36.019C45.986 35.74 46.044 35.477 46.118 35.241L46.328 34.598L46.628 33.711C46.6588 33.608 46.6979 33.5077 46.745 33.411C46.7276 33.519 46.7015 33.6253 46.667 33.729L46.406 34.629L46.213 35.275C46.145 35.512 46.093 35.775 46.024 36.055C45.899 36.617 45.719 37.248 45.618 37.966L45.428 39.086C45.375 39.478 45.346 39.886 45.301 40.311L45.237 40.957C45.216 41.176 45.222 41.4 45.213 41.626C45.206 42.079 45.182 42.545 45.186 43.026C45.2316 45.1013 45.54 47.1624 46.104 49.16C46.6647 51.1591 47.4592 53.0851 48.471 54.898L48.805 55.523C48.919 55.723 49.046 55.923 49.163 56.112L49.856 57.235C50.327 57.944 50.795 58.586 51.206 59.183L52.406 60.726C52.755 61.185 53.096 61.546 53.353 61.86L53.953 62.576C54.0274 62.6525 54.0956 62.7348 54.157 62.822Z" fill="#263238"/>
<path d="M50.4941 120.188C50.514 120.143 50.5381 120.101 50.5661 120.061L50.7961 119.698L51.1761 119.111L51.4201 118.737C51.5151 118.609 51.6261 118.481 51.7391 118.337L52.4971 117.411C52.7971 117.091 53.1351 116.759 53.4971 116.394C54.3317 115.594 55.2173 114.849 56.1481 114.163C58.1981 112.609 60.8421 111.063 63.7081 109.263C65.2138 108.334 66.6615 107.314 68.0431 106.209C69.5247 105.026 70.834 103.643 71.9331 102.098C73.941 99.012 75.0316 95.4195 75.0781 91.738C75.1268 88.7389 74.6252 85.7563 73.5981 82.938C72.9162 81.0348 72.0599 79.1987 71.0401 77.453C70.6821 76.833 70.3891 76.36 70.1861 76.042L69.9591 75.678C69.931 75.6378 69.9069 75.595 69.8871 75.55C69.9203 75.5862 69.9501 75.6254 69.9761 75.667L70.2201 76.02C70.4341 76.331 70.7381 76.798 71.1071 77.414C72.1571 79.1506 73.0362 80.9848 73.7321 82.891C74.7853 85.7224 75.3044 88.7245 75.2631 91.745C75.2483 92.6154 75.1772 93.4839 75.0501 94.345C74.9258 95.2464 74.737 96.1377 74.4851 97.012C73.969 98.8604 73.1637 100.615 72.0991 102.212C70.9892 103.773 69.6656 105.17 68.1671 106.363C66.7779 107.471 65.3214 108.493 63.8061 109.421C60.9291 111.221 58.2841 112.745 56.2321 114.277C55.3009 114.954 54.4132 115.689 53.5741 116.477C53.2161 116.836 52.8741 117.162 52.5741 117.477L51.8071 118.387C51.6931 118.524 51.5801 118.65 51.4821 118.776L51.2321 119.143L50.8371 119.718L50.5911 120.07C50.5625 120.112 50.53 120.152 50.4941 120.188Z" fill="#263238"/>
<path d="M46.902 127.011C46.8817 127.074 46.8531 127.134 46.817 127.19L46.542 127.681C46.418 127.891 46.27 128.151 46.121 128.464C45.972 128.777 45.776 129.12 45.614 129.526L45.342 130.154C45.249 130.373 45.173 130.609 45.082 130.849C44.893 131.326 44.747 131.849 44.582 132.405C43.9115 134.818 43.6808 137.332 43.901 139.827C43.965 140.399 44.013 140.945 44.111 141.448C44.157 141.7 44.188 141.948 44.24 142.178L44.393 142.845C44.479 143.273 44.606 143.645 44.698 143.981C44.79 144.317 44.885 144.598 44.969 144.828L45.15 145.361C45.1756 145.422 45.1928 145.486 45.201 145.552C45.1636 145.498 45.134 145.439 45.113 145.376L44.896 144.855C44.7808 144.581 44.6806 144.3 44.596 144.015C44.496 143.682 44.355 143.308 44.26 142.879C44.2067 142.665 44.151 142.442 44.093 142.21C44.037 141.977 44.001 141.73 43.951 141.476C43.844 140.97 43.79 140.42 43.72 139.843C43.4769 137.326 43.71 134.785 44.407 132.354C44.58 131.8 44.734 131.269 44.931 130.79C45.026 130.55 45.106 130.313 45.204 130.09L45.49 129.463C45.662 129.063 45.865 128.716 46.028 128.407C46.1649 128.142 46.3161 127.885 46.481 127.637L46.789 127.164C46.8197 127.108 46.8577 127.057 46.902 127.011Z" fill="#263238"/>
<path d="M94.6421 136.29C94.6187 136.312 94.5925 136.332 94.5641 136.347L94.3231 136.498L93.3861 137.061L92.7061 137.461C92.4531 137.6 92.1681 137.733 91.8671 137.885C91.2601 138.178 90.5851 138.551 89.7901 138.852L88.5561 139.358C88.1251 139.531 87.6561 139.664 87.1891 139.828C86.2491 140.171 85.2091 140.416 84.1211 140.699C79.356 141.81 74.4146 141.939 69.5981 141.078C68.4981 140.851 67.4451 140.661 66.4881 140.368C66.0081 140.23 65.5371 140.121 65.0981 139.968L63.8401 139.527C63.0301 139.269 62.3401 138.927 61.7151 138.67C61.4061 138.534 61.1151 138.416 60.8551 138.29L60.1551 137.923L59.1901 137.41L58.9421 137.272C58.9341 137.281 58.9231 137.287 58.911 137.288C58.899 137.29 58.8869 137.287 58.877 137.28C58.8671 137.273 58.8601 137.263 58.8574 137.251C58.8547 137.239 58.8565 137.227 58.8624 137.216C58.8682 137.205 58.8778 137.197 58.8893 137.193C58.9007 137.19 58.9132 137.19 58.9243 137.195C58.9355 137.199 58.9445 137.208 58.9496 137.219C58.9547 137.23 58.9556 137.242 58.9521 137.254L59.2101 137.374L60.1901 137.853L60.8961 138.203C61.1571 138.323 61.4511 138.435 61.7601 138.566C62.3841 138.816 63.0781 139.143 63.8881 139.392L65.1451 139.819C65.5831 139.964 66.0531 140.069 66.5321 140.204C67.4861 140.489 68.5321 140.672 69.6321 140.892C74.4256 141.728 79.3376 141.599 84.0811 140.515C85.1641 140.238 86.2011 140.001 87.1381 139.666C87.6091 139.507 88.0731 139.378 88.5031 139.21L89.7361 138.718C90.5361 138.427 91.2081 138.065 91.8181 137.782C92.1181 137.635 92.4071 137.508 92.6621 137.374L93.3491 136.987L94.3031 136.458L94.5541 136.324C94.5817 136.309 94.6113 136.297 94.6421 136.29Z" fill="#263238"/>
<path d="M98.6691 54.57C98.6449 54.5986 98.6174 54.6241 98.5871 54.646L98.3341 54.854L97.3481 55.641C96.4891 56.32 95.2481 57.305 93.6771 58.479C91.8467 59.8682 89.9283 61.1375 87.9341 62.279C86.7468 62.941 85.5097 63.5094 84.2341 63.979C82.8581 64.4798 81.4226 64.7992 79.9641 64.929C77.1287 65.0862 74.3015 64.498 71.7641 63.223C70.6678 62.6654 69.6095 62.0361 68.5961 61.339C67.6531 60.674 66.7961 60.03 66.0311 59.413C64.5021 58.186 63.3041 57.148 62.4721 56.436L61.5181 55.611L61.2731 55.393C61.2434 55.3698 61.2169 55.343 61.1941 55.313C61.2272 55.3307 61.2581 55.3521 61.2861 55.377L61.5441 55.577L62.5221 56.377C63.3701 57.07 64.5811 58.092 66.1221 59.302C66.8881 59.911 67.7511 60.546 68.6931 61.202C69.704 61.8877 70.7582 62.5073 71.8491 63.057C74.3607 64.308 77.1545 64.8842 79.9561 64.729C81.3961 64.6008 82.8136 64.2869 84.1731 63.795C85.44 63.3306 86.6693 62.7693 87.8501 62.116C89.8419 60.9867 91.7616 59.7346 93.5981 58.367C95.1761 57.21 96.4311 56.242 97.3051 55.582L98.3141 54.825L98.5801 54.632C98.6073 54.6081 98.6372 54.5873 98.6691 54.57Z" fill="#263238"/>
<g opacity="0.24">
<g opacity="0.24">
<path opacity="0.24" d="M63.845 139.535C65.674 138.122 68.245 138.465 70.508 138.935C72.771 139.405 75.049 140.184 77.338 139.864C79.063 139.623 80.646 138.774 82.349 138.405C84.052 138.036 86.118 138.305 87.061 139.773C79.5002 142.208 71.3533 142.123 63.845 139.531" fill="black"/>
</g>
</g>
<path d="M127.699 129.057L119.383 119.746L119.299 131.064L121.799 138.323L96.9239 142.638L95.8689 123.011L94.0779 107.937C93.9712 107.039 94.1651 106.131 94.6291 105.354C95.0932 104.578 95.8013 103.977 96.6429 103.646L103.488 100.946L113.13 102.715L117.009 104.189C118.637 104.808 120.089 105.818 121.236 107.129L132.912 120.481" fill="#E8505B"/>
<path d="M118.801 117.514C119.269 117.506 119.736 117.472 120.201 117.414C121.32 117.241 122.363 116.739 123.196 115.971C124.029 115.203 124.614 114.204 124.877 113.102C124.972 112.642 125.043 112.177 125.089 111.71C125.12 111.835 125.132 111.964 125.124 112.092C125.125 112.442 125.088 112.792 125.015 113.134C124.781 114.281 124.192 115.325 123.332 116.118C122.471 116.912 121.383 117.414 120.221 117.554C119.874 117.599 119.523 117.607 119.174 117.578C119.047 117.576 118.921 117.555 118.801 117.514Z" fill="white"/>
<path d="M119.529 130.582C119.587 130.582 119.602 126.66 119.563 121.825C119.524 116.99 119.444 113.069 119.386 113.069C119.328 113.069 119.313 116.989 119.352 121.827C119.391 126.665 119.474 130.583 119.529 130.582Z" fill="#263238"/>
<path d="M118.617 133.459L103.586 127.408C102.992 127.169 102.476 126.768 102.098 126.251C101.719 125.734 101.493 125.122 101.444 124.483L100.344 110.072C100.344 110.072 100.474 103.943 96.6439 103.645L94.4659 104.503C91.6509 105.998 90.9539 110.096 91.3369 113.26C91.8809 117.76 92.1079 124.118 92.7169 128.02C93.2169 131.212 95.0429 134.02 98.1669 134.842L116.68 138.85L118.617 133.459Z" fill="#E8505B"/>
<path d="M100.56 112.272C100.585 112.381 100.6 112.491 100.607 112.602L100.707 113.552C100.784 114.397 100.892 115.586 101.025 117.047C101.152 118.529 101.303 120.284 101.47 122.232C101.511 122.72 101.553 123.22 101.596 123.732C101.624 124.25 101.688 124.765 101.788 125.274C101.892 125.79 102.153 126.262 102.535 126.625C102.948 126.986 103.416 127.277 103.922 127.488C108.067 129.282 111.886 130.762 114.659 131.801L117.951 133.014L118.851 133.344C118.957 133.378 119.06 133.42 119.159 133.471C119.05 133.45 118.942 133.42 118.838 133.382L117.93 133.087C117.143 132.826 116.009 132.436 114.615 131.934C111.826 130.928 108 129.47 103.843 127.671C103.317 127.451 102.83 127.147 102.402 126.771C101.993 126.381 101.714 125.874 101.602 125.32C101.501 124.802 101.437 124.277 101.41 123.75C101.369 123.239 101.33 122.739 101.291 122.25C101.14 120.301 101.004 118.544 100.891 117.06L100.637 113.56C100.612 113.16 100.593 112.842 100.578 112.607C100.563 112.496 100.557 112.384 100.56 112.272Z" fill="#263238"/>
<path d="M91.9479 120.105C91.9665 120.168 91.9766 120.233 91.9779 120.298L92.0279 120.854C92.0729 121.368 92.1329 122.054 92.2059 122.899C92.2889 123.762 92.3929 124.788 92.5429 125.922C92.6908 127.152 92.9176 128.372 93.2219 129.573C93.3635 130.191 93.6119 130.78 93.9559 131.313C94.2883 131.806 94.6641 132.267 95.0789 132.693C95.7812 133.415 96.5928 134.023 97.4839 134.493C98.3141 134.915 99.2046 135.207 100.124 135.357C100.058 135.366 99.9902 135.366 99.9239 135.357C99.7372 135.346 99.5514 135.322 99.3679 135.286C98.6891 135.158 98.0316 134.936 97.4149 134.625C96.4984 134.164 95.6634 133.556 94.9429 132.825C94.5164 132.394 94.1301 131.926 93.7889 131.425C93.4304 130.875 93.1718 130.265 93.0249 129.625C92.718 128.415 92.4948 127.186 92.3569 125.945C92.2169 124.805 92.1259 123.775 92.0619 122.91C91.9979 122.045 91.9619 121.343 91.9469 120.858C91.9469 120.635 91.9379 120.45 91.9349 120.299C91.9303 120.234 91.9346 120.169 91.9479 120.105Z" fill="#263238"/>
<path d="M98.375 130.189C98.4137 129.907 98.5068 129.635 98.649 129.389C98.9586 128.774 99.3878 128.228 99.9114 127.782C100.435 127.335 101.042 126.998 101.698 126.789C101.964 126.688 102.247 126.638 102.532 126.644C102.538 126.678 102.223 126.744 101.745 126.923C100.493 127.403 99.4442 128.299 98.774 129.46C98.519 129.903 98.408 130.203 98.375 130.189Z" fill="#263238"/>
<path d="M101.332 119.23C101.367 119.239 101.401 119.253 101.432 119.272L101.701 119.413C102.049 119.587 102.407 119.739 102.774 119.868C104.125 120.341 105.574 120.465 106.986 120.228C109.084 119.854 110.959 118.689 112.223 116.974C112.978 115.985 113.452 114.81 113.594 113.574C113.664 112.925 113.595 112.268 113.394 111.647C113.181 111.011 112.807 110.441 112.31 109.991C111.824 109.531 111.208 109.232 110.546 109.133C110.233 109.077 109.91 109.092 109.604 109.179C109.297 109.266 109.015 109.421 108.777 109.633C108.67 109.737 108.584 109.861 108.525 109.999C108.466 110.136 108.434 110.284 108.432 110.433C108.438 110.732 108.54 111.022 108.722 111.259C109.106 111.718 109.656 112.005 110.251 112.059C111.369 112.204 112.505 112.042 113.537 111.589C114.363 111.238 115.101 110.71 115.7 110.041C116.298 109.372 116.741 108.58 116.998 107.72C117.178 107.134 117.274 106.525 117.284 105.912C117.289 105.524 117.261 105.136 117.2 104.753L117.145 104.453C117.137 104.42 117.132 104.387 117.132 104.353C117.293 104.858 117.371 105.385 117.362 105.915C117.366 106.537 117.28 107.157 117.106 107.755C116.877 108.551 116.493 109.294 115.976 109.941C115.289 110.778 114.401 111.428 113.395 111.83C112.39 112.232 111.299 112.373 110.224 112.241C109.905 112.213 109.594 112.121 109.31 111.973C109.026 111.824 108.774 111.621 108.568 111.375C108.359 111.105 108.243 110.775 108.237 110.434C108.239 110.259 108.275 110.086 108.344 109.925C108.412 109.764 108.512 109.618 108.637 109.495C108.896 109.261 109.205 109.09 109.54 108.993C109.876 108.897 110.228 108.878 110.572 108.939C111.274 109.043 111.928 109.359 112.445 109.846C112.968 110.319 113.359 110.919 113.583 111.588C113.793 112.236 113.863 112.92 113.79 113.597C113.643 114.871 113.153 116.08 112.372 117.097C111.3 118.559 109.779 119.63 108.04 120.146C106.302 120.662 104.443 120.594 102.747 119.954C102.246 119.775 101.77 119.532 101.332 119.23Z" fill="white"/>
<path d="M91.4858 115.387C91.5526 115.273 91.6359 115.169 91.7328 115.079C91.98 114.818 92.252 114.581 92.5449 114.373C93.5303 113.695 94.6772 113.288 95.8698 113.195C96.5235 113.122 97.1846 113.149 97.8299 113.277C98.3546 113.386 98.8624 113.565 99.3398 113.808C99.6601 113.97 99.9671 114.157 100.258 114.367C100.369 114.437 100.47 114.523 100.558 114.621C100.537 114.653 100.088 114.313 99.2769 113.936C98.2194 113.447 97.0472 113.259 95.8899 113.395C94.7278 113.49 93.6065 113.867 92.6238 114.495C91.8818 114.985 91.5138 115.415 91.4858 115.387Z" fill="white"/>
<path d="M93.8899 105.082C94.2578 105.425 94.6666 105.722 95.1069 105.966C95.5901 106.212 96.1151 106.366 96.6549 106.42C97.3134 106.498 97.9809 106.406 98.5937 106.152C99.2064 105.899 99.744 105.492 100.155 104.972C100.499 104.552 100.762 104.072 100.93 103.556C101.069 103.073 101.148 102.574 101.166 102.071C101.204 102.204 101.221 102.343 101.216 102.481C101.223 102.859 101.172 103.235 101.066 103.598C100.911 104.14 100.65 104.647 100.299 105.088C99.8755 105.641 99.3136 106.072 98.6701 106.338C98.0266 106.605 97.3242 106.696 96.6339 106.604C96.0719 106.541 95.528 106.366 95.0339 106.091C94.7006 105.91 94.397 105.679 94.1339 105.406C94.0361 105.311 93.9538 105.202 93.8899 105.082Z" fill="white"/>
<path d="M106.988 128.779C106.989 128.683 107 128.588 107.019 128.494C107.073 128.224 107.163 127.963 107.285 127.716C107.778 126.817 108.576 126.124 109.535 125.763C110.946 125.202 112.507 125.146 113.954 125.605C114.84 125.781 115.646 126.237 116.254 126.905C116.406 127.104 116.502 127.34 116.532 127.589C116.561 127.838 116.524 128.09 116.423 128.319C116.19 128.767 115.813 129.123 115.352 129.33C114.909 129.549 114.423 129.67 113.929 129.682C113.437 129.708 112.953 129.557 112.562 129.258C112.381 129.104 112.234 128.915 112.129 128.702C112.023 128.489 111.963 128.257 111.95 128.02C111.923 127.577 111.991 127.134 112.15 126.72C112.734 125.31 113.847 124.184 115.25 123.584C116.178 123.17 117.194 122.996 118.207 123.076C118.575 123.104 118.939 123.18 119.287 123.303C119.281 123.329 118.904 123.203 118.201 123.154C117.206 123.105 116.214 123.297 115.309 123.714C114.686 123.997 114.116 124.385 113.622 124.859C113.055 125.399 112.611 126.056 112.322 126.784C112.173 127.174 112.11 127.591 112.135 128.007C112.146 128.218 112.201 128.424 112.294 128.613C112.388 128.802 112.519 128.97 112.68 129.107C113.035 129.375 113.474 129.508 113.918 129.483C114.382 129.47 114.839 129.357 115.255 129.151C115.674 128.964 116.018 128.643 116.233 128.238C116.32 128.041 116.352 127.824 116.326 127.61C116.3 127.396 116.217 127.193 116.086 127.022C115.818 126.681 115.473 126.407 115.08 126.222C114.698 126.04 114.3 125.891 113.892 125.779C112.483 125.324 110.961 125.363 109.578 125.891C108.639 126.231 107.849 126.888 107.343 127.749C107.182 128.076 107.063 128.422 106.988 128.779Z" fill="white"/>
<path d="M96.981 134.205C96.975 134.167 97.554 134.118 98.422 133.805C99.5555 133.408 100.571 132.733 101.377 131.842C102.182 130.951 102.752 129.873 103.033 128.705C103.254 127.805 103.244 127.229 103.283 127.231C103.31 127.364 103.317 127.501 103.304 127.636C103.294 128.006 103.25 128.374 103.172 128.736C102.921 129.942 102.353 131.06 101.527 131.974C100.701 132.888 99.6467 133.565 98.472 133.936C98.1198 134.049 97.7579 134.13 97.391 134.178C97.2564 134.207 97.1183 134.216 96.981 134.205Z" fill="white"/>
<path d="M92.1099 123.003C92.1668 122.97 92.2281 122.946 92.2918 122.93C92.4128 122.89 92.5919 122.83 92.8289 122.775C93.4957 122.597 94.1868 122.527 94.8759 122.567C95.3559 122.603 95.8265 122.719 96.2679 122.911C96.7827 123.131 97.2309 123.483 97.5678 123.93C97.9347 124.437 98.1117 125.057 98.0678 125.682C98.0426 126.014 97.9399 126.336 97.7679 126.622C97.5914 126.928 97.3122 127.161 96.9799 127.281C96.8078 127.339 96.6234 127.352 96.4452 127.317C96.2669 127.281 96.1009 127.2 95.9638 127.081C95.732 126.825 95.6069 126.49 95.6139 126.144C95.5929 125.529 95.714 124.917 95.9678 124.356C96.1768 123.881 96.4783 123.453 96.8546 123.095C97.231 122.738 97.6747 122.46 98.1599 122.276C98.8119 122.031 99.5168 121.963 100.204 122.076C100.389 122.107 100.571 122.153 100.748 122.214C100.811 122.232 100.871 122.259 100.927 122.293C100.921 122.313 100.669 122.213 100.193 122.154C99.521 122.074 98.8398 122.163 98.2108 122.412C97.2833 122.787 96.5412 123.514 96.1458 124.433C95.9092 124.967 95.7974 125.549 95.8188 126.133C95.8121 126.427 95.9159 126.712 96.1099 126.933C96.2211 127.027 96.3548 127.091 96.498 127.118C96.6412 127.145 96.789 127.134 96.9268 127.087C97.2129 126.982 97.4529 126.779 97.6049 126.515C97.7601 126.256 97.8532 125.965 97.8769 125.664C97.9177 125.084 97.7554 124.509 97.4178 124.036C97.103 123.612 96.6838 123.276 96.2008 123.061C95.7781 122.87 95.3266 122.751 94.8648 122.707C94.1888 122.656 93.5089 122.704 92.8469 122.85C92.3729 122.949 92.1139 123.018 92.1099 123.003Z" fill="white"/>
<g opacity="0.3">
<g opacity="0.3">
<path opacity="0.3" d="M114.298 131.742C112.69 130.834 111.118 130.137 109.438 129.373C107.714 128.687 106.192 127.577 105.012 126.146C102.938 123.346 103.174 119.315 101.051 116.556L101.467 122.122C101.594 123.822 101.333 125.504 102.429 126.659C103.591 127.652 104.954 128.382 106.424 128.799C108.984 129.644 111.74 130.899 114.299 131.742" fill="black"/>
</g>
</g>
<path d="M140.415 152.921C140.415 152.921 152.991 156.402 153.496 156.58C154.254 156.846 154.126 159.622 152.947 159.58C152.39 159.559 143.287 159.919 142.137 159.847C140.558 159.503 139.012 159.021 137.517 158.408L140.415 152.921Z" fill="#E8505B"/>
<path d="M145.654 157.719C145.903 156.769 146.402 155.904 147.098 155.211C146.651 155.457 146.28 155.821 146.026 156.263C145.771 156.706 145.643 157.209 145.654 157.719Z" fill="#263238"/>
<path d="M144.34 157.125C144.401 157.136 144.529 156.541 144.864 155.884C145.199 155.227 145.594 154.767 145.549 154.724C145.183 155.01 144.885 155.374 144.676 155.789C144.467 156.204 144.352 156.66 144.34 157.124V157.125Z" fill="#263238"/>
<path d="M143.112 156.796C143.171 155.881 143.513 155.008 144.091 154.296C143.693 154.564 143.387 154.947 143.212 155.393C143.037 155.84 143.002 156.329 143.112 156.796Z" fill="#263238"/>
<path d="M143.336 155.176C143.447 154.877 143.494 154.558 143.471 154.24C143.469 153.894 143.426 153.55 143.344 153.214C143.296 153.015 143.233 152.82 143.157 152.63C143.119 152.511 143.05 152.405 142.957 152.322C142.894 152.274 142.816 152.25 142.737 152.253C142.658 152.257 142.583 152.289 142.525 152.343C142.427 152.437 142.368 152.564 142.358 152.699C142.345 152.809 142.34 152.92 142.342 153.031C142.345 153.239 142.371 153.445 142.42 153.647C142.504 153.984 142.634 154.307 142.807 154.608C142.946 154.894 143.138 155.15 143.372 155.365C143.401 155.345 143.19 155.052 142.939 154.539C142.792 154.242 142.681 153.928 142.609 153.604C142.568 153.415 142.548 153.222 142.548 153.029C142.553 152.836 142.548 152.594 142.664 152.501C142.685 152.478 142.713 152.464 142.744 152.461C142.775 152.459 142.806 152.468 142.83 152.487C142.893 152.548 142.941 152.623 142.968 152.707C143.043 152.888 143.107 153.073 143.159 153.262C143.246 153.583 143.302 153.912 143.325 154.244C143.359 154.81 143.302 155.166 143.336 155.176Z" fill="#263238"/>
<path d="M143.32 155.042C143.064 154.935 142.786 154.89 142.509 154.911C142.208 154.91 141.909 154.947 141.617 155.02C141.438 155.059 141.265 155.122 141.103 155.209C140.999 155.261 140.916 155.345 140.864 155.449C140.813 155.553 140.797 155.67 140.819 155.784C140.847 155.892 140.905 155.991 140.984 156.07C141.064 156.149 141.163 156.205 141.272 156.233C141.457 156.28 141.651 156.28 141.836 156.233C142.133 156.159 142.412 156.023 142.653 155.833C142.882 155.679 143.08 155.484 143.238 155.257C143.004 155.392 142.78 155.543 142.568 155.711C142.334 155.87 142.073 155.983 141.797 156.045C141.644 156.08 141.486 156.079 141.334 156.042C141.261 156.023 141.194 155.986 141.14 155.933C141.087 155.88 141.048 155.815 141.028 155.742C141.016 155.671 141.028 155.598 141.061 155.535C141.095 155.471 141.149 155.421 141.215 155.391C141.359 155.312 141.512 155.252 141.671 155.213C141.947 155.135 142.231 155.085 142.518 155.065C143.006 155.027 143.315 155.078 143.32 155.042Z" fill="#263238"/>
<path d="M147.586 157.854C147.62 157.069 147.925 156.32 148.45 155.735C148.083 155.933 147.795 156.253 147.638 156.64C147.48 157.026 147.462 157.455 147.586 157.854Z" fill="#263238"/>
<path d="M138.811 158.436C138.965 158.529 139.128 158.606 139.298 158.665C139.754 158.841 140.222 158.986 140.698 159.099C142.274 159.444 143.885 159.597 145.498 159.554C147.383 159.534 149.081 159.448 150.312 159.398L151.77 159.321C151.949 159.32 152.128 159.301 152.303 159.264C152.125 159.238 151.946 159.229 151.767 159.239L150.308 159.249L145.497 159.343C143.898 159.383 142.3 159.252 140.729 158.953C139.527 158.706 138.825 158.397 138.811 158.436Z" fill="#263238"/>
<path d="M138.439 158.721C138.456 158.75 138.8 158.549 139.381 158.294C140.121 157.94 140.946 157.802 141.761 157.894C142.561 158.068 143.283 158.497 143.818 159.118C144.042 159.382 144.284 159.629 144.543 159.859C144.376 159.552 144.169 159.269 143.927 159.018C143.68 158.727 143.4 158.465 143.093 158.238C142.71 157.953 142.264 157.764 141.793 157.687C140.939 157.583 140.074 157.747 139.317 158.155C138.996 158.296 138.7 158.487 138.439 158.721Z" fill="#263238"/>
<path d="M127.065 149.449C127.065 149.449 115.165 157.241 114.738 157.563C114.097 158.047 114.832 160.353 115.938 159.954C116.463 159.765 126.449 156.987 127.523 156.569C128.923 155.762 130.25 154.833 131.488 153.795L127.065 149.449Z" fill="#E8505B"/>
<path d="M123.531 155.612C123.386 155.123 123.11 154.683 122.734 154.339C122.357 153.995 121.894 153.761 121.394 153.661C122.267 154.11 123.005 154.783 123.531 155.612Z" fill="#263238"/>
<path d="M124.6 154.647C124.447 154.208 124.2 153.809 123.875 153.477C123.55 153.145 123.155 152.889 122.72 152.727C122.69 152.782 123.211 153.095 123.72 153.627C124.229 154.159 124.545 154.676 124.6 154.647Z" fill="#263238"/>
<path d="M125.673 153.96C125.637 153.481 125.455 153.024 125.153 152.651C124.85 152.277 124.44 152.005 123.979 151.871C124.747 152.374 125.339 153.104 125.673 153.96Z" fill="#263238"/>
<path d="M124.966 152.481C124.997 152.466 124.834 152.144 124.696 151.59C124.617 151.267 124.57 150.936 124.556 150.604C124.548 150.409 124.552 150.213 124.569 150.018C124.569 149.93 124.591 149.844 124.633 149.767C124.65 149.741 124.677 149.723 124.707 149.716C124.737 149.709 124.769 149.714 124.796 149.73C124.932 149.784 125.003 150.015 125.066 150.198C125.125 150.382 125.164 150.572 125.183 150.764C125.213 151.094 125.202 151.427 125.152 151.755C125.069 152.32 124.952 152.663 124.991 152.674C125.148 152.398 125.253 152.095 125.299 151.781C125.372 151.442 125.398 151.094 125.376 150.748C125.361 150.541 125.323 150.336 125.263 150.138C125.231 150.031 125.193 149.927 125.147 149.826C125.096 149.701 125 149.598 124.879 149.538C124.807 149.504 124.726 149.497 124.65 149.517C124.573 149.537 124.506 149.584 124.461 149.649C124.396 149.756 124.362 149.879 124.361 150.004C124.346 150.208 124.346 150.413 124.361 150.617C124.384 150.962 124.448 151.303 124.551 151.633C124.627 151.942 124.769 152.231 124.966 152.481Z" fill="#263238"/>
<path d="M124.942 152.354C124.957 152.384 125.236 152.243 125.715 152.126C125.994 152.058 126.28 152.019 126.567 152.01C126.731 151.999 126.895 152.01 127.056 152.041C127.128 152.049 127.195 152.081 127.246 152.131C127.298 152.181 127.331 152.248 127.341 152.319C127.344 152.394 127.327 152.468 127.292 152.535C127.257 152.601 127.205 152.657 127.141 152.697C127.007 152.781 126.856 152.832 126.699 152.845C126.417 152.87 126.134 152.842 125.863 152.761C125.61 152.666 125.351 152.589 125.087 152.532C125.305 152.7 125.554 152.826 125.819 152.903C126.106 153.011 126.413 153.057 126.719 153.038C126.91 153.026 127.094 152.968 127.257 152.868C127.352 152.809 127.43 152.725 127.481 152.626C127.533 152.526 127.558 152.415 127.552 152.303C127.538 152.188 127.487 152.081 127.407 151.998C127.327 151.914 127.221 151.86 127.107 151.842C126.927 151.808 126.742 151.8 126.56 151.818C126.26 151.837 125.963 151.893 125.677 151.985C125.406 152.048 125.154 152.175 124.942 152.354Z" fill="#263238"/>
<path d="M117.456 159.52C117.469 159.539 117.656 159.4 117.747 159.059C117.842 158.616 117.762 158.153 117.524 157.767C117.406 157.559 117.272 157.36 117.124 157.173C117.011 157.011 116.876 156.865 116.724 156.739C116.616 156.649 116.484 156.594 116.344 156.58C116.244 156.58 116.194 156.6 116.195 156.612C116.355 156.659 116.503 156.741 116.628 156.852C116.757 156.984 116.872 157.13 116.971 157.286C117.104 157.473 117.228 157.667 117.342 157.867C117.555 158.214 117.647 158.622 117.604 159.027C117.562 159.337 117.432 159.499 117.456 159.52Z" fill="#263238"/>
<path d="M121.731 156.327C121.728 155.91 121.58 155.506 121.313 155.186C121.045 154.866 120.675 154.648 120.265 154.571C120.942 154.969 121.46 155.59 121.731 156.327Z" fill="#263238"/>
<path d="M130.269 154.216C130.086 154.322 129.911 154.442 129.746 154.575C129.275 154.903 128.785 155.203 128.279 155.475C127.526 155.872 126.747 156.219 125.948 156.513C125.048 156.849 124.036 157.166 122.967 157.476C120.826 158.093 118.888 158.656 117.489 159.076L115.835 159.583C115.629 159.637 115.428 159.709 115.235 159.797C115.445 159.77 115.653 159.725 115.856 159.662L117.528 159.219C118.937 158.835 120.88 158.294 123.028 157.677C124.099 157.367 125.114 157.042 126.019 156.694C126.822 156.389 127.602 156.025 128.352 155.605C128.857 155.32 129.34 154.998 129.797 154.642C129.967 154.515 130.126 154.373 130.269 154.216Z" fill="#263238"/>
<path d="M130.71 154.375C130.39 154.233 130.049 154.143 129.701 154.107C128.856 153.948 127.983 154.055 127.201 154.412C126.776 154.628 126.408 154.944 126.13 155.331C125.906 155.642 125.719 155.977 125.572 156.331C125.418 156.644 125.306 156.977 125.241 157.32C125.418 157.023 125.573 156.713 125.707 156.394C126.028 155.64 126.585 155.012 127.295 154.603C128.043 154.267 128.87 154.147 129.682 154.257C130.313 154.321 130.702 154.408 130.71 154.375Z" fill="#263238"/>
<path d="M151.798 130.446C152.854 130.868 153.759 131.596 154.398 132.536C155.037 133.477 155.38 134.587 155.383 135.724C155.412 143.392 139.889 151.845 139.889 151.845L119.233 138.154L117.938 137.63C117.938 137.63 145.822 127.16 151.798 130.446Z" fill="#263238"/>
<path d="M129.694 145.07C129.883 144.964 130.063 144.842 130.232 144.705C130.571 144.46 131.054 144.096 131.645 143.638C132.828 142.724 134.437 141.429 136.168 139.938C137.899 138.447 139.423 137.056 140.506 136.026C141.047 135.51 141.481 135.088 141.774 134.791C141.935 134.645 142.082 134.485 142.216 134.314C142.038 134.439 141.871 134.578 141.716 134.731L140.403 135.916C139.296 136.916 137.758 138.293 136.03 139.778C134.302 141.263 132.71 142.578 131.552 143.517L130.182 144.636C130.007 144.767 129.844 144.912 129.694 145.07Z" fill="#455A64"/>
<path d="M145.966 133.312C145.297 133.241 144.621 133.302 143.976 133.493C143.33 133.683 142.729 133.999 142.206 134.422C142.24 134.477 142.993 133.997 144.035 133.695C145.077 133.393 145.967 133.377 145.966 133.312Z" fill="#455A64"/>
<path d="M144.186 132.103C143.708 132.304 143.287 132.62 142.961 133.024C142.635 133.427 142.415 133.905 142.319 134.415C142.379 134.436 142.605 133.793 143.125 133.156C143.645 132.519 144.219 132.158 144.186 132.103Z" fill="#455A64"/>
<path d="M152.933 156.384C152.944 156.36 152.687 156.31 152.401 156.545C152.064 156.861 151.851 157.286 151.801 157.745C151.735 158.195 151.8 158.654 151.989 159.067C152.135 159.381 152.296 159.528 152.314 159.513C152.332 159.498 152.229 159.319 152.127 159.013C151.991 158.616 151.951 158.192 152.009 157.776C152.056 157.363 152.226 156.973 152.497 156.658C152.72 156.426 152.938 156.417 152.933 156.384Z" fill="#263238"/>
<path d="M147.046 117.919L139.689 136.568L108.011 137.084L107.425 135.37L118.525 134.97L123.861 118.426L147.046 117.919Z" fill="#455A64"/>
<path d="M132.257 125.992C132.5 125.869 132.772 125.819 133.043 125.848C133.313 125.877 133.569 125.984 133.78 126.155C133.959 126.324 134.084 126.543 134.137 126.783C134.191 127.024 134.171 127.275 134.08 127.504C133.982 127.73 133.823 127.924 133.621 128.066C133.418 128.207 133.181 128.289 132.935 128.304C132.674 128.321 132.414 128.252 132.196 128.107C131.977 127.963 131.812 127.751 131.725 127.504C131.641 127.228 131.647 126.932 131.742 126.66C131.838 126.388 132.018 126.153 132.257 125.991" fill="#EBEBEB"/>
<path d="M141.844 152.777C141.844 152.777 112.659 133.634 111.464 133.235C110.269 132.836 107.381 130.944 104.493 131.741C101.605 132.538 99.0159 135.127 97.7209 138.911C96.9791 141.727 96.5587 144.618 96.4679 147.528C96.2438 150.839 97.3164 154.108 99.4589 156.643C100.408 157.826 101.668 158.721 103.098 159.227C103.398 159.322 103.717 159.403 104.041 159.473C106.75 160.029 109.564 159.753 112.113 158.683C114.663 157.612 116.83 155.796 118.33 153.473L119.011 152.437C119.011 152.437 138.103 159.451 138.401 159.351L141.844 152.777Z" fill="#263238"/>
<path d="M105.738 147.507C105.738 147.507 105.791 147.534 105.898 147.578L106.376 147.768L108.226 148.48L115.102 151.07C118.023 152.16 121.522 153.456 125.447 154.884C129.372 156.312 133.723 157.878 138.369 159.451L138.454 159.48L138.495 159.4L140.775 155.046L141.937 152.825L141.982 152.739L141.901 152.688L119.639 138.556L112.952 134.338L111.136 133.205L110.662 132.915C110.555 132.85 110.497 132.822 110.497 132.822C110.497 132.822 110.547 132.862 110.651 132.932L111.114 133.239L112.914 134.405L119.566 138.678L141.787 152.862L141.751 152.725L140.588 154.945L138.309 159.3L138.434 159.249C133.79 157.68 129.434 156.121 125.508 154.706L115.148 150.936L108.248 148.405L106.385 147.727L105.9 147.556C105.796 147.521 105.738 147.507 105.738 147.507Z" fill="#455A64"/>
<path d="M108.767 79.526C109.022 78.9183 109.433 78.3886 109.958 77.9905C110.483 77.5925 111.104 77.3401 111.758 77.259C112.458 77.0967 113.188 77.1057 113.884 77.2852C114.58 77.4647 115.223 77.8093 115.758 78.29C116.465 78.938 116.984 79.833 117.858 80.23C119.297 80.882 121.14 79.93 122.504 80.73C122.911 80.9684 123.223 81.3409 123.387 81.7839C123.55 82.2268 123.555 82.7127 123.4 83.1586C123.244 83.6045 122.939 83.9827 122.536 84.2286C122.133 84.4746 121.657 84.5729 121.19 84.507C121.408 84.6409 121.595 84.8196 121.738 85.0312C121.882 85.2428 121.979 85.4824 122.023 85.7344C122.067 85.9863 122.058 86.2447 121.994 86.4925C121.931 86.7403 121.816 86.9719 121.657 87.172C121.305 87.5554 120.851 87.8298 120.348 87.9626C119.845 88.0953 119.315 88.0809 118.82 87.921C117.834 87.5827 116.958 86.9814 116.289 86.182C115.589 85.422 114.968 84.582 114.205 83.876C113.47 83.1306 112.496 82.6682 111.454 82.57C110.75 82.5913 110.064 82.7946 109.463 83.16C108.861 83.5254 108.364 84.0405 108.021 84.655C107.35 85.8926 106.936 87.2532 106.805 88.655C106.673 90.0532 106.371 91.4301 105.905 92.755C105.842 92.908 105.752 93.076 105.591 93.11C105.358 93.159 105.191 92.901 105.091 92.682C104.035 90.2015 103.475 87.5378 103.445 84.842C103.307 83.3381 103.707 81.8339 104.573 80.597C105.542 79.373 107.778 78.611 108.757 79.529" fill="#263238"/>
<path d="M105.478 85.757L103.333 101.348C103.247 101.976 103.289 102.615 103.457 103.226C103.626 103.838 103.916 104.409 104.312 104.904C104.707 105.4 105.199 105.81 105.758 106.11C106.317 106.409 106.93 106.592 107.562 106.648C108.76 106.752 109.952 106.392 110.892 105.641C111.832 104.89 112.446 103.807 112.609 102.615C112.769 101.441 112.909 100.463 112.93 100.343C112.93 100.343 116.95 100.516 117.778 96.627C118.178 94.748 118.686 90.81 119.104 87.242C119.321 85.3937 118.833 83.5316 117.738 82.0268C116.644 80.5219 115.022 79.4848 113.197 79.122L112.821 79.047C108.715 78.473 105.935 81.637 105.478 85.757Z" fill="#FFBE9D"/>
<path d="M112.943 100.291C111.136 99.9651 109.467 99.1088 108.149 97.831C108.149 97.831 108.79 100.877 112.749 101.303L112.943 100.291Z" fill="#EB996E"/>
<path d="M105.217 88.705C105.156 88.663 102.697 87.378 102.25 90.06C102.168 90.3916 102.171 90.7385 102.257 91.0689C102.344 91.3993 102.512 91.7027 102.747 91.9514C102.981 92.2 103.274 92.386 103.598 92.4923C103.923 92.5987 104.269 92.6219 104.605 92.56C104.622 92.486 105.217 88.705 105.217 88.705Z" fill="#FFBE9D"/>
<path d="M103.955 91.414C103.945 91.404 103.903 91.439 103.818 91.462C103.699 91.491 103.573 91.4728 103.467 91.411C103.312 91.2722 103.197 91.0948 103.134 90.8969C103.07 90.6991 103.06 90.4879 103.105 90.285C103.136 90.0536 103.219 89.8322 103.347 89.637C103.386 89.5575 103.444 89.4886 103.516 89.4364C103.587 89.3841 103.67 89.35 103.758 89.337C103.814 89.3318 103.87 89.3464 103.916 89.3782C103.963 89.4099 103.997 89.4569 104.012 89.511C104.035 89.592 104.012 89.643 104.023 89.65C104.034 89.657 104.088 89.615 104.085 89.5C104.082 89.431 104.054 89.3653 104.008 89.314C103.944 89.2455 103.855 89.2053 103.761 89.202C103.647 89.2053 103.536 89.2378 103.439 89.2962C103.341 89.3547 103.26 89.4373 103.203 89.536C103.05 89.7493 102.951 89.9968 102.916 90.257C102.863 90.4935 102.881 90.7404 102.968 90.9667C103.055 91.193 103.206 91.3887 103.404 91.529C103.473 91.5619 103.548 91.579 103.624 91.579C103.7 91.579 103.775 91.5619 103.843 91.529C103.939 91.473 103.963 91.414 103.955 91.414Z" fill="#EB996E"/>
<path d="M120.089 86.598C119.181 86.6469 118.275 86.4798 117.445 86.1102C116.614 85.7406 115.883 85.1791 115.312 84.472C114.524 83.478 114.024 82.172 112.912 81.572C112.528 81.3829 112.111 81.272 111.683 81.2457C111.256 81.2195 110.828 81.2784 110.424 81.419C109.617 81.7055 108.877 82.1551 108.251 82.74C108.609 84.871 107.661 86.982 106.737 88.94C106.658 89.1674 106.506 89.362 106.304 89.493C105.94 89.672 105.504 89.393 105.288 89.046C104.982 88.4686 104.852 87.8145 104.912 87.164C104.919 85.6798 105.222 84.212 105.802 82.846C106.387 81.4769 107.36 80.3094 108.602 79.488C110.199 78.5129 112.112 78.1963 113.937 78.605C115.752 79.0256 117.388 80.0078 118.613 81.412C119.21 82.0335 119.643 82.7941 119.873 83.625" fill="#263238"/>
<path d="M12.0222 149.498C12.0399 149.442 12.0627 149.387 12.0902 149.335L12.3092 148.869C12.5754 148.266 12.7905 147.641 12.9522 147.002C13.4662 144.624 13.4474 142.161 12.8972 139.791C12.5564 138.149 12.1095 136.531 11.5592 134.947C10.9932 133.228 10.3352 131.404 9.79816 129.432C9.1914 127.374 8.89844 125.237 8.92917 123.092C9.10745 120.798 9.60387 118.539 10.4042 116.382C11.203 114.245 11.7755 112.03 12.1122 109.774C12.3618 107.664 11.9376 105.528 10.9002 103.674C9.93417 101.894 8.71816 100.374 7.80716 98.7929C6.95684 97.3301 6.33024 95.7483 5.94817 94.0999C5.39963 91.7117 5.35943 89.2348 5.83017 86.83C5.99769 85.9513 6.25193 85.0914 6.58917 84.2629C6.57919 84.3208 6.56413 84.3777 6.54417 84.433L6.39016 84.925C6.20045 85.5556 6.04424 86.1958 5.92217 86.843C5.48862 89.2353 5.55262 91.6914 6.11016 94.058C6.49919 95.6861 7.12771 97.2474 7.97517 98.6909C8.88317 100.25 10.1052 101.766 11.0902 103.568C12.1538 105.46 12.5911 107.639 12.3392 109.795C12.0044 112.068 11.4303 114.3 10.6262 116.452C9.83229 118.589 9.33794 120.826 9.15717 123.099C9.12465 125.222 9.41083 127.337 10.0062 129.375C10.5342 131.337 11.1842 133.161 11.7432 134.885C12.2887 136.479 12.7284 138.106 13.0592 139.758C13.5995 142.15 13.593 144.634 13.0402 147.023C12.8687 147.664 12.6384 148.289 12.3522 148.888L12.1122 149.346C12.0867 149.399 12.0566 149.45 12.0222 149.498Z" fill="#263238"/>
<path d="M9.04702 100.345C9.04702 100.345 7.19903 94.436 10.514 90.975C10.5398 90.9474 10.5726 90.9274 10.609 90.9173C10.6454 90.9072 10.6838 90.9073 10.7201 90.9176C10.7564 90.928 10.7891 90.9481 10.8147 90.9759C10.8403 91.0037 10.8577 91.0379 10.865 91.075C11.042 92.053 11.263 95.0259 9.04702 100.345Z" fill="#E8505B"/>
<path d="M10.1539 92.945C10.1491 93.3116 10.1072 93.6768 10.0289 94.035C9.90795 94.786 9.76495 95.6679 9.60695 96.6409C9.44895 97.6139 9.31295 98.4959 9.19295 99.2469C9.15984 99.612 9.09289 99.9733 8.99295 100.326C8.95989 99.9593 8.97097 99.59 9.02595 99.2259C9.08695 98.5509 9.20595 97.6259 9.37395 96.6019C9.54195 95.5779 9.71795 94.6639 9.86295 94.0019C9.92005 93.6398 10.0177 93.2853 10.1539 92.945Z" fill="#263238"/>
<path d="M11.217 114.282C11.217 114.282 12.347 108.195 16.895 106.682C16.9308 106.67 16.9693 106.667 17.0063 106.676C17.0433 106.684 17.0773 106.702 17.1045 106.728C17.1318 106.755 17.1512 106.788 17.1606 106.825C17.1701 106.861 17.1692 106.9 17.158 106.936C16.858 107.886 15.664 110.617 11.217 114.282Z" fill="#E8505B"/>
<path d="M15.6561 108.258C15.4804 108.58 15.2727 108.884 15.0361 109.164L13.4441 111.27L11.8591 113.38C11.6606 113.688 11.4339 113.976 11.1821 114.242C11.3244 113.903 11.5067 113.583 11.7251 113.287C12.0951 112.719 12.6341 111.953 13.2591 111.13C13.8841 110.307 14.4701 109.578 14.9071 109.062C15.126 108.767 15.3772 108.497 15.6561 108.258Z" fill="#263238"/>
<path d="M9.98801 129.554C9.98801 129.554 9.30102 123.401 13.216 120.637C13.2461 120.613 13.2827 120.598 13.3211 120.594C13.3596 120.59 13.3983 120.597 13.4327 120.615C13.4671 120.633 13.4956 120.66 13.5149 120.693C13.5341 120.727 13.5432 120.765 13.541 120.804C13.529 121.793 13.179 124.755 9.98801 129.554Z" fill="#E8505B"/>
<path d="M12.487 122.502C12.4127 122.861 12.3021 123.211 12.157 123.548L11.246 126.026L10.346 128.506C10.2442 128.858 10.1103 129.2 9.94604 129.527C9.98315 129.161 10.0644 128.801 10.188 128.455C10.377 127.804 10.671 126.915 11.03 125.946C11.389 124.977 11.738 124.11 12.006 123.488C12.1291 123.142 12.2905 122.812 12.487 122.502Z" fill="#263238"/>
<path d="M13.415 144.916C13.415 144.916 12.949 138.742 16.96 136.116C16.9909 136.093 17.0279 136.079 17.0665 136.077C17.105 136.074 17.1435 136.083 17.1772 136.101C17.211 136.12 17.2386 136.148 17.2566 136.183C17.2747 136.217 17.2825 136.255 17.279 136.294C17.231 137.288 16.775 140.234 13.415 144.916Z" fill="#E8505B"/>
<path d="M16.1651 137.957C16.0775 138.313 15.9542 138.66 15.7971 138.991L14.7971 141.435L13.8051 143.881C13.6919 144.229 13.5466 144.566 13.3711 144.887C13.4214 144.523 13.5154 144.166 13.6511 143.825C13.8631 143.181 14.1891 142.303 14.5821 141.348C14.9751 140.393 15.3551 139.538 15.6451 138.926C15.7815 138.584 15.9559 138.259 16.1651 137.957Z" fill="#263238"/>
<path d="M6.39106 95.155C6.39106 95.155 0.903058 92.2889 0.791058 87.4979C0.787653 87.4594 0.795521 87.4206 0.813702 87.3865C0.831883 87.3523 0.859595 87.3241 0.893479 87.3053C0.927362 87.2866 0.965959 87.2781 1.00458 87.2809C1.0432 87.2836 1.08019 87.2976 1.11106 87.3209C1.93106 87.8829 4.19106 89.826 6.39106 95.155Z" fill="#E8505B"/>
<path d="M1.93408 89.1419C2.19041 89.4042 2.41958 89.6916 2.61808 89.9999L4.16508 92.14L5.71808 94.274C5.95364 94.5541 6.16286 94.8554 6.34308 95.174C6.06057 94.9385 5.80741 94.6699 5.58908 94.374C5.15408 93.854 4.58108 93.113 3.97708 92.274C3.37308 91.435 2.84908 90.661 2.48308 90.092C2.26527 89.7967 2.08113 89.4781 1.93408 89.1419Z" fill="#263238"/>
<path d="M12.2851 107.845C12.2851 107.845 6.6331 105.317 6.2341 100.545C6.22958 100.507 6.23581 100.468 6.25211 100.434C6.2684 100.399 6.2941 100.369 6.32628 100.349C6.35846 100.328 6.39583 100.316 6.43416 100.316C6.47248 100.315 6.51022 100.325 6.5431 100.345C7.3911 100.859 9.7651 102.661 12.2851 107.845Z" fill="#E8505B"/>
<path d="M7.47119 102.115C7.74313 102.361 7.98939 102.634 8.20619 102.93L9.88019 104.971L11.5592 107.007C11.8115 107.272 12.0388 107.561 12.2382 107.868C11.9423 107.65 11.6737 107.398 11.4382 107.116C10.9732 106.623 10.3552 105.916 9.70219 105.116C9.04919 104.316 8.47819 103.575 8.07819 103.029C7.8425 102.748 7.63891 102.441 7.47119 102.115Z" fill="#263238"/>
<path d="M9.03103 121.999C9.03103 121.999 5.15004 117.175 6.97104 112.742C6.98338 112.705 7.0061 112.673 7.03645 112.649C7.06679 112.625 7.10345 112.61 7.14198 112.607C7.18052 112.603 7.21926 112.611 7.25353 112.629C7.2878 112.647 7.31611 112.674 7.33504 112.708C7.85604 113.552 9.14903 116.238 9.03103 121.999Z" fill="#E8505B"/>
<path d="M7.35599 114.707C7.48586 115.05 7.58068 115.405 7.63899 115.767L8.19999 118.347C8.41199 119.31 8.59999 120.181 8.76799 120.924C8.87158 121.275 8.94255 121.635 8.97999 121.999C8.81534 121.67 8.69078 121.323 8.60899 120.965C8.41899 120.314 8.18999 119.406 7.97299 118.396C7.75599 117.386 7.58499 116.466 7.47299 115.796C7.39389 115.438 7.35465 115.073 7.35599 114.707Z" fill="#263238"/>
<path d="M12.8751 138.659C12.8751 138.659 7.26605 136.037 6.94805 131.259C6.94292 131.221 6.94905 131.181 6.9657 131.146C6.98236 131.111 7.00882 131.082 7.04187 131.062C7.07491 131.042 7.11313 131.031 7.15186 131.032C7.1906 131.034 7.22818 131.046 7.26005 131.068C8.10005 131.592 10.4441 133.434 12.8751 138.659Z" fill="#E8505B"/>
<path d="M8.15894 132.85C8.42654 133.101 8.66811 133.378 8.87994 133.677L10.5199 135.747L12.1649 137.81C12.4126 138.08 12.6349 138.371 12.8289 138.682C12.5366 138.459 12.272 138.203 12.0409 137.917C11.5839 137.417 10.9779 136.702 10.3409 135.89C9.70393 135.078 9.14093 134.329 8.75193 133.776C8.5204 133.49 8.3215 133.18 8.15894 132.85Z" fill="#263238"/>
<path d="M24.048 114.316C24.0573 114.361 24.0597 114.407 24.055 114.452C24.055 114.56 24.049 114.69 24.045 114.852C24.028 115.224 24.006 115.726 23.979 116.352C23.907 117.672 23.806 119.512 23.685 121.713V121.718V121.725C23.1176 124.275 22.0747 126.696 20.611 128.86C19.487 130.636 18.311 132.251 17.292 133.752C16.3687 135.064 15.5373 136.439 14.804 137.866C14.3233 138.834 13.9336 139.845 13.64 140.885C13.54 141.255 13.467 141.543 13.425 141.741C13.4081 141.844 13.3806 141.944 13.343 142.041C13.3449 141.938 13.357 141.835 13.379 141.734C13.407 141.534 13.467 141.24 13.553 140.864C13.8138 139.807 14.1824 138.779 14.653 137.797C15.3693 136.351 16.1912 134.96 17.112 133.635C18.122 132.123 19.294 130.505 20.412 128.735C21.8603 126.594 22.9026 124.204 23.487 121.686V121.699C23.641 119.499 23.771 117.662 23.863 116.343L23.984 114.843C24 114.686 24.013 114.556 24.023 114.449C24.0249 114.404 24.0334 114.359 24.048 114.316Z" fill="#263238"/>
<path d="M20.709 128.398C20.709 128.398 23.085 122.68 20.097 118.934C20.0738 118.904 20.0427 118.881 20.0073 118.868C19.9719 118.854 19.9335 118.851 19.8963 118.858C19.8591 118.865 19.8246 118.883 19.7967 118.908C19.7688 118.934 19.7484 118.967 19.738 119.003C19.473 119.96 18.983 122.9 20.709 128.398Z" fill="#E8505B"/>
<path d="M20.2739 120.928C20.3764 121.281 20.4395 121.643 20.4619 122.01C20.5459 122.682 20.6399 123.61 20.7139 124.642C20.7879 125.674 20.8229 126.609 20.8229 127.287C20.8455 127.655 20.8233 128.024 20.7569 128.387C20.69 128.027 20.6566 127.661 20.6569 127.295C20.6059 126.536 20.5469 125.646 20.4809 124.662C20.4149 123.678 20.3499 122.787 20.2969 122.028C20.2518 121.663 20.2441 121.294 20.2739 120.928Z" fill="#263238"/>
<g opacity="0.3">
<g opacity="0.3">
<path opacity="0.3" d="M20.709 128.398C20.709 128.398 23.085 122.68 20.097 118.934C20.0738 118.904 20.0427 118.881 20.0073 118.868C19.9719 118.854 19.9335 118.851 19.8963 118.858C19.8591 118.865 19.8246 118.883 19.7967 118.908C19.7688 118.934 19.7484 118.967 19.738 119.003C19.473 119.96 18.983 122.9 20.709 128.398Z" fill="black"/>
</g>
</g>
<path d="M13.35 142.176C13.35 142.176 15.25 136.284 11.972 132.793C11.9472 132.763 11.9143 132.741 11.8773 132.73C11.8403 132.718 11.8007 132.718 11.7634 132.728C11.7261 132.739 11.6927 132.76 11.6672 132.789C11.6418 132.819 11.6253 132.855 11.62 132.893C11.434 133.866 11.185 136.836 13.35 142.176Z" fill="#E8505B"/>
<path d="M12.3179 134.766C12.4489 135.109 12.5412 135.465 12.5929 135.829C12.7309 136.492 12.9009 137.412 13.0579 138.429C13.2149 139.446 13.3259 140.38 13.3809 141.056C13.4326 141.42 13.4404 141.79 13.4039 142.156C13.3086 141.802 13.2464 141.441 13.2179 141.076C13.1059 140.324 12.9749 139.441 12.8289 138.466L12.4289 135.856C12.3552 135.497 12.318 135.132 12.3179 134.766Z" fill="#263238"/>
<g opacity="0.3">
<g opacity="0.3">
<path opacity="0.3" d="M13.35 142.176C13.35 142.176 15.25 136.284 11.972 132.793C11.9472 132.763 11.9143 132.741 11.8773 132.73C11.8403 132.718 11.8007 132.718 11.7634 132.728C11.7261 132.739 11.6927 132.76 11.6672 132.789C11.6418 132.819 11.6253 132.855 11.62 132.893C11.434 133.866 11.185 136.836 13.35 142.176Z" fill="black"/>
</g>
</g>
<path d="M23.7339 121.41C23.7339 121.41 28.8059 117.859 28.2939 113.095C28.2922 113.056 28.2794 113.019 28.2569 112.988C28.2345 112.956 28.2034 112.932 28.1674 112.918C28.1314 112.903 28.0921 112.9 28.0542 112.908C28.0163 112.915 27.9815 112.934 27.9539 112.961C27.2179 113.62 25.2279 115.844 23.7339 121.41Z" fill="#E8505B"/>
<g opacity="0.3">
<g opacity="0.3">
<path opacity="0.3" d="M23.7339 121.41C23.7339 121.41 28.8059 117.859 28.2939 113.095C28.2922 113.056 28.2794 113.019 28.2569 112.988C28.2345 112.956 28.2034 112.932 28.1674 112.918C28.1314 112.903 28.0921 112.9 28.0542 112.908C28.0163 112.915 27.9815 112.934 27.9539 112.961C27.2179 113.62 25.2279 115.844 23.7339 121.41Z" fill="black"/>
</g>
</g>
<path d="M27.375 114.873C27.2731 115.226 27.1319 115.566 26.954 115.887C26.664 116.499 26.245 117.335 25.754 118.244C25.263 119.153 24.791 119.962 24.427 120.534C24.2486 120.856 24.032 121.154 23.782 121.424C23.9185 121.085 24.0858 120.759 24.282 120.451L25.546 118.135L26.804 115.814C26.9623 115.482 27.1536 115.167 27.375 114.873Z" fill="#263238"/>
<path d="M15.396 136.335C15.396 136.335 21.514 135.381 23.152 130.879C23.1675 130.844 23.1724 130.804 23.1661 130.766C23.1598 130.728 23.1426 130.693 23.1166 130.664C23.0906 130.636 23.0568 130.615 23.0195 130.605C22.9821 130.596 22.9427 130.597 22.906 130.609C21.953 130.88 19.188 131.993 15.396 136.335Z" fill="#E8505B"/>
<g opacity="0.3">
<g opacity="0.3">
<path opacity="0.3" d="M15.396 136.335C15.396 136.335 21.514 135.381 23.152 130.879C23.1675 130.844 23.1724 130.804 23.1661 130.766C23.1598 130.728 23.1426 130.693 23.1166 130.664C23.0906 130.636 23.0568 130.615 23.0195 130.605C22.9821 130.596 22.9427 130.597 22.906 130.609C21.953 130.88 19.188 131.993 15.396 136.335Z" fill="black"/>
</g>
</g>
<path d="M21.5441 132.071C21.2969 132.343 21.0202 132.586 20.7191 132.796C20.1901 133.218 19.4451 133.783 18.6041 134.383C17.7631 134.983 16.9831 135.501 16.4041 135.854C16.1024 136.064 15.7764 136.237 15.4331 136.369C15.7061 136.125 16.001 135.907 16.3141 135.717L18.4691 134.194L20.6211 132.664C20.9079 132.436 21.2172 132.237 21.5441 132.071Z" fill="#263238"/>
<path d="M9.56015 147.593L7.77515 159.604H18.8971L17.4551 147.593H9.56015Z" fill="#455A64"/>
<path d="M17.899 151.314C16.4069 151.43 14.91 151.468 13.414 151.43C11.918 151.469 10.421 151.43 8.92896 151.314C10.421 151.199 11.918 151.16 13.414 151.199C14.9099 151.16 16.4069 151.199 17.899 151.314Z" fill="#263238"/>
<path d="M18.1202 152.271C18.1202 152.335 16.0462 152.387 13.4892 152.387C10.9322 152.387 8.85718 152.335 8.85718 152.271C8.85718 152.207 10.9302 152.155 13.4892 152.155C16.0482 152.155 18.1202 152.207 18.1202 152.271Z" fill="#263238"/>
</svg>
