<svg width="249" height="71" viewBox="0 0 249 71" fill="none" xmlns="http://www.w3.org/2000/svg">
<path d="M2.53494 4.98198H12.7099V19.224C12.7103 19.6499 12.844 20.065 13.0925 20.411C13.3409 20.757 13.6915 21.0165 14.0949 21.153L26.3149 25.224C26.7305 25.3617 27.1794 25.3617 27.5949 25.224L39.8149 21.153C40.2184 21.0165 40.569 20.757 40.8174 20.411C41.0658 20.065 41.1996 19.6499 41.1999 19.224V4.98198H51.3749C51.6459 4.98798 51.9154 4.9398 52.1674 4.84026C52.4195 4.74072 52.6492 4.59182 52.843 4.4023C53.0367 4.21279 53.1907 3.98647 53.2958 3.73664C53.4009 3.48682 53.455 3.21851 53.455 2.94748C53.455 2.67644 53.4009 2.40813 53.2958 2.15831C53.1907 1.90848 53.0367 1.68217 52.843 1.49265C52.6492 1.30313 52.4195 1.15424 52.1674 1.05469C51.9154 0.955148 51.6459 0.906968 51.3749 0.912976H2.53494C2.26397 0.906968 1.99453 0.955148 1.74243 1.05469C1.49034 1.15424 1.26067 1.30313 1.06691 1.49265C0.873146 1.68217 0.719182 1.90848 0.614075 2.15831C0.508967 2.40813 0.454834 2.67644 0.454834 2.94748C0.454834 3.21851 0.508967 3.48682 0.614075 3.73664C0.719182 3.98647 0.873146 4.21279 1.06691 4.4023C1.26067 4.59182 1.49034 4.74072 1.74243 4.84026C1.99453 4.9398 2.26397 4.98798 2.53494 4.98198ZM39.1649 33.465C38.6254 33.465 38.1079 33.6793 37.7263 34.0609C37.3448 34.4424 37.1304 34.9599 37.1304 35.4995C37.1304 36.0391 37.3448 36.5565 37.7263 36.9381C38.1079 37.3196 38.6254 37.534 39.1649 37.534C39.4321 37.5338 39.6967 37.5864 39.9436 37.6885C40.1905 37.7907 40.4149 37.9405 40.6038 38.1294C40.7928 38.3182 40.9427 38.5425 41.045 38.7894C41.1473 39.0362 41.1999 39.3008 41.1999 39.568C41.2005 40.1074 41.4151 40.6246 41.7966 41.006C42.1782 41.3874 42.6955 41.6017 43.2349 41.602H53.2929C52.778 35.1703 49.9236 29.1503 45.2699 24.681V27.36C45.267 28.9778 44.6227 30.5284 43.4783 31.6719C42.3339 32.8154 40.7827 33.4584 39.1649 33.46V33.465ZM37.3919 41.341C35.9858 40.9212 34.7782 40.0086 33.9904 38.7705C33.2027 37.5324 32.8876 36.0518 33.1031 34.6003C33.3186 33.1488 34.0501 31.8235 35.1635 30.8676C36.2768 29.9117 37.6975 29.3893 39.1649 29.396C39.7044 29.3957 40.2217 29.1814 40.6033 28.8C40.9848 28.4186 41.1994 27.9014 41.1999 27.362V24.962C41.1709 24.973 41.1499 24.993 41.1209 25.003L28.8809 29.08C27.6273 29.4985 26.2716 29.4985 25.0179 29.08L12.8089 25.013C11.8067 24.6545 10.916 24.0394 10.2259 23.229C6.89676 25.9755 4.28253 29.4877 2.60693 33.465H6.60693C7.86908 33.4664 9.09988 33.8582 10.1306 34.5867C11.1613 35.3152 11.9414 36.3447 12.3639 37.534H14.7469C16.0091 37.5354 17.2399 37.9272 18.2706 38.6557C19.3013 39.3842 20.0814 40.4137 20.5039 41.603H26.9569C28.5757 41.603 30.1281 42.246 31.2728 43.3907C32.4174 44.5353 33.0604 46.0877 33.0604 47.7065C33.0604 49.3252 32.4174 50.8777 31.2728 52.0223C30.1281 53.1669 28.5757 53.81 26.9569 53.81C26.4174 53.81 25.8999 54.0243 25.5183 54.4059C25.1368 54.7874 24.9224 55.3049 24.9224 55.8445C24.9224 56.3841 25.1368 56.9015 25.5183 57.2831C25.8999 57.6646 26.4174 57.879 26.9569 57.879H31.0269C33.3707 57.8818 35.6418 58.6925 37.4576 60.1743C39.2735 61.656 40.5231 63.7184 40.9959 66.014C44.4945 63.8206 47.4306 60.8381 49.5688 57.3056C51.7071 53.7731 52.988 49.7888 53.3089 45.672H43.2359C41.9267 45.6707 40.6524 45.2492 39.6006 44.4696C38.5487 43.6899 37.7749 42.5933 37.3929 41.341H37.3919ZM31.0249 61.948H26.9549C25.3362 61.948 23.7837 61.3049 22.6391 60.1603C21.4945 59.0157 20.8514 57.4632 20.8514 55.8445C20.8514 54.2257 21.4945 52.6733 22.6391 51.5287C23.7837 50.384 25.3362 49.741 26.9549 49.741C27.2259 49.747 27.4953 49.6988 27.7474 49.5993C27.9995 49.4997 28.2292 49.3508 28.423 49.1613C28.6167 48.9718 28.7707 48.7455 28.8758 48.4956C28.9809 48.2458 29.035 47.9775 29.035 47.7065C29.035 47.4354 28.9809 47.1671 28.8758 46.9173C28.7707 46.6675 28.6167 46.4412 28.423 46.2517C28.2292 46.0621 27.9995 45.9132 27.7474 45.8137C27.4953 45.7141 27.2259 45.666 26.9549 45.672H18.8149C18.5477 45.6721 18.2831 45.6196 18.0363 45.5174C17.7894 45.4153 17.565 45.2655 17.376 45.0766C17.1871 44.8877 17.0371 44.6634 16.9349 44.4166C16.8326 44.1698 16.7799 43.9052 16.7799 43.638C16.7794 43.0985 16.5648 42.5813 16.1833 42.1999C15.8017 41.8186 15.2844 41.6042 14.7449 41.604H10.6749C10.4077 41.6041 10.1431 41.5516 9.89626 41.4494C9.64936 41.3473 9.42502 41.1975 9.23604 41.0086C9.04706 40.8197 8.89714 40.5954 8.79486 40.3486C8.69258 40.1017 8.63994 39.8372 8.63994 39.57C8.63941 39.0305 8.42481 38.5133 8.04326 38.132C7.66171 37.7506 7.1444 37.5362 6.60493 37.536H1.23593C0.750855 39.5331 0.504149 41.5808 0.500946 43.636C0.500204 47.9912 1.57515 52.2791 3.63029 56.119C5.68544 59.9588 8.65714 63.2315 12.2814 65.6465C15.9057 68.0616 20.0704 69.544 24.4055 69.9623C28.7405 70.3805 33.1118 69.7216 37.1309 68.044C37.128 66.427 36.4844 64.8772 35.3411 63.7338C34.1977 62.5905 32.6479 61.9469 31.0309 61.944L31.0249 61.948ZM51.3749 17.189C50.8355 17.1887 50.3182 16.9744 49.9366 16.593C49.5551 16.2116 49.3405 15.6944 49.3399 15.155V9.05497H45.2699V15.155C45.2729 16.7728 45.9171 18.3234 47.0616 19.4669C48.206 20.6104 49.7571 21.2534 51.3749 21.255C51.6459 21.261 51.9154 21.2128 52.1674 21.1133C52.4195 21.0137 52.6492 20.8648 52.843 20.6753C53.0367 20.4858 53.1907 20.2595 53.2958 20.0096C53.4009 19.7598 53.455 19.4915 53.455 19.2205C53.455 18.9494 53.4009 18.6811 53.2958 18.4313C53.1907 18.1815 53.0367 17.9552 52.843 17.7657C52.6492 17.5761 52.4195 17.4272 52.1674 17.3277C51.9154 17.2281 51.6459 17.18 51.3749 17.186V17.189Z" fill="white"/>
<path d="M97.904 46.744H89.008L87.536 51H82.832L90.864 28.632H96.08L104.112 51H99.376L97.904 46.744ZM96.688 43.16L93.456 33.816L90.224 43.16H96.688ZM123.402 35.576C123.402 36.7707 123.114 37.8907 122.538 38.936C121.984 39.9813 121.098 40.824 119.882 41.464C118.688 42.104 117.173 42.424 115.338 42.424H111.594V51H107.114V28.664H115.338C117.066 28.664 118.538 28.9627 119.754 29.56C120.97 30.1573 121.877 30.9787 122.474 32.024C123.093 33.0693 123.402 34.2533 123.402 35.576ZM115.146 38.808C116.384 38.808 117.301 38.5307 117.898 37.976C118.496 37.4 118.794 36.6 118.794 35.576C118.794 33.4 117.578 32.312 115.146 32.312H111.594V38.808H115.146ZM138.103 51L133.175 42.296H131.063V51H126.583V28.664H134.967C136.695 28.664 138.167 28.9733 139.383 29.592C140.599 30.1893 141.506 31.0107 142.103 32.056C142.722 33.08 143.031 34.232 143.031 35.512C143.031 36.984 142.604 38.3173 141.751 39.512C140.898 40.6853 139.628 41.496 137.943 41.944L143.287 51H138.103ZM131.063 38.936H134.807C136.023 38.936 136.93 38.648 137.527 38.072C138.124 37.4747 138.423 36.6533 138.423 35.608C138.423 34.584 138.124 33.7947 137.527 33.24C136.93 32.664 136.023 32.376 134.807 32.376H131.063V38.936ZM151.563 32.28V37.88H159.083V41.432H151.563V47.352H160.043V51H147.083V28.632H160.043V32.28H151.563ZM183.218 51H178.738L168.594 35.672V51H164.114V28.632H168.594L178.738 43.992V28.632H183.218V51ZM195.454 28.664C197.8 28.664 199.859 29.1227 201.63 30.04C203.422 30.9573 204.798 32.2693 205.758 33.976C206.739 35.6613 207.23 37.624 207.23 39.864C207.23 42.104 206.739 44.0667 205.758 45.752C204.798 47.416 203.422 48.7067 201.63 49.624C199.859 50.5413 197.8 51 195.454 51H187.646V28.664H195.454ZM195.294 47.192C197.64 47.192 199.454 46.552 200.734 45.272C202.014 43.992 202.654 42.1893 202.654 39.864C202.654 37.5387 202.014 35.7253 200.734 34.424C199.454 33.1013 197.64 32.44 195.294 32.44H192.126V47.192H195.294ZM215.063 32.28V37.88H222.583V41.432H215.063V47.352H223.543V51H210.583V28.632H223.543V32.28H215.063ZM247.678 28.664L239.486 51H234.046L225.854 28.664H230.654L236.798 46.424L242.91 28.664H247.678Z" fill="white"/>
</svg>
